G04 FreePCB version 1.359*
G04 D:\Dropbox\Projects\Costume_2012\Components\LED_Boards\Layout\CAM\bottom_copper.grb*
G04 bottom copper layer *
G04 Scale: 100 percent, Rotated: No, Reflected: No *
%FSLAX24Y24*%
%MOIN*%
%LN bottom copper *%
G04 Rounded Rectangle Macro, params: W/2, H/2, R *
%AMRNDREC*
21,1,$1+$1,$2+$2-$3-$3,0,0,0*
21,1,$1+$1-$3-$3,$2+$2,0,0,0*
1,1,$3+$3,$1-$3,$2-$3*
1,1,$3+$3,$3-$1,$2-$3*
1,1,$3+$3,$1-$3,$3-$2*
1,1,$3+$3,$3-$1,$3-$2*%
G04 Rectangular Thermal Macro, params: W/2, H/2, T/2 *
%AMRECTHERM*
$4=$3/2*
21,1,$1-$3,$2-$3,0-$1/2-$4,0-$2/2-$4,0*
21,1,$1-$3,$2-$3,0-$1/2-$4,$2/2+$4,0*
21,1,$1-$3,$2-$3,$1/2+$4,0-$2/2-$4,0*
21,1,$1-$3,$2-$3,$1/2+$4,$2/2+$4,0*%
%AMMOIRE10*6,0,0,0.350000,0.005,0.050,3,0.005,0.400000,0.0*%
%ADD10MOIRE10*%
%ADD11C,0.010000*%
%ADD12C,0.005000*%
%ADD13C,0.094000*%
%ADD14R,0.075000X0.075000*%
%ADD15C,0.075000*%
%ADD16C,0.030000*%
G90*
G70D02*

G04 ----------------------- Draw moires (positive)*
%LPD*%
G54D10*
G01X-5000Y0D03*
G01X45000Y0D03*
G01X-5000Y40000D03*

G04 Draw Layer Name*
G54D11*
G01X0Y-1045D02*
G01X0Y-2000D01*
G01X0Y-1045D02*
G01X409Y-1045D01*
G01X409Y-1045D02*
G01X545Y-1090D01*
G01X545Y-1090D02*
G01X590Y-1136D01*
G01X590Y-1136D02*
G01X636Y-1227D01*
G01X636Y-1227D02*
G01X636Y-1318D01*
G01X636Y-1318D02*
G01X590Y-1409D01*
G01X590Y-1409D02*
G01X545Y-1454D01*
G01X545Y-1454D02*
G01X409Y-1500D01*
G01X0Y-1500D02*
G01X409Y-1500D01*
G01X409Y-1500D02*
G01X545Y-1545D01*
G01X545Y-1545D02*
G01X590Y-1590D01*
G01X590Y-1590D02*
G01X636Y-1681D01*
G01X636Y-1681D02*
G01X636Y-1818D01*
G01X636Y-1818D02*
G01X590Y-1909D01*
G01X590Y-1909D02*
G01X545Y-1954D01*
G01X545Y-1954D02*
G01X409Y-2000D01*
G01X409Y-2000D02*
G01X0Y-2000D01*
G01X1227Y-1363D02*
G01X1136Y-1409D01*
G01X1136Y-1409D02*
G01X1045Y-1500D01*
G01X1045Y-1500D02*
G01X1000Y-1636D01*
G01X1000Y-1636D02*
G01X1000Y-1727D01*
G01X1000Y-1727D02*
G01X1045Y-1863D01*
G01X1045Y-1863D02*
G01X1136Y-1954D01*
G01X1136Y-1954D02*
G01X1227Y-2000D01*
G01X1227Y-2000D02*
G01X1363Y-2000D01*
G01X1363Y-2000D02*
G01X1454Y-1954D01*
G01X1454Y-1954D02*
G01X1545Y-1863D01*
G01X1545Y-1863D02*
G01X1590Y-1727D01*
G01X1590Y-1727D02*
G01X1590Y-1636D01*
G01X1590Y-1636D02*
G01X1545Y-1500D01*
G01X1545Y-1500D02*
G01X1454Y-1409D01*
G01X1454Y-1409D02*
G01X1363Y-1363D01*
G01X1363Y-1363D02*
G01X1227Y-1363D01*
G01X2090Y-1045D02*
G01X2090Y-1818D01*
G01X2090Y-1818D02*
G01X2136Y-1954D01*
G01X2136Y-1954D02*
G01X2227Y-2000D01*
G01X2227Y-2000D02*
G01X2318Y-2000D01*
G01X1954Y-1363D02*
G01X2272Y-1363D01*
G01X2818Y-1045D02*
G01X2818Y-1818D01*
G01X2818Y-1818D02*
G01X2863Y-1954D01*
G01X2863Y-1954D02*
G01X2954Y-2000D01*
G01X2954Y-2000D02*
G01X3045Y-2000D01*
G01X2681Y-1363D02*
G01X2999Y-1363D01*
G01X3636Y-1363D02*
G01X3545Y-1409D01*
G01X3545Y-1409D02*
G01X3454Y-1500D01*
G01X3454Y-1500D02*
G01X3409Y-1636D01*
G01X3409Y-1636D02*
G01X3409Y-1727D01*
G01X3409Y-1727D02*
G01X3454Y-1863D01*
G01X3454Y-1863D02*
G01X3545Y-1954D01*
G01X3545Y-1954D02*
G01X3636Y-2000D01*
G01X3636Y-2000D02*
G01X3772Y-2000D01*
G01X3772Y-2000D02*
G01X3863Y-1954D01*
G01X3863Y-1954D02*
G01X3954Y-1863D01*
G01X3954Y-1863D02*
G01X3999Y-1727D01*
G01X3999Y-1727D02*
G01X3999Y-1636D01*
G01X3999Y-1636D02*
G01X3954Y-1500D01*
G01X3954Y-1500D02*
G01X3863Y-1409D01*
G01X3863Y-1409D02*
G01X3772Y-1363D01*
G01X3772Y-1363D02*
G01X3636Y-1363D01*
G01X4363Y-1363D02*
G01X4363Y-2000D01*
G01X4363Y-1545D02*
G01X4499Y-1409D01*
G01X4499Y-1409D02*
G01X4590Y-1363D01*
G01X4590Y-1363D02*
G01X4727Y-1363D01*
G01X4727Y-1363D02*
G01X4818Y-1409D01*
G01X4818Y-1409D02*
G01X4863Y-1545D01*
G01X4863Y-1545D02*
G01X4863Y-2000D01*
G01X4863Y-1545D02*
G01X4999Y-1409D01*
G01X4999Y-1409D02*
G01X5090Y-1363D01*
G01X5090Y-1363D02*
G01X5227Y-1363D01*
G01X5227Y-1363D02*
G01X5318Y-1409D01*
G01X5318Y-1409D02*
G01X5363Y-1545D01*
G01X5363Y-1545D02*
G01X5363Y-2000D01*
G01X7136Y-1272D02*
G01X7090Y-1181D01*
G01X7090Y-1181D02*
G01X6999Y-1090D01*
G01X6999Y-1090D02*
G01X6909Y-1045D01*
G01X6909Y-1045D02*
G01X6727Y-1045D01*
G01X6727Y-1045D02*
G01X6636Y-1090D01*
G01X6636Y-1090D02*
G01X6545Y-1181D01*
G01X6545Y-1181D02*
G01X6499Y-1272D01*
G01X6499Y-1272D02*
G01X6454Y-1409D01*
G01X6454Y-1409D02*
G01X6454Y-1636D01*
G01X6454Y-1636D02*
G01X6499Y-1772D01*
G01X6499Y-1772D02*
G01X6545Y-1863D01*
G01X6545Y-1863D02*
G01X6636Y-1954D01*
G01X6636Y-1954D02*
G01X6727Y-2000D01*
G01X6727Y-2000D02*
G01X6909Y-2000D01*
G01X6909Y-2000D02*
G01X6999Y-1954D01*
G01X6999Y-1954D02*
G01X7090Y-1863D01*
G01X7090Y-1863D02*
G01X7136Y-1772D01*
G01X7727Y-1363D02*
G01X7636Y-1409D01*
G01X7636Y-1409D02*
G01X7545Y-1500D01*
G01X7545Y-1500D02*
G01X7500Y-1636D01*
G01X7500Y-1636D02*
G01X7500Y-1727D01*
G01X7500Y-1727D02*
G01X7545Y-1863D01*
G01X7545Y-1863D02*
G01X7636Y-1954D01*
G01X7636Y-1954D02*
G01X7727Y-2000D01*
G01X7727Y-2000D02*
G01X7863Y-2000D01*
G01X7863Y-2000D02*
G01X7954Y-1954D01*
G01X7954Y-1954D02*
G01X8045Y-1863D01*
G01X8045Y-1863D02*
G01X8090Y-1727D01*
G01X8090Y-1727D02*
G01X8090Y-1636D01*
G01X8090Y-1636D02*
G01X8045Y-1500D01*
G01X8045Y-1500D02*
G01X7954Y-1409D01*
G01X7954Y-1409D02*
G01X7863Y-1363D01*
G01X7863Y-1363D02*
G01X7727Y-1363D01*
G01X8454Y-1363D02*
G01X8454Y-2318D01*
G01X8454Y-1500D02*
G01X8545Y-1409D01*
G01X8545Y-1409D02*
G01X8636Y-1363D01*
G01X8636Y-1363D02*
G01X8772Y-1363D01*
G01X8772Y-1363D02*
G01X8863Y-1409D01*
G01X8863Y-1409D02*
G01X8954Y-1500D01*
G01X8954Y-1500D02*
G01X8999Y-1636D01*
G01X8999Y-1636D02*
G01X8999Y-1727D01*
G01X8999Y-1727D02*
G01X8954Y-1863D01*
G01X8954Y-1863D02*
G01X8863Y-1954D01*
G01X8863Y-1954D02*
G01X8772Y-2000D01*
G01X8772Y-2000D02*
G01X8636Y-2000D01*
G01X8636Y-2000D02*
G01X8545Y-1954D01*
G01X8545Y-1954D02*
G01X8454Y-1863D01*
G01X9363Y-1363D02*
G01X9363Y-2318D01*
G01X9363Y-1500D02*
G01X9454Y-1409D01*
G01X9454Y-1409D02*
G01X9545Y-1363D01*
G01X9545Y-1363D02*
G01X9681Y-1363D01*
G01X9681Y-1363D02*
G01X9772Y-1409D01*
G01X9772Y-1409D02*
G01X9863Y-1500D01*
G01X9863Y-1500D02*
G01X9909Y-1636D01*
G01X9909Y-1636D02*
G01X9909Y-1727D01*
G01X9909Y-1727D02*
G01X9863Y-1863D01*
G01X9863Y-1863D02*
G01X9772Y-1954D01*
G01X9772Y-1954D02*
G01X9681Y-2000D01*
G01X9681Y-2000D02*
G01X9545Y-2000D01*
G01X9545Y-2000D02*
G01X9454Y-1954D01*
G01X9454Y-1954D02*
G01X9363Y-1863D01*
G01X10272Y-1636D02*
G01X10818Y-1636D01*
G01X10818Y-1636D02*
G01X10818Y-1545D01*
G01X10818Y-1545D02*
G01X10772Y-1454D01*
G01X10772Y-1454D02*
G01X10727Y-1409D01*
G01X10727Y-1409D02*
G01X10636Y-1363D01*
G01X10636Y-1363D02*
G01X10499Y-1363D01*
G01X10499Y-1363D02*
G01X10409Y-1409D01*
G01X10409Y-1409D02*
G01X10318Y-1500D01*
G01X10318Y-1500D02*
G01X10272Y-1636D01*
G01X10272Y-1636D02*
G01X10272Y-1727D01*
G01X10272Y-1727D02*
G01X10318Y-1863D01*
G01X10318Y-1863D02*
G01X10409Y-1954D01*
G01X10409Y-1954D02*
G01X10499Y-2000D01*
G01X10499Y-2000D02*
G01X10636Y-2000D01*
G01X10636Y-2000D02*
G01X10727Y-1954D01*
G01X10727Y-1954D02*
G01X10818Y-1863D01*
G01X11181Y-1363D02*
G01X11181Y-2000D01*
G01X11181Y-1636D02*
G01X11227Y-1500D01*
G01X11227Y-1500D02*
G01X11318Y-1409D01*
G01X11318Y-1409D02*
G01X11409Y-1363D01*
G01X11409Y-1363D02*
G01X11545Y-1363D01*
G01X12636Y-1045D02*
G01X12636Y-2000D01*
G01X12636Y-2000D02*
G01X13181Y-2000D01*
G01X14090Y-1363D02*
G01X14090Y-2000D01*
G01X14090Y-1500D02*
G01X13999Y-1409D01*
G01X13999Y-1409D02*
G01X13909Y-1363D01*
G01X13909Y-1363D02*
G01X13772Y-1363D01*
G01X13772Y-1363D02*
G01X13681Y-1409D01*
G01X13681Y-1409D02*
G01X13590Y-1500D01*
G01X13590Y-1500D02*
G01X13545Y-1636D01*
G01X13545Y-1636D02*
G01X13545Y-1727D01*
G01X13545Y-1727D02*
G01X13590Y-1863D01*
G01X13590Y-1863D02*
G01X13681Y-1954D01*
G01X13681Y-1954D02*
G01X13772Y-2000D01*
G01X13772Y-2000D02*
G01X13909Y-2000D01*
G01X13909Y-2000D02*
G01X13999Y-1954D01*
G01X13999Y-1954D02*
G01X14090Y-1863D01*
G01X14499Y-1363D02*
G01X14772Y-2000D01*
G01X15045Y-1363D02*
G01X14772Y-2000D01*
G01X14772Y-2000D02*
G01X14681Y-2181D01*
G01X14681Y-2181D02*
G01X14590Y-2272D01*
G01X14590Y-2272D02*
G01X14499Y-2318D01*
G01X14499Y-2318D02*
G01X14454Y-2318D01*
G01X15409Y-1636D02*
G01X15954Y-1636D01*
G01X15954Y-1636D02*
G01X15954Y-1545D01*
G01X15954Y-1545D02*
G01X15909Y-1454D01*
G01X15909Y-1454D02*
G01X15863Y-1409D01*
G01X15863Y-1409D02*
G01X15772Y-1363D01*
G01X15772Y-1363D02*
G01X15636Y-1363D01*
G01X15636Y-1363D02*
G01X15545Y-1409D01*
G01X15545Y-1409D02*
G01X15454Y-1500D01*
G01X15454Y-1500D02*
G01X15409Y-1636D01*
G01X15409Y-1636D02*
G01X15409Y-1727D01*
G01X15409Y-1727D02*
G01X15454Y-1863D01*
G01X15454Y-1863D02*
G01X15545Y-1954D01*
G01X15545Y-1954D02*
G01X15636Y-2000D01*
G01X15636Y-2000D02*
G01X15772Y-2000D01*
G01X15772Y-2000D02*
G01X15863Y-1954D01*
G01X15863Y-1954D02*
G01X15954Y-1863D01*
G01X16318Y-1363D02*
G01X16318Y-2000D01*
G01X16318Y-1636D02*
G01X16363Y-1500D01*
G01X16363Y-1500D02*
G01X16454Y-1409D01*
G01X16454Y-1409D02*
G01X16545Y-1363D01*
G01X16545Y-1363D02*
G01X16681Y-1363D01*

G04 Step and Repeat for panelization *

G04 ----------------------- Draw board outline (positive)*
%LPD*%
G54D12*
G01X0Y0D02*
G01X40000Y0D01*
G04 end of side 1*
G01X40000Y40000D01*
G04 end of side 2*
G01X0Y40000D01*
G04 end of side 3*
G01X0Y1000D01*
G04 end of side 4*
G01X0Y0D01*

G04 -------------- Draw Parts, Pads, Traces, Vias and Text (positive)*
%LPD*%
G04 Draw part R1*
G54D13*
G01X32000Y37000D03*
G01X32000Y33000D03*
G04 Draw part R2*
G01X28000Y37000D03*
G01X28000Y33000D03*
G04 Draw part R3*
G01X15000Y37000D03*
G01X15000Y33000D03*
G04 Draw part R5*
G01X1000Y37000D03*
G01X1000Y33000D03*
G04 Draw part R4*
G01X13000Y37000D03*
G01X13000Y33000D03*
G04 Draw part R6*
G01X3000Y37000D03*
G01X3000Y33000D03*
G04 Draw part R7*
G01X26000Y37000D03*
G01X26000Y33000D03*
G04 Draw part R8*
G01X30000Y37000D03*
G01X30000Y33000D03*
G04 Draw part R10*
G01X11000Y37000D03*
G01X11000Y33000D03*
G04 Draw part R9*
G01X9000Y37000D03*
G01X9000Y33000D03*
G04 Draw part H2*
G54D14*
G01X34000Y38000D03*
G54D15*
G01X34000Y37000D03*
G01X35000Y38000D03*
G01X35000Y37000D03*
G01X36000Y38000D03*
G01X36000Y37000D03*
G01X37000Y38000D03*
G01X37000Y37000D03*
G01X38000Y38000D03*
G01X38000Y37000D03*
G04 Draw part H1*
G54D14*
G01X34000Y3000D03*
G54D15*
G01X34000Y2000D03*
G01X35000Y3000D03*
G01X35000Y2000D03*
G01X36000Y3000D03*
G01X36000Y2000D03*
G01X37000Y3000D03*
G01X37000Y2000D03*
G01X38000Y3000D03*
G01X38000Y2000D03*
G04 Draw part D1*
G04 Draw part D2*
G04 Draw part D3*
G04 Draw part D4*
G04 Draw part D5*
G04 Draw part D6*
G04 Draw part D7*
G04 Draw part D8*
G04 Draw part D9*
G04 Draw part D10*
G04 Draw part D11*
G04 Draw part D12*
G04 Draw part D13*
G04 Draw part D14*
G04 Draw part D15*
G04 Draw part D16*
G04 Draw part D17*
G04 Draw part D18*
G04 Draw part D19*
G04 Draw part D20*
G04 Draw part R12*
G54D13*
G01X7000Y37000D03*
G01X7000Y33000D03*
G04 Draw part R11*
G01X5000Y37000D03*
G01X5000Y33000D03*
G04 Draw part D21*
G04 Draw part D22*
G04 Draw part D23*
G04 Draw part D24*
G04 Draw part D25*
G04 Draw part D26*

G04 Draw traces*

G04 Draw Text*

G04 ----------------------- Draw Pilot Holes (scratch)*
%LPC*%
G04 draw pilot holes for part R1*
G54D16*
G01X32000Y37000D03*
G01X32000Y33000D03*
G04 draw pilot holes for part R2*
G01X28000Y37000D03*
G01X28000Y33000D03*
G04 draw pilot holes for part R3*
G01X15000Y37000D03*
G01X15000Y33000D03*
G04 draw pilot holes for part R5*
G01X1000Y37000D03*
G01X1000Y33000D03*
G04 draw pilot holes for part R4*
G01X13000Y37000D03*
G01X13000Y33000D03*
G04 draw pilot holes for part R6*
G01X3000Y37000D03*
G01X3000Y33000D03*
G04 draw pilot holes for part R7*
G01X26000Y37000D03*
G01X26000Y33000D03*
G04 draw pilot holes for part R8*
G01X30000Y37000D03*
G01X30000Y33000D03*
G04 draw pilot holes for part R10*
G01X11000Y37000D03*
G01X11000Y33000D03*
G04 draw pilot holes for part R9*
G01X9000Y37000D03*
G01X9000Y33000D03*
G04 draw pilot holes for part H2*
G01X34000Y38000D03*
G01X34000Y37000D03*
G01X35000Y38000D03*
G01X35000Y37000D03*
G01X36000Y38000D03*
G01X36000Y37000D03*
G01X37000Y38000D03*
G01X37000Y37000D03*
G01X38000Y38000D03*
G01X38000Y37000D03*
G04 draw pilot holes for part H1*
G01X34000Y3000D03*
G01X34000Y2000D03*
G01X35000Y3000D03*
G01X35000Y2000D03*
G01X36000Y3000D03*
G01X36000Y2000D03*
G01X37000Y3000D03*
G01X37000Y2000D03*
G01X38000Y3000D03*
G01X38000Y2000D03*
G04 draw pilot holes for part D1*
G04 draw pilot holes for part D2*
G04 draw pilot holes for part D3*
G04 draw pilot holes for part D4*
G04 draw pilot holes for part D5*
G04 draw pilot holes for part D6*
G04 draw pilot holes for part D7*
G04 draw pilot holes for part D8*
G04 draw pilot holes for part D9*
G04 draw pilot holes for part D10*
G04 draw pilot holes for part D11*
G04 draw pilot holes for part D12*
G04 draw pilot holes for part D13*
G04 draw pilot holes for part D14*
G04 draw pilot holes for part D15*
G04 draw pilot holes for part D16*
G04 draw pilot holes for part D17*
G04 draw pilot holes for part D18*
G04 draw pilot holes for part D19*
G04 draw pilot holes for part D20*
G04 draw pilot holes for part R12*
G01X7000Y37000D03*
G01X7000Y33000D03*
G04 draw pilot holes for part R11*
G01X5000Y37000D03*
G01X5000Y33000D03*
G04 draw pilot holes for part D21*
G04 draw pilot holes for part D22*
G04 draw pilot holes for part D23*
G04 draw pilot holes for part D24*
G04 draw pilot holes for part D25*
G04 draw pilot holes for part D26*

G04 Draw pilot holes for vias*
M00*
M02*
