;Holesize 1 =   45.0 PLATED MILS
;Holesize 2 =   40.0 PLATED MILS
M48
INCH,00.0000
T01C0.045
T02C0.040
%
G05
G90
T01
X032000Y037000
X032000Y033000
X028000Y037000
X028000Y033000
X015000Y037000
X015000Y033000
X001000Y037000
X001000Y033000
X013000Y037000
X013000Y033000
X003000Y037000
X003000Y033000
X026000Y037000
X026000Y033000
X030000Y037000
X030000Y033000
X011000Y037000
X011000Y033000
X009000Y037000
X009000Y033000
X007000Y037000
X007000Y033000
X005000Y037000
X005000Y033000
T02
X034000Y038000
X034000Y037000
X035000Y038000
X035000Y037000
X036000Y038000
X036000Y037000
X037000Y038000
X037000Y037000
X038000Y038000
X038000Y037000
X034000Y003000
X034000Y002000
X035000Y003000
X035000Y002000
X036000Y003000
X036000Y002000
X037000Y003000
X037000Y002000
X038000Y003000
X038000Y002000
M30
