G04 FreePCB version 1.359*
G04 D:\Dropbox\Projects\Costume_2012\Components\LED_Boards\Layout\CAM\top_silk.grb*
G04 top silk layer *
G04 Scale: 100 percent, Rotated: No, Reflected: No *
%FSLAX24Y24*%
%MOIN*%
%LN top silk *%
G04 Rounded Rectangle Macro, params: W/2, H/2, R *
%AMRNDREC*
21,1,$1+$1,$2+$2-$3-$3,0,0,0*
21,1,$1+$1-$3-$3,$2+$2,0,0,0*
1,1,$3+$3,$1-$3,$2-$3*
1,1,$3+$3,$3-$1,$2-$3*
1,1,$3+$3,$1-$3,$3-$2*
1,1,$3+$3,$3-$1,$3-$2*%
G04 Rectangular Thermal Macro, params: W/2, H/2, T/2 *
%AMRECTHERM*
$4=$3/2*
21,1,$1-$3,$2-$3,0-$1/2-$4,0-$2/2-$4,0*
21,1,$1-$3,$2-$3,0-$1/2-$4,$2/2+$4,0*
21,1,$1-$3,$2-$3,$1/2+$4,0-$2/2-$4,0*
21,1,$1-$3,$2-$3,$1/2+$4,$2/2+$4,0*%
%ADD10C,0.005000*%
%ADD11C,0.010000*%
%ADD12C,0.007000*%
G90*
G70D02*

G04 Step and Repeat for panelization *

G04 ----------------------- Draw board outline (positive)*
%LPD*%
G54D10*
G01X0Y0D02*
G01X40000Y0D01*
G04 end of side 1*
G01X40000Y40000D01*
G04 end of side 2*
G01X0Y40000D01*
G04 end of side 3*
G01X0Y1000D01*
G04 end of side 4*
G01X0Y0D01*

G04 -------------- Draw Parts, Pads, Traces, Vias and Text (positive)*
%LPD*%
G04 Draw part R1*
G04 Draw part R2*
G04 Draw part R3*
G04 Draw part R5*
G04 Draw part R4*
G04 Draw part R6*
G04 Draw part R7*
G04 Draw part R8*
G04 Draw part R10*
G04 Draw part R9*
G04 Draw part H2*
G04 Draw part H1*
G04 Draw part D1*
G04 draw part outline for part D1*
G54D11*
G01X19400Y3500D02*
G01X19400Y5300D01*
G01X19400Y5300D02*
G01X19700Y5600D01*
G01X19700Y5600D02*
G01X20600Y5600D01*
G01X20600Y5600D02*
G01X20600Y3500D01*
G01X20600Y3500D02*
G01X19500Y3500D01*
G01X19500Y3500D02*
G01X19400Y3500D01*
G04 draw reference designator for part D1*
G54D12*
G01X18617Y4551D02*
G01X19094Y4551D01*
G01X18617Y4710D02*
G01X18617Y4551D01*
G01X18617Y4710D02*
G01X18639Y4778D01*
G01X18639Y4778D02*
G01X18685Y4823D01*
G01X18685Y4823D02*
G01X18730Y4846D01*
G01X18730Y4846D02*
G01X18799Y4869D01*
G01X18799Y4869D02*
G01X18912Y4869D01*
G01X18912Y4869D02*
G01X18980Y4846D01*
G01X18980Y4846D02*
G01X19026Y4823D01*
G01X19026Y4823D02*
G01X19071Y4778D01*
G01X19071Y4778D02*
G01X19094Y4710D01*
G01X19094Y4551D02*
G01X19094Y4710D01*
G01X18685Y5096D02*
G01X18708Y5051D01*
G01X18617Y5164D02*
G01X18685Y5096D01*
G01X18617Y5164D02*
G01X19094Y5164D01*
G04 Draw part D2*
G04 draw part outline for part D2*
G54D11*
G01X21500Y33400D02*
G01X19700Y33400D01*
G01X19700Y33400D02*
G01X19400Y33700D01*
G01X19400Y33700D02*
G01X19400Y34600D01*
G01X19400Y34600D02*
G01X21500Y34600D01*
G01X21500Y34600D02*
G01X21500Y33500D01*
G01X21500Y33500D02*
G01X21500Y33400D01*
G04 draw reference designator for part D2*
G54D12*
G01X20448Y32617D02*
G01X20448Y33094D01*
G01X20289Y32617D02*
G01X20448Y32617D01*
G01X20289Y32617D02*
G01X20221Y32639D01*
G01X20221Y32639D02*
G01X20176Y32685D01*
G01X20176Y32685D02*
G01X20153Y32730D01*
G01X20153Y32730D02*
G01X20130Y32799D01*
G01X20130Y32799D02*
G01X20130Y32912D01*
G01X20130Y32912D02*
G01X20153Y32980D01*
G01X20153Y32980D02*
G01X20176Y33026D01*
G01X20176Y33026D02*
G01X20221Y33071D01*
G01X20221Y33071D02*
G01X20289Y33094D01*
G01X20448Y33094D02*
G01X20289Y33094D01*
G01X19926Y32708D02*
G01X19926Y32730D01*
G01X19903Y32662D02*
G01X19926Y32708D01*
G01X19880Y32639D02*
G01X19903Y32662D01*
G01X19835Y32617D02*
G01X19880Y32639D01*
G01X19744Y32617D02*
G01X19835Y32617D01*
G01X19744Y32617D02*
G01X19698Y32639D01*
G01X19698Y32639D02*
G01X19676Y32662D01*
G01X19676Y32662D02*
G01X19653Y32708D01*
G01X19653Y32708D02*
G01X19653Y32753D01*
G01X19653Y32753D02*
G01X19676Y32799D01*
G01X19676Y32799D02*
G01X19721Y32867D01*
G01X19721Y32867D02*
G01X19948Y33094D01*
G01X19630Y33094D02*
G01X19948Y33094D01*
G04 Draw part D3*
G04 draw part outline for part D3*
G54D11*
G01X35500Y18400D02*
G01X33700Y18400D01*
G01X33700Y18400D02*
G01X33400Y18700D01*
G01X33400Y18700D02*
G01X33400Y19600D01*
G01X33400Y19600D02*
G01X35500Y19600D01*
G01X35500Y19600D02*
G01X35500Y18500D01*
G01X35500Y18500D02*
G01X35500Y18400D01*
G04 draw reference designator for part D3*
G54D12*
G01X34448Y17617D02*
G01X34448Y18094D01*
G01X34289Y17617D02*
G01X34448Y17617D01*
G01X34289Y17617D02*
G01X34221Y17639D01*
G01X34221Y17639D02*
G01X34176Y17685D01*
G01X34176Y17685D02*
G01X34153Y17730D01*
G01X34153Y17730D02*
G01X34130Y17799D01*
G01X34130Y17799D02*
G01X34130Y17912D01*
G01X34130Y17912D02*
G01X34153Y17980D01*
G01X34153Y17980D02*
G01X34176Y18026D01*
G01X34176Y18026D02*
G01X34221Y18071D01*
G01X34221Y18071D02*
G01X34289Y18094D01*
G01X34448Y18094D02*
G01X34289Y18094D01*
G01X33653Y17617D02*
G01X33903Y17617D01*
G01X33653Y17617D02*
G01X33789Y17799D01*
G01X33721Y17799D02*
G01X33789Y17799D01*
G01X33721Y17799D02*
G01X33676Y17821D01*
G01X33676Y17821D02*
G01X33653Y17844D01*
G01X33653Y17844D02*
G01X33630Y17912D01*
G01X33630Y17912D02*
G01X33630Y17958D01*
G01X33630Y17958D02*
G01X33653Y18026D01*
G01X33653Y18026D02*
G01X33698Y18071D01*
G01X33698Y18071D02*
G01X33767Y18094D01*
G01X33835Y18094D02*
G01X33767Y18094D01*
G01X33903Y18071D02*
G01X33835Y18094D01*
G01X33926Y18049D02*
G01X33903Y18071D01*
G01X33948Y18003D02*
G01X33926Y18049D01*
G04 Draw part D4*
G04 draw part outline for part D4*
G54D11*
G01X4500Y20600D02*
G01X6300Y20600D01*
G01X6300Y20600D02*
G01X6600Y20300D01*
G01X6600Y20300D02*
G01X6600Y19400D01*
G01X6600Y19400D02*
G01X4500Y19400D01*
G01X4500Y19400D02*
G01X4500Y20500D01*
G01X4500Y20500D02*
G01X4500Y20600D01*
G04 draw reference designator for part D4*
G54D12*
G01X5551Y21382D02*
G01X5551Y20905D01*
G01X5710Y21382D02*
G01X5551Y21382D01*
G01X5710Y21382D02*
G01X5778Y21360D01*
G01X5778Y21360D02*
G01X5823Y21314D01*
G01X5823Y21314D02*
G01X5846Y21269D01*
G01X5846Y21269D02*
G01X5869Y21200D01*
G01X5869Y21200D02*
G01X5869Y21087D01*
G01X5869Y21087D02*
G01X5846Y21019D01*
G01X5846Y21019D02*
G01X5823Y20973D01*
G01X5823Y20973D02*
G01X5778Y20928D01*
G01X5778Y20928D02*
G01X5710Y20905D01*
G01X5551Y20905D02*
G01X5710Y20905D01*
G01X6278Y21382D02*
G01X6051Y21064D01*
G01X6392Y21064D02*
G01X6051Y21064D01*
G01X6278Y21382D02*
G01X6278Y20905D01*
G04 Draw part D5*
G04 draw part outline for part D5*
G54D11*
G01X28400Y9500D02*
G01X28400Y11300D01*
G01X28400Y11300D02*
G01X28700Y11600D01*
G01X28700Y11600D02*
G01X29600Y11600D01*
G01X29600Y11600D02*
G01X29600Y9500D01*
G01X29600Y9500D02*
G01X28500Y9500D01*
G01X28500Y9500D02*
G01X28400Y9500D01*
G04 draw reference designator for part D5*
G54D12*
G01X27617Y10551D02*
G01X28094Y10551D01*
G01X27617Y10710D02*
G01X27617Y10551D01*
G01X27617Y10710D02*
G01X27639Y10778D01*
G01X27639Y10778D02*
G01X27685Y10823D01*
G01X27685Y10823D02*
G01X27730Y10846D01*
G01X27730Y10846D02*
G01X27799Y10869D01*
G01X27799Y10869D02*
G01X27912Y10869D01*
G01X27912Y10869D02*
G01X27980Y10846D01*
G01X27980Y10846D02*
G01X28026Y10823D01*
G01X28026Y10823D02*
G01X28071Y10778D01*
G01X28071Y10778D02*
G01X28094Y10710D01*
G01X28094Y10551D02*
G01X28094Y10710D01*
G01X27617Y11096D02*
G01X27617Y11323D01*
G01X27617Y11096D02*
G01X27821Y11073D01*
G01X27799Y11096D02*
G01X27821Y11073D01*
G01X27776Y11164D02*
G01X27799Y11096D01*
G01X27776Y11232D02*
G01X27776Y11164D01*
G01X27776Y11232D02*
G01X27799Y11301D01*
G01X27799Y11301D02*
G01X27844Y11346D01*
G01X27844Y11346D02*
G01X27912Y11369D01*
G01X27912Y11369D02*
G01X27958Y11369D01*
G01X27958Y11369D02*
G01X28026Y11346D01*
G01X28026Y11346D02*
G01X28071Y11301D01*
G01X28071Y11301D02*
G01X28094Y11232D01*
G01X28094Y11164D02*
G01X28094Y11232D01*
G01X28071Y11096D02*
G01X28094Y11164D01*
G01X28049Y11073D02*
G01X28071Y11096D01*
G01X28003Y11051D02*
G01X28049Y11073D01*
G04 Draw part D6*
G04 draw part outline for part D6*
G54D11*
G01X29500Y27400D02*
G01X27700Y27400D01*
G01X27700Y27400D02*
G01X27400Y27700D01*
G01X27400Y27700D02*
G01X27400Y28600D01*
G01X27400Y28600D02*
G01X29500Y28600D01*
G01X29500Y28600D02*
G01X29500Y27500D01*
G01X29500Y27500D02*
G01X29500Y27400D01*
G04 draw reference designator for part D6*
G54D12*
G01X28448Y26617D02*
G01X28448Y27094D01*
G01X28289Y26617D02*
G01X28448Y26617D01*
G01X28289Y26617D02*
G01X28221Y26639D01*
G01X28221Y26639D02*
G01X28176Y26685D01*
G01X28176Y26685D02*
G01X28153Y26730D01*
G01X28153Y26730D02*
G01X28130Y26799D01*
G01X28130Y26799D02*
G01X28130Y26912D01*
G01X28130Y26912D02*
G01X28153Y26980D01*
G01X28153Y26980D02*
G01X28176Y27026D01*
G01X28176Y27026D02*
G01X28221Y27071D01*
G01X28221Y27071D02*
G01X28289Y27094D01*
G01X28448Y27094D02*
G01X28289Y27094D01*
G01X27698Y26639D02*
G01X27676Y26685D01*
G01X27767Y26617D02*
G01X27698Y26639D01*
G01X27812Y26617D02*
G01X27767Y26617D01*
G01X27812Y26617D02*
G01X27880Y26639D01*
G01X27880Y26639D02*
G01X27926Y26708D01*
G01X27926Y26708D02*
G01X27948Y26821D01*
G01X27948Y26821D02*
G01X27948Y26935D01*
G01X27948Y26935D02*
G01X27926Y27026D01*
G01X27926Y27026D02*
G01X27880Y27071D01*
G01X27880Y27071D02*
G01X27812Y27094D01*
G01X27789Y27094D02*
G01X27812Y27094D01*
G01X27721Y27071D02*
G01X27789Y27094D01*
G01X27676Y27026D02*
G01X27721Y27071D01*
G01X27653Y26958D02*
G01X27676Y27026D01*
G01X27653Y26935D02*
G01X27653Y26958D01*
G01X27676Y26867D02*
G01X27653Y26935D01*
G01X27721Y26821D02*
G01X27676Y26867D01*
G01X27789Y26799D02*
G01X27721Y26821D01*
G01X27812Y26799D02*
G01X27789Y26799D01*
G01X27812Y26799D02*
G01X27880Y26821D01*
G01X27880Y26821D02*
G01X27926Y26867D01*
G01X27926Y26867D02*
G01X27948Y26935D01*
G04 Draw part D7*
G04 draw part outline for part D7*
G54D11*
G01X9500Y28600D02*
G01X11300Y28600D01*
G01X11300Y28600D02*
G01X11600Y28300D01*
G01X11600Y28300D02*
G01X11600Y27400D01*
G01X11600Y27400D02*
G01X9500Y27400D01*
G01X9500Y27400D02*
G01X9500Y28500D01*
G01X9500Y28500D02*
G01X9500Y28600D01*
G04 draw reference designator for part D7*
G54D12*
G01X10551Y29382D02*
G01X10551Y28905D01*
G01X10710Y29382D02*
G01X10551Y29382D01*
G01X10710Y29382D02*
G01X10778Y29360D01*
G01X10778Y29360D02*
G01X10823Y29314D01*
G01X10823Y29314D02*
G01X10846Y29269D01*
G01X10846Y29269D02*
G01X10869Y29200D01*
G01X10869Y29200D02*
G01X10869Y29087D01*
G01X10869Y29087D02*
G01X10846Y29019D01*
G01X10846Y29019D02*
G01X10823Y28973D01*
G01X10823Y28973D02*
G01X10778Y28928D01*
G01X10778Y28928D02*
G01X10710Y28905D01*
G01X10551Y28905D02*
G01X10710Y28905D01*
G01X11369Y29382D02*
G01X11142Y28905D01*
G01X11369Y29382D02*
G01X11051Y29382D01*
G04 Draw part D8*
G04 draw part outline for part D8*
G54D11*
G01X9500Y11600D02*
G01X11300Y11600D01*
G01X11300Y11600D02*
G01X11600Y11300D01*
G01X11600Y11300D02*
G01X11600Y10400D01*
G01X11600Y10400D02*
G01X9500Y10400D01*
G01X9500Y10400D02*
G01X9500Y11500D01*
G01X9500Y11500D02*
G01X9500Y11600D01*
G04 draw reference designator for part D8*
G54D12*
G01X10551Y12382D02*
G01X10551Y11905D01*
G01X10710Y12382D02*
G01X10551Y12382D01*
G01X10710Y12382D02*
G01X10778Y12360D01*
G01X10778Y12360D02*
G01X10823Y12314D01*
G01X10823Y12314D02*
G01X10846Y12269D01*
G01X10846Y12269D02*
G01X10869Y12200D01*
G01X10869Y12200D02*
G01X10869Y12087D01*
G01X10869Y12087D02*
G01X10846Y12019D01*
G01X10846Y12019D02*
G01X10823Y11973D01*
G01X10823Y11973D02*
G01X10778Y11928D01*
G01X10778Y11928D02*
G01X10710Y11905D01*
G01X10551Y11905D02*
G01X10710Y11905D01*
G01X11164Y12382D02*
G01X11096Y12360D01*
G01X11096Y12360D02*
G01X11073Y12314D01*
G01X11073Y12314D02*
G01X11073Y12269D01*
G01X11073Y12269D02*
G01X11096Y12223D01*
G01X11096Y12223D02*
G01X11142Y12200D01*
G01X11142Y12200D02*
G01X11232Y12178D01*
G01X11232Y12178D02*
G01X11301Y12155D01*
G01X11301Y12155D02*
G01X11346Y12110D01*
G01X11346Y12110D02*
G01X11369Y12064D01*
G01X11369Y12064D02*
G01X11369Y11996D01*
G01X11369Y11996D02*
G01X11346Y11950D01*
G01X11346Y11950D02*
G01X11323Y11928D01*
G01X11323Y11928D02*
G01X11255Y11905D01*
G01X11164Y11905D02*
G01X11255Y11905D01*
G01X11096Y11928D02*
G01X11164Y11905D01*
G01X11073Y11950D02*
G01X11096Y11928D01*
G01X11051Y11996D02*
G01X11073Y11950D01*
G01X11051Y12064D02*
G01X11051Y11996D01*
G01X11073Y12110D02*
G01X11051Y12064D01*
G01X11119Y12155D02*
G01X11073Y12110D01*
G01X11187Y12178D02*
G01X11119Y12155D01*
G01X11278Y12200D02*
G01X11187Y12178D01*
G01X11323Y12223D02*
G01X11278Y12200D01*
G01X11346Y12269D02*
G01X11323Y12223D01*
G01X11346Y12314D02*
G01X11346Y12269D01*
G01X11323Y12360D02*
G01X11346Y12314D01*
G01X11255Y12382D02*
G01X11323Y12360D01*
G01X11164Y12382D02*
G01X11255Y12382D01*
G04 Draw part D9*
G04 draw part outline for part D9*
G54D11*
G01X25400Y18500D02*
G01X25400Y20300D01*
G01X25400Y20300D02*
G01X25700Y20600D01*
G01X25700Y20600D02*
G01X26600Y20600D01*
G01X26600Y20600D02*
G01X26600Y18500D01*
G01X26600Y18500D02*
G01X25500Y18500D01*
G01X25500Y18500D02*
G01X25400Y18500D01*
G04 draw reference designator for part D9*
G54D12*
G01X24617Y19551D02*
G01X25094Y19551D01*
G01X24617Y19710D02*
G01X24617Y19551D01*
G01X24617Y19710D02*
G01X24639Y19778D01*
G01X24639Y19778D02*
G01X24685Y19823D01*
G01X24685Y19823D02*
G01X24730Y19846D01*
G01X24730Y19846D02*
G01X24799Y19869D01*
G01X24799Y19869D02*
G01X24912Y19869D01*
G01X24912Y19869D02*
G01X24980Y19846D01*
G01X24980Y19846D02*
G01X25026Y19823D01*
G01X25026Y19823D02*
G01X25071Y19778D01*
G01X25071Y19778D02*
G01X25094Y19710D01*
G01X25094Y19551D02*
G01X25094Y19710D01*
G01X24776Y20346D02*
G01X24844Y20323D01*
G01X24844Y20323D02*
G01X24889Y20278D01*
G01X24889Y20278D02*
G01X24912Y20210D01*
G01X24912Y20187D02*
G01X24912Y20210D01*
G01X24889Y20119D02*
G01X24912Y20187D01*
G01X24844Y20073D02*
G01X24889Y20119D01*
G01X24776Y20051D02*
G01X24844Y20073D01*
G01X24753Y20051D02*
G01X24776Y20051D01*
G01X24685Y20073D02*
G01X24753Y20051D01*
G01X24639Y20119D02*
G01X24685Y20073D01*
G01X24617Y20187D02*
G01X24639Y20119D01*
G01X24617Y20210D02*
G01X24617Y20187D01*
G01X24617Y20210D02*
G01X24639Y20278D01*
G01X24639Y20278D02*
G01X24685Y20323D01*
G01X24685Y20323D02*
G01X24776Y20346D01*
G01X24776Y20346D02*
G01X24889Y20346D01*
G01X24889Y20346D02*
G01X25003Y20323D01*
G01X25003Y20323D02*
G01X25071Y20278D01*
G01X25071Y20278D02*
G01X25094Y20210D01*
G01X25094Y20164D02*
G01X25094Y20210D01*
G01X25071Y20096D02*
G01X25094Y20164D01*
G01X25026Y20073D02*
G01X25071Y20096D01*
G04 Draw part D10*
G04 draw part outline for part D10*
G54D11*
G01X14400Y18500D02*
G01X14400Y20300D01*
G01X14400Y20300D02*
G01X14700Y20600D01*
G01X14700Y20600D02*
G01X15600Y20600D01*
G01X15600Y20600D02*
G01X15600Y18500D01*
G01X15600Y18500D02*
G01X14500Y18500D01*
G01X14500Y18500D02*
G01X14400Y18500D01*
G04 draw reference designator for part D10*
G54D12*
G01X13617Y19551D02*
G01X14094Y19551D01*
G01X13617Y19710D02*
G01X13617Y19551D01*
G01X13617Y19710D02*
G01X13639Y19778D01*
G01X13639Y19778D02*
G01X13685Y19823D01*
G01X13685Y19823D02*
G01X13730Y19846D01*
G01X13730Y19846D02*
G01X13799Y19869D01*
G01X13799Y19869D02*
G01X13912Y19869D01*
G01X13912Y19869D02*
G01X13980Y19846D01*
G01X13980Y19846D02*
G01X14026Y19823D01*
G01X14026Y19823D02*
G01X14071Y19778D01*
G01X14071Y19778D02*
G01X14094Y19710D01*
G01X14094Y19551D02*
G01X14094Y19710D01*
G01X13685Y20096D02*
G01X13708Y20051D01*
G01X13617Y20164D02*
G01X13685Y20096D01*
G01X13617Y20164D02*
G01X14094Y20164D01*
G01X13617Y20482D02*
G01X13639Y20414D01*
G01X13639Y20414D02*
G01X13708Y20369D01*
G01X13708Y20369D02*
G01X13821Y20346D01*
G01X13821Y20346D02*
G01X13889Y20346D01*
G01X13889Y20346D02*
G01X14003Y20369D01*
G01X14003Y20369D02*
G01X14071Y20414D01*
G01X14071Y20414D02*
G01X14094Y20482D01*
G01X14094Y20528D02*
G01X14094Y20482D01*
G01X14071Y20596D02*
G01X14094Y20528D01*
G01X14003Y20642D02*
G01X14071Y20596D01*
G01X13889Y20664D02*
G01X14003Y20642D01*
G01X13821Y20664D02*
G01X13889Y20664D01*
G01X13708Y20642D02*
G01X13821Y20664D01*
G01X13639Y20596D02*
G01X13708Y20642D01*
G01X13617Y20528D02*
G01X13639Y20596D01*
G01X13617Y20482D02*
G01X13617Y20528D01*
G04 Draw part D11*
G04 draw part outline for part D11*
G54D11*
G01X19400Y13500D02*
G01X19400Y15300D01*
G01X19400Y15300D02*
G01X19700Y15600D01*
G01X19700Y15600D02*
G01X20600Y15600D01*
G01X20600Y15600D02*
G01X20600Y13500D01*
G01X20600Y13500D02*
G01X19500Y13500D01*
G01X19500Y13500D02*
G01X19400Y13500D01*
G04 draw reference designator for part D11*
G54D12*
G01X18617Y14551D02*
G01X19094Y14551D01*
G01X18617Y14710D02*
G01X18617Y14551D01*
G01X18617Y14710D02*
G01X18639Y14778D01*
G01X18639Y14778D02*
G01X18685Y14823D01*
G01X18685Y14823D02*
G01X18730Y14846D01*
G01X18730Y14846D02*
G01X18799Y14869D01*
G01X18799Y14869D02*
G01X18912Y14869D01*
G01X18912Y14869D02*
G01X18980Y14846D01*
G01X18980Y14846D02*
G01X19026Y14823D01*
G01X19026Y14823D02*
G01X19071Y14778D01*
G01X19071Y14778D02*
G01X19094Y14710D01*
G01X19094Y14551D02*
G01X19094Y14710D01*
G01X18685Y15096D02*
G01X18708Y15051D01*
G01X18617Y15164D02*
G01X18685Y15096D01*
G01X18617Y15164D02*
G01X19094Y15164D01*
G01X18685Y15392D02*
G01X18708Y15346D01*
G01X18617Y15460D02*
G01X18685Y15392D01*
G01X18617Y15460D02*
G01X19094Y15460D01*
G04 Draw part D12*
G04 draw part outline for part D12*
G54D11*
G01X24400Y6500D02*
G01X24400Y8300D01*
G01X24400Y8300D02*
G01X24700Y8600D01*
G01X24700Y8600D02*
G01X25600Y8600D01*
G01X25600Y8600D02*
G01X25600Y6500D01*
G01X25600Y6500D02*
G01X24500Y6500D01*
G01X24500Y6500D02*
G01X24400Y6500D01*
G04 draw reference designator for part D12*
G54D12*
G01X23617Y7551D02*
G01X24094Y7551D01*
G01X23617Y7710D02*
G01X23617Y7551D01*
G01X23617Y7710D02*
G01X23639Y7778D01*
G01X23639Y7778D02*
G01X23685Y7823D01*
G01X23685Y7823D02*
G01X23730Y7846D01*
G01X23730Y7846D02*
G01X23799Y7869D01*
G01X23799Y7869D02*
G01X23912Y7869D01*
G01X23912Y7869D02*
G01X23980Y7846D01*
G01X23980Y7846D02*
G01X24026Y7823D01*
G01X24026Y7823D02*
G01X24071Y7778D01*
G01X24071Y7778D02*
G01X24094Y7710D01*
G01X24094Y7551D02*
G01X24094Y7710D01*
G01X23685Y8096D02*
G01X23708Y8051D01*
G01X23617Y8164D02*
G01X23685Y8096D01*
G01X23617Y8164D02*
G01X24094Y8164D01*
G01X23708Y8369D02*
G01X23730Y8369D01*
G01X23662Y8392D02*
G01X23708Y8369D01*
G01X23639Y8414D02*
G01X23662Y8392D01*
G01X23617Y8460D02*
G01X23639Y8414D01*
G01X23617Y8551D02*
G01X23617Y8460D01*
G01X23617Y8551D02*
G01X23639Y8596D01*
G01X23639Y8596D02*
G01X23662Y8619D01*
G01X23662Y8619D02*
G01X23708Y8642D01*
G01X23708Y8642D02*
G01X23753Y8642D01*
G01X23753Y8642D02*
G01X23799Y8619D01*
G01X23799Y8619D02*
G01X23867Y8573D01*
G01X23867Y8573D02*
G01X24094Y8346D01*
G01X24094Y8664D02*
G01X24094Y8346D01*
G04 Draw part D13*
G04 draw part outline for part D13*
G54D11*
G01X31400Y13500D02*
G01X31400Y15300D01*
G01X31400Y15300D02*
G01X31700Y15600D01*
G01X31700Y15600D02*
G01X32600Y15600D01*
G01X32600Y15600D02*
G01X32600Y13500D01*
G01X32600Y13500D02*
G01X31500Y13500D01*
G01X31500Y13500D02*
G01X31400Y13500D01*
G04 draw reference designator for part D13*
G54D12*
G01X30617Y14551D02*
G01X31094Y14551D01*
G01X30617Y14710D02*
G01X30617Y14551D01*
G01X30617Y14710D02*
G01X30639Y14778D01*
G01X30639Y14778D02*
G01X30685Y14823D01*
G01X30685Y14823D02*
G01X30730Y14846D01*
G01X30730Y14846D02*
G01X30799Y14869D01*
G01X30799Y14869D02*
G01X30912Y14869D01*
G01X30912Y14869D02*
G01X30980Y14846D01*
G01X30980Y14846D02*
G01X31026Y14823D01*
G01X31026Y14823D02*
G01X31071Y14778D01*
G01X31071Y14778D02*
G01X31094Y14710D01*
G01X31094Y14551D02*
G01X31094Y14710D01*
G01X30685Y15096D02*
G01X30708Y15051D01*
G01X30617Y15164D02*
G01X30685Y15096D01*
G01X30617Y15164D02*
G01X31094Y15164D01*
G01X30617Y15642D02*
G01X30617Y15392D01*
G01X30617Y15642D02*
G01X30799Y15505D01*
G01X30799Y15573D02*
G01X30799Y15505D01*
G01X30799Y15573D02*
G01X30821Y15619D01*
G01X30821Y15619D02*
G01X30844Y15642D01*
G01X30844Y15642D02*
G01X30912Y15664D01*
G01X30912Y15664D02*
G01X30958Y15664D01*
G01X30958Y15664D02*
G01X31026Y15642D01*
G01X31026Y15642D02*
G01X31071Y15596D01*
G01X31071Y15596D02*
G01X31094Y15528D01*
G01X31094Y15460D02*
G01X31094Y15528D01*
G01X31071Y15392D02*
G01X31094Y15460D01*
G01X31049Y15369D02*
G01X31071Y15392D01*
G01X31003Y15346D02*
G01X31049Y15369D01*
G04 Draw part D14*
G04 draw part outline for part D14*
G54D11*
G01X32500Y23400D02*
G01X30700Y23400D01*
G01X30700Y23400D02*
G01X30400Y23700D01*
G01X30400Y23700D02*
G01X30400Y24600D01*
G01X30400Y24600D02*
G01X32500Y24600D01*
G01X32500Y24600D02*
G01X32500Y23500D01*
G01X32500Y23500D02*
G01X32500Y23400D01*
G04 draw reference designator for part D14*
G54D12*
G01X31448Y22617D02*
G01X31448Y23094D01*
G01X31289Y22617D02*
G01X31448Y22617D01*
G01X31289Y22617D02*
G01X31221Y22639D01*
G01X31221Y22639D02*
G01X31176Y22685D01*
G01X31176Y22685D02*
G01X31153Y22730D01*
G01X31153Y22730D02*
G01X31130Y22799D01*
G01X31130Y22799D02*
G01X31130Y22912D01*
G01X31130Y22912D02*
G01X31153Y22980D01*
G01X31153Y22980D02*
G01X31176Y23026D01*
G01X31176Y23026D02*
G01X31221Y23071D01*
G01X31221Y23071D02*
G01X31289Y23094D01*
G01X31448Y23094D02*
G01X31289Y23094D01*
G01X30903Y22685D02*
G01X30948Y22708D01*
G01X30835Y22617D02*
G01X30903Y22685D01*
G01X30835Y22617D02*
G01X30835Y23094D01*
G01X30426Y22617D02*
G01X30653Y22935D01*
G01X30312Y22935D02*
G01X30653Y22935D01*
G01X30426Y22617D02*
G01X30426Y23094D01*
G04 Draw part D15*
G04 draw part outline for part D15*
G54D11*
G01X24500Y30400D02*
G01X22700Y30400D01*
G01X22700Y30400D02*
G01X22400Y30700D01*
G01X22400Y30700D02*
G01X22400Y31600D01*
G01X22400Y31600D02*
G01X24500Y31600D01*
G01X24500Y31600D02*
G01X24500Y30500D01*
G01X24500Y30500D02*
G01X24500Y30400D01*
G04 draw reference designator for part D15*
G54D12*
G01X23448Y29617D02*
G01X23448Y30094D01*
G01X23289Y29617D02*
G01X23448Y29617D01*
G01X23289Y29617D02*
G01X23221Y29639D01*
G01X23221Y29639D02*
G01X23176Y29685D01*
G01X23176Y29685D02*
G01X23153Y29730D01*
G01X23153Y29730D02*
G01X23130Y29799D01*
G01X23130Y29799D02*
G01X23130Y29912D01*
G01X23130Y29912D02*
G01X23153Y29980D01*
G01X23153Y29980D02*
G01X23176Y30026D01*
G01X23176Y30026D02*
G01X23221Y30071D01*
G01X23221Y30071D02*
G01X23289Y30094D01*
G01X23448Y30094D02*
G01X23289Y30094D01*
G01X22903Y29685D02*
G01X22948Y29708D01*
G01X22835Y29617D02*
G01X22903Y29685D01*
G01X22835Y29617D02*
G01X22835Y30094D01*
G01X22607Y29617D02*
G01X22380Y29617D01*
G01X22607Y29617D02*
G01X22630Y29821D01*
G01X22607Y29799D02*
G01X22630Y29821D01*
G01X22539Y29776D02*
G01X22607Y29799D01*
G01X22471Y29776D02*
G01X22539Y29776D01*
G01X22471Y29776D02*
G01X22403Y29799D01*
G01X22403Y29799D02*
G01X22357Y29844D01*
G01X22357Y29844D02*
G01X22335Y29912D01*
G01X22335Y29912D02*
G01X22335Y29958D01*
G01X22335Y29958D02*
G01X22357Y30026D01*
G01X22357Y30026D02*
G01X22403Y30071D01*
G01X22403Y30071D02*
G01X22471Y30094D01*
G01X22539Y30094D02*
G01X22471Y30094D01*
G01X22607Y30071D02*
G01X22539Y30094D01*
G01X22630Y30049D02*
G01X22607Y30071D01*
G01X22653Y30003D02*
G01X22630Y30049D01*
G04 Draw part D16*
G04 draw part outline for part D16*
G54D11*
G01X13500Y31600D02*
G01X15300Y31600D01*
G01X15300Y31600D02*
G01X15600Y31300D01*
G01X15600Y31300D02*
G01X15600Y30400D01*
G01X15600Y30400D02*
G01X13500Y30400D01*
G01X13500Y30400D02*
G01X13500Y31500D01*
G01X13500Y31500D02*
G01X13500Y31600D01*
G04 draw reference designator for part D16*
G54D12*
G01X14551Y32382D02*
G01X14551Y31905D01*
G01X14710Y32382D02*
G01X14551Y32382D01*
G01X14710Y32382D02*
G01X14778Y32360D01*
G01X14778Y32360D02*
G01X14823Y32314D01*
G01X14823Y32314D02*
G01X14846Y32269D01*
G01X14846Y32269D02*
G01X14869Y32200D01*
G01X14869Y32200D02*
G01X14869Y32087D01*
G01X14869Y32087D02*
G01X14846Y32019D01*
G01X14846Y32019D02*
G01X14823Y31973D01*
G01X14823Y31973D02*
G01X14778Y31928D01*
G01X14778Y31928D02*
G01X14710Y31905D01*
G01X14551Y31905D02*
G01X14710Y31905D01*
G01X15096Y32314D02*
G01X15051Y32291D01*
G01X15164Y32382D02*
G01X15096Y32314D01*
G01X15164Y32382D02*
G01X15164Y31905D01*
G01X15596Y32360D02*
G01X15619Y32314D01*
G01X15528Y32382D02*
G01X15596Y32360D01*
G01X15482Y32382D02*
G01X15528Y32382D01*
G01X15482Y32382D02*
G01X15414Y32360D01*
G01X15414Y32360D02*
G01X15369Y32291D01*
G01X15369Y32291D02*
G01X15346Y32178D01*
G01X15346Y32178D02*
G01X15346Y32064D01*
G01X15346Y32064D02*
G01X15369Y31973D01*
G01X15369Y31973D02*
G01X15414Y31928D01*
G01X15414Y31928D02*
G01X15482Y31905D01*
G01X15505Y31905D02*
G01X15482Y31905D01*
G01X15573Y31928D02*
G01X15505Y31905D01*
G01X15619Y31973D02*
G01X15573Y31928D01*
G01X15642Y32041D02*
G01X15619Y31973D01*
G01X15642Y32064D02*
G01X15642Y32041D01*
G01X15619Y32132D02*
G01X15642Y32064D01*
G01X15573Y32178D02*
G01X15619Y32132D01*
G01X15505Y32200D02*
G01X15573Y32178D01*
G01X15482Y32200D02*
G01X15505Y32200D01*
G01X15482Y32200D02*
G01X15414Y32178D01*
G01X15414Y32178D02*
G01X15369Y32132D01*
G01X15369Y32132D02*
G01X15346Y32064D01*
G04 Draw part D17*
G04 draw part outline for part D17*
G54D11*
G01X5500Y24600D02*
G01X7300Y24600D01*
G01X7300Y24600D02*
G01X7600Y24300D01*
G01X7600Y24300D02*
G01X7600Y23400D01*
G01X7600Y23400D02*
G01X5500Y23400D01*
G01X5500Y23400D02*
G01X5500Y24500D01*
G01X5500Y24500D02*
G01X5500Y24600D01*
G04 draw reference designator for part D17*
G54D12*
G01X6551Y25382D02*
G01X6551Y24905D01*
G01X6710Y25382D02*
G01X6551Y25382D01*
G01X6710Y25382D02*
G01X6778Y25360D01*
G01X6778Y25360D02*
G01X6823Y25314D01*
G01X6823Y25314D02*
G01X6846Y25269D01*
G01X6846Y25269D02*
G01X6869Y25200D01*
G01X6869Y25200D02*
G01X6869Y25087D01*
G01X6869Y25087D02*
G01X6846Y25019D01*
G01X6846Y25019D02*
G01X6823Y24973D01*
G01X6823Y24973D02*
G01X6778Y24928D01*
G01X6778Y24928D02*
G01X6710Y24905D01*
G01X6551Y24905D02*
G01X6710Y24905D01*
G01X7096Y25314D02*
G01X7051Y25291D01*
G01X7164Y25382D02*
G01X7096Y25314D01*
G01X7164Y25382D02*
G01X7164Y24905D01*
G01X7664Y25382D02*
G01X7437Y24905D01*
G01X7664Y25382D02*
G01X7346Y25382D01*
G04 Draw part D18*
G04 draw part outline for part D18*
G54D11*
G01X5500Y15600D02*
G01X7300Y15600D01*
G01X7300Y15600D02*
G01X7600Y15300D01*
G01X7600Y15300D02*
G01X7600Y14400D01*
G01X7600Y14400D02*
G01X5500Y14400D01*
G01X5500Y14400D02*
G01X5500Y15500D01*
G01X5500Y15500D02*
G01X5500Y15600D01*
G04 draw reference designator for part D18*
G54D12*
G01X6551Y16382D02*
G01X6551Y15905D01*
G01X6710Y16382D02*
G01X6551Y16382D01*
G01X6710Y16382D02*
G01X6778Y16360D01*
G01X6778Y16360D02*
G01X6823Y16314D01*
G01X6823Y16314D02*
G01X6846Y16269D01*
G01X6846Y16269D02*
G01X6869Y16200D01*
G01X6869Y16200D02*
G01X6869Y16087D01*
G01X6869Y16087D02*
G01X6846Y16019D01*
G01X6846Y16019D02*
G01X6823Y15973D01*
G01X6823Y15973D02*
G01X6778Y15928D01*
G01X6778Y15928D02*
G01X6710Y15905D01*
G01X6551Y15905D02*
G01X6710Y15905D01*
G01X7096Y16314D02*
G01X7051Y16291D01*
G01X7164Y16382D02*
G01X7096Y16314D01*
G01X7164Y16382D02*
G01X7164Y15905D01*
G01X7460Y16382D02*
G01X7392Y16360D01*
G01X7392Y16360D02*
G01X7369Y16314D01*
G01X7369Y16314D02*
G01X7369Y16269D01*
G01X7369Y16269D02*
G01X7392Y16223D01*
G01X7392Y16223D02*
G01X7437Y16200D01*
G01X7437Y16200D02*
G01X7528Y16178D01*
G01X7528Y16178D02*
G01X7596Y16155D01*
G01X7596Y16155D02*
G01X7642Y16110D01*
G01X7642Y16110D02*
G01X7664Y16064D01*
G01X7664Y16064D02*
G01X7664Y15996D01*
G01X7664Y15996D02*
G01X7642Y15950D01*
G01X7642Y15950D02*
G01X7619Y15928D01*
G01X7619Y15928D02*
G01X7551Y15905D01*
G01X7460Y15905D02*
G01X7551Y15905D01*
G01X7392Y15928D02*
G01X7460Y15905D01*
G01X7369Y15950D02*
G01X7392Y15928D01*
G01X7346Y15996D02*
G01X7369Y15950D01*
G01X7346Y16064D02*
G01X7346Y15996D01*
G01X7369Y16110D02*
G01X7346Y16064D01*
G01X7414Y16155D02*
G01X7369Y16110D01*
G01X7482Y16178D02*
G01X7414Y16155D01*
G01X7573Y16200D02*
G01X7482Y16178D01*
G01X7619Y16223D02*
G01X7573Y16200D01*
G01X7642Y16269D02*
G01X7619Y16223D01*
G01X7642Y16314D02*
G01X7642Y16269D01*
G01X7619Y16360D02*
G01X7642Y16314D01*
G01X7551Y16382D02*
G01X7619Y16360D01*
G01X7460Y16382D02*
G01X7551Y16382D01*
G04 Draw part D19*
G04 draw part outline for part D19*
G54D11*
G01X12500Y7600D02*
G01X14300Y7600D01*
G01X14300Y7600D02*
G01X14600Y7300D01*
G01X14600Y7300D02*
G01X14600Y6400D01*
G01X14600Y6400D02*
G01X12500Y6400D01*
G01X12500Y6400D02*
G01X12500Y7500D01*
G01X12500Y7500D02*
G01X12500Y7600D01*
G04 draw reference designator for part D19*
G54D12*
G01X13551Y8382D02*
G01X13551Y7905D01*
G01X13710Y8382D02*
G01X13551Y8382D01*
G01X13710Y8382D02*
G01X13778Y8360D01*
G01X13778Y8360D02*
G01X13823Y8314D01*
G01X13823Y8314D02*
G01X13846Y8269D01*
G01X13846Y8269D02*
G01X13869Y8200D01*
G01X13869Y8200D02*
G01X13869Y8087D01*
G01X13869Y8087D02*
G01X13846Y8019D01*
G01X13846Y8019D02*
G01X13823Y7973D01*
G01X13823Y7973D02*
G01X13778Y7928D01*
G01X13778Y7928D02*
G01X13710Y7905D01*
G01X13551Y7905D02*
G01X13710Y7905D01*
G01X14096Y8314D02*
G01X14051Y8291D01*
G01X14164Y8382D02*
G01X14096Y8314D01*
G01X14164Y8382D02*
G01X14164Y7905D01*
G01X14642Y8223D02*
G01X14619Y8155D01*
G01X14619Y8155D02*
G01X14573Y8110D01*
G01X14573Y8110D02*
G01X14505Y8087D01*
G01X14482Y8087D02*
G01X14505Y8087D01*
G01X14414Y8110D02*
G01X14482Y8087D01*
G01X14369Y8155D02*
G01X14414Y8110D01*
G01X14346Y8223D02*
G01X14369Y8155D01*
G01X14346Y8246D02*
G01X14346Y8223D01*
G01X14369Y8314D02*
G01X14346Y8246D01*
G01X14414Y8360D02*
G01X14369Y8314D01*
G01X14482Y8382D02*
G01X14414Y8360D01*
G01X14505Y8382D02*
G01X14482Y8382D01*
G01X14505Y8382D02*
G01X14573Y8360D01*
G01X14573Y8360D02*
G01X14619Y8314D01*
G01X14619Y8314D02*
G01X14642Y8223D01*
G01X14642Y8223D02*
G01X14642Y8110D01*
G01X14642Y8110D02*
G01X14619Y7996D01*
G01X14619Y7996D02*
G01X14573Y7928D01*
G01X14573Y7928D02*
G01X14505Y7905D01*
G01X14460Y7905D02*
G01X14505Y7905D01*
G01X14392Y7928D02*
G01X14460Y7905D01*
G01X14369Y7973D02*
G01X14392Y7928D01*
G04 Draw part D20*
G04 draw part outline for part D20*
G54D11*
G01X19400Y22500D02*
G01X19400Y24300D01*
G01X19400Y24300D02*
G01X19700Y24600D01*
G01X19700Y24600D02*
G01X20600Y24600D01*
G01X20600Y24600D02*
G01X20600Y22500D01*
G01X20600Y22500D02*
G01X19500Y22500D01*
G01X19500Y22500D02*
G01X19400Y22500D01*
G04 draw reference designator for part D20*
G54D12*
G01X18617Y23551D02*
G01X19094Y23551D01*
G01X18617Y23710D02*
G01X18617Y23551D01*
G01X18617Y23710D02*
G01X18639Y23778D01*
G01X18639Y23778D02*
G01X18685Y23823D01*
G01X18685Y23823D02*
G01X18730Y23846D01*
G01X18730Y23846D02*
G01X18799Y23869D01*
G01X18799Y23869D02*
G01X18912Y23869D01*
G01X18912Y23869D02*
G01X18980Y23846D01*
G01X18980Y23846D02*
G01X19026Y23823D01*
G01X19026Y23823D02*
G01X19071Y23778D01*
G01X19071Y23778D02*
G01X19094Y23710D01*
G01X19094Y23551D02*
G01X19094Y23710D01*
G01X18708Y24073D02*
G01X18730Y24073D01*
G01X18662Y24096D02*
G01X18708Y24073D01*
G01X18639Y24119D02*
G01X18662Y24096D01*
G01X18617Y24164D02*
G01X18639Y24119D01*
G01X18617Y24255D02*
G01X18617Y24164D01*
G01X18617Y24255D02*
G01X18639Y24301D01*
G01X18639Y24301D02*
G01X18662Y24323D01*
G01X18662Y24323D02*
G01X18708Y24346D01*
G01X18708Y24346D02*
G01X18753Y24346D01*
G01X18753Y24346D02*
G01X18799Y24323D01*
G01X18799Y24323D02*
G01X18867Y24278D01*
G01X18867Y24278D02*
G01X19094Y24051D01*
G01X19094Y24369D02*
G01X19094Y24051D01*
G01X18617Y24687D02*
G01X18639Y24619D01*
G01X18639Y24619D02*
G01X18708Y24573D01*
G01X18708Y24573D02*
G01X18821Y24551D01*
G01X18821Y24551D02*
G01X18889Y24551D01*
G01X18889Y24551D02*
G01X19003Y24573D01*
G01X19003Y24573D02*
G01X19071Y24619D01*
G01X19071Y24619D02*
G01X19094Y24687D01*
G01X19094Y24732D02*
G01X19094Y24687D01*
G01X19071Y24801D02*
G01X19094Y24732D01*
G01X19003Y24846D02*
G01X19071Y24801D01*
G01X18889Y24869D02*
G01X19003Y24846D01*
G01X18821Y24869D02*
G01X18889Y24869D01*
G01X18708Y24846D02*
G01X18821Y24869D01*
G01X18639Y24801D02*
G01X18708Y24846D01*
G01X18617Y24732D02*
G01X18639Y24801D01*
G01X18617Y24687D02*
G01X18617Y24732D01*

G04 Draw traces*

G04 Draw Text*
M00*
M02*
