G04 FreePCB version 1.359*
G04 D:\Dropbox\Projects\Costume_2012\Components\uC_Board\Layout\CAM\top_silk.grb*
G04 top silk layer *
G04 Scale: 100 percent, Rotated: No, Reflected: No *
%FSLAX24Y24*%
%MOIN*%
%LN top silk *%
G04 Rounded Rectangle Macro, params: W/2, H/2, R *
%AMRNDREC*
21,1,$1+$1,$2+$2-$3-$3,0,0,0*
21,1,$1+$1-$3-$3,$2+$2,0,0,0*
1,1,$3+$3,$1-$3,$2-$3*
1,1,$3+$3,$3-$1,$2-$3*
1,1,$3+$3,$1-$3,$3-$2*
1,1,$3+$3,$3-$1,$3-$2*%
G04 Rectangular Thermal Macro, params: W/2, H/2, T/2 *
%AMRECTHERM*
$4=$3/2*
21,1,$1-$3,$2-$3,0-$1/2-$4,0-$2/2-$4,0*
21,1,$1-$3,$2-$3,0-$1/2-$4,$2/2+$4,0*
21,1,$1-$3,$2-$3,$1/2+$4,0-$2/2-$4,0*
21,1,$1-$3,$2-$3,$1/2+$4,$2/2+$4,0*%
%AMMOIRE10*6,0,0,0.350000,0.005,0.050,3,0.005,0.400000,0.0*%
%ADD10MOIRE10*%
%ADD11C,0.005000*%
%ADD12C,0.007000*%
%ADD13C,0.010000*%
%ADD14C,0.006000*%
G90*
G70D02*

G04 ----------------------- Draw moires (positive)*
%LPD*%
G54D10*
G01X-5000Y0D03*
G01X65000Y0D03*
G01X-5000Y60000D03*

G04 Step and Repeat for panelization *

G04 ----------------------- Draw board outline (positive)*
%LPD*%
G54D11*
G01X0Y0D02*
G01X0Y60000D01*
G04 end of side 1*
G01X60000Y60000D01*
G04 end of side 2*
G01X60000Y0D01*
G04 end of side 3*
G01X36750Y0D01*
G04 end of side 4*
G01X0Y0D01*

G04 -------------- Draw Parts, Pads, Traces, Vias and Text (positive)*
%LPD*%
G04 Draw part C3*
G04 draw part outline for part C3*
G54D12*
G01X26250Y44870D02*
G01X26250Y47630D01*
G01X26250Y47630D02*
G01X27250Y47630D01*
G01X27250Y47630D02*
G01X27250Y44870D01*
G01X27250Y44870D02*
G01X26250Y44870D01*
G04 draw reference designator for part C3*
G01X26840Y48318D02*
G01X26886Y48340D01*
G01X26795Y48272D02*
G01X26840Y48318D01*
G01X26772Y48227D02*
G01X26795Y48272D01*
G01X26772Y48136D02*
G01X26772Y48227D01*
G01X26772Y48136D02*
G01X26795Y48090D01*
G01X26795Y48090D02*
G01X26840Y48045D01*
G01X26840Y48045D02*
G01X26886Y48022D01*
G01X26886Y48022D02*
G01X26954Y48000D01*
G01X26954Y48000D02*
G01X27068Y48000D01*
G01X27068Y48000D02*
G01X27136Y48022D01*
G01X27136Y48022D02*
G01X27181Y48045D01*
G01X27181Y48045D02*
G01X27227Y48090D01*
G01X27227Y48090D02*
G01X27250Y48136D01*
G01X27250Y48227D02*
G01X27250Y48136D01*
G01X27227Y48272D02*
G01X27250Y48227D01*
G01X27181Y48318D02*
G01X27227Y48272D01*
G01X27136Y48340D02*
G01X27181Y48318D01*
G01X26772Y48818D02*
G01X26772Y48568D01*
G01X26772Y48818D02*
G01X26954Y48681D01*
G01X26954Y48750D02*
G01X26954Y48681D01*
G01X26954Y48750D02*
G01X26977Y48795D01*
G01X26977Y48795D02*
G01X27000Y48818D01*
G01X27000Y48818D02*
G01X27068Y48840D01*
G01X27068Y48840D02*
G01X27113Y48840D01*
G01X27113Y48840D02*
G01X27181Y48818D01*
G01X27181Y48818D02*
G01X27227Y48772D01*
G01X27227Y48772D02*
G01X27250Y48704D01*
G01X27250Y48636D02*
G01X27250Y48704D01*
G01X27227Y48568D02*
G01X27250Y48636D01*
G01X27204Y48545D02*
G01X27227Y48568D01*
G01X27159Y48522D02*
G01X27204Y48545D01*
G04 Draw part C4*
G04 draw part outline for part C4*
G01X27750Y44870D02*
G01X27750Y47630D01*
G01X27750Y47630D02*
G01X28750Y47630D01*
G01X28750Y47630D02*
G01X28750Y44870D01*
G01X28750Y44870D02*
G01X27750Y44870D01*
G04 draw reference designator for part C4*
G01X28340Y48318D02*
G01X28386Y48340D01*
G01X28295Y48272D02*
G01X28340Y48318D01*
G01X28272Y48227D02*
G01X28295Y48272D01*
G01X28272Y48136D02*
G01X28272Y48227D01*
G01X28272Y48136D02*
G01X28295Y48090D01*
G01X28295Y48090D02*
G01X28340Y48045D01*
G01X28340Y48045D02*
G01X28386Y48022D01*
G01X28386Y48022D02*
G01X28454Y48000D01*
G01X28454Y48000D02*
G01X28568Y48000D01*
G01X28568Y48000D02*
G01X28636Y48022D01*
G01X28636Y48022D02*
G01X28681Y48045D01*
G01X28681Y48045D02*
G01X28727Y48090D01*
G01X28727Y48090D02*
G01X28750Y48136D01*
G01X28750Y48227D02*
G01X28750Y48136D01*
G01X28727Y48272D02*
G01X28750Y48227D01*
G01X28681Y48318D02*
G01X28727Y48272D01*
G01X28636Y48340D02*
G01X28681Y48318D01*
G01X28272Y48750D02*
G01X28590Y48522D01*
G01X28590Y48863D02*
G01X28590Y48522D01*
G01X28272Y48750D02*
G01X28750Y48750D01*
G04 Draw part C2*
G04 draw part outline for part C2*
G01X16750Y44870D02*
G01X16750Y47630D01*
G01X16750Y47630D02*
G01X17750Y47630D01*
G01X17750Y47630D02*
G01X17750Y44870D01*
G01X17750Y44870D02*
G01X16750Y44870D01*
G04 draw reference designator for part C2*
G01X16040Y46568D02*
G01X16086Y46590D01*
G01X15995Y46522D02*
G01X16040Y46568D01*
G01X15972Y46477D02*
G01X15995Y46522D01*
G01X15972Y46386D02*
G01X15972Y46477D01*
G01X15972Y46386D02*
G01X15995Y46340D01*
G01X15995Y46340D02*
G01X16040Y46295D01*
G01X16040Y46295D02*
G01X16086Y46272D01*
G01X16086Y46272D02*
G01X16154Y46250D01*
G01X16154Y46250D02*
G01X16268Y46250D01*
G01X16268Y46250D02*
G01X16336Y46272D01*
G01X16336Y46272D02*
G01X16381Y46295D01*
G01X16381Y46295D02*
G01X16427Y46340D01*
G01X16427Y46340D02*
G01X16450Y46386D01*
G01X16450Y46477D02*
G01X16450Y46386D01*
G01X16427Y46522D02*
G01X16450Y46477D01*
G01X16381Y46568D02*
G01X16427Y46522D01*
G01X16336Y46590D02*
G01X16381Y46568D01*
G01X16063Y46795D02*
G01X16086Y46795D01*
G01X16018Y46818D02*
G01X16063Y46795D01*
G01X15995Y46840D02*
G01X16018Y46818D01*
G01X15972Y46886D02*
G01X15995Y46840D01*
G01X15972Y46977D02*
G01X15972Y46886D01*
G01X15972Y46977D02*
G01X15995Y47022D01*
G01X15995Y47022D02*
G01X16018Y47045D01*
G01X16018Y47045D02*
G01X16063Y47068D01*
G01X16063Y47068D02*
G01X16109Y47068D01*
G01X16109Y47068D02*
G01X16154Y47045D01*
G01X16154Y47045D02*
G01X16222Y47000D01*
G01X16222Y47000D02*
G01X16450Y46772D01*
G01X16450Y47090D02*
G01X16450Y46772D01*
G04 Draw part R1*
G04 draw part outline for part R1*
G01X14150Y49250D02*
G01X16350Y49250D01*
G01X16350Y49250D02*
G01X16350Y48250D01*
G01X16350Y48250D02*
G01X14150Y48250D01*
G01X14150Y48250D02*
G01X14150Y49250D01*
G04 draw reference designator for part R1*
G01X15250Y50307D02*
G01X15250Y49830D01*
G01X15454Y50307D02*
G01X15250Y50307D01*
G01X15454Y50307D02*
G01X15522Y50284D01*
G01X15522Y50284D02*
G01X15545Y50261D01*
G01X15545Y50261D02*
G01X15568Y50216D01*
G01X15568Y50216D02*
G01X15568Y50170D01*
G01X15568Y50170D02*
G01X15545Y50125D01*
G01X15545Y50125D02*
G01X15522Y50102D01*
G01X15522Y50102D02*
G01X15454Y50080D01*
G01X15250Y50080D02*
G01X15454Y50080D01*
G01X15409Y50080D02*
G01X15568Y49830D01*
G01X15795Y50239D02*
G01X15750Y50216D01*
G01X15863Y50307D02*
G01X15795Y50239D01*
G01X15863Y50307D02*
G01X15863Y49830D01*
G04 Draw part C1*
G04 draw part outline for part C1*
G01X9370Y53750D02*
G01X12130Y53750D01*
G01X12130Y53750D02*
G01X12130Y52750D01*
G01X12130Y52750D02*
G01X9370Y52750D01*
G01X9370Y52750D02*
G01X9370Y53750D01*
G04 draw reference designator for part C1*
G01X11068Y54459D02*
G01X11090Y54413D01*
G01X11022Y54504D02*
G01X11068Y54459D01*
G01X10977Y54527D02*
G01X11022Y54504D01*
G01X10886Y54527D02*
G01X10977Y54527D01*
G01X10886Y54527D02*
G01X10840Y54504D01*
G01X10840Y54504D02*
G01X10795Y54459D01*
G01X10795Y54459D02*
G01X10772Y54413D01*
G01X10772Y54413D02*
G01X10750Y54345D01*
G01X10750Y54345D02*
G01X10750Y54231D01*
G01X10750Y54231D02*
G01X10772Y54163D01*
G01X10772Y54163D02*
G01X10795Y54118D01*
G01X10795Y54118D02*
G01X10840Y54072D01*
G01X10840Y54072D02*
G01X10886Y54050D01*
G01X10977Y54050D02*
G01X10886Y54050D01*
G01X11022Y54072D02*
G01X10977Y54050D01*
G01X11068Y54118D02*
G01X11022Y54072D01*
G01X11090Y54163D02*
G01X11068Y54118D01*
G01X11318Y54459D02*
G01X11272Y54436D01*
G01X11386Y54527D02*
G01X11318Y54459D01*
G01X11386Y54527D02*
G01X11386Y54050D01*
G04 Draw part R2*
G04 draw part outline for part R2*
G01X8400Y49250D02*
G01X10600Y49250D01*
G01X10600Y49250D02*
G01X10600Y48250D01*
G01X10600Y48250D02*
G01X8400Y48250D01*
G01X8400Y48250D02*
G01X8400Y49250D01*
G04 draw reference designator for part R2*
G01X9772Y49500D02*
G01X10250Y49500D01*
G01X9772Y49704D02*
G01X9772Y49500D01*
G01X9772Y49704D02*
G01X9795Y49772D01*
G01X9795Y49772D02*
G01X9818Y49795D01*
G01X9818Y49795D02*
G01X9863Y49818D01*
G01X9863Y49818D02*
G01X9909Y49818D01*
G01X9909Y49818D02*
G01X9954Y49795D01*
G01X9954Y49795D02*
G01X9977Y49772D01*
G01X9977Y49772D02*
G01X10000Y49704D01*
G01X10000Y49500D02*
G01X10000Y49704D01*
G01X10000Y49659D02*
G01X10250Y49818D01*
G01X9863Y50022D02*
G01X9886Y50022D01*
G01X9818Y50045D02*
G01X9863Y50022D01*
G01X9795Y50068D02*
G01X9818Y50045D01*
G01X9772Y50113D02*
G01X9795Y50068D01*
G01X9772Y50204D02*
G01X9772Y50113D01*
G01X9772Y50204D02*
G01X9795Y50250D01*
G01X9795Y50250D02*
G01X9818Y50272D01*
G01X9818Y50272D02*
G01X9863Y50295D01*
G01X9863Y50295D02*
G01X9909Y50295D01*
G01X9909Y50295D02*
G01X9954Y50272D01*
G01X9954Y50272D02*
G01X10022Y50227D01*
G01X10022Y50227D02*
G01X10250Y50000D01*
G01X10250Y50318D02*
G01X10250Y50000D01*
G04 Draw part SW2*
G04 draw part outline for part SW2*
G01X11250Y47250D02*
G01X11250Y44000D01*
G01X11250Y44000D02*
G01X6750Y44000D01*
G01X6750Y44000D02*
G01X6750Y47500D01*
G01X6750Y47500D02*
G01X11250Y47500D01*
G01X11250Y47500D02*
G01X11250Y47250D01*
G01X8250Y47500D02*
G01X8250Y46000D01*
G01X8250Y46000D02*
G01X6750Y46000D01*
G04 draw reference designator for part SW2*
G01X5795Y44702D02*
G01X5840Y44748D01*
G01X5772Y44634D02*
G01X5795Y44702D01*
G01X5772Y44543D02*
G01X5772Y44634D01*
G01X5772Y44543D02*
G01X5795Y44475D01*
G01X5795Y44475D02*
G01X5840Y44430D01*
G01X5840Y44430D02*
G01X5886Y44430D01*
G01X5886Y44430D02*
G01X5931Y44452D01*
G01X5931Y44452D02*
G01X5954Y44475D01*
G01X5954Y44475D02*
G01X5977Y44520D01*
G01X5977Y44520D02*
G01X6022Y44657D01*
G01X6022Y44657D02*
G01X6045Y44702D01*
G01X6045Y44702D02*
G01X6068Y44725D01*
G01X6068Y44725D02*
G01X6113Y44748D01*
G01X6113Y44748D02*
G01X6181Y44748D01*
G01X6181Y44748D02*
G01X6227Y44702D01*
G01X6227Y44702D02*
G01X6250Y44634D01*
G01X6250Y44543D02*
G01X6250Y44634D01*
G01X6227Y44475D02*
G01X6250Y44543D01*
G01X6181Y44430D02*
G01X6227Y44475D01*
G01X5772Y44930D02*
G01X6250Y45043D01*
G01X5772Y45157D02*
G01X6250Y45043D01*
G01X5772Y45157D02*
G01X6250Y45270D01*
G01X5772Y45384D02*
G01X6250Y45270D01*
G01X5863Y45589D02*
G01X5886Y45589D01*
G01X5818Y45611D02*
G01X5863Y45589D01*
G01X5795Y45634D02*
G01X5818Y45611D01*
G01X5772Y45680D02*
G01X5795Y45634D01*
G01X5772Y45770D02*
G01X5772Y45680D01*
G01X5772Y45770D02*
G01X5795Y45816D01*
G01X5795Y45816D02*
G01X5818Y45839D01*
G01X5818Y45839D02*
G01X5863Y45861D01*
G01X5863Y45861D02*
G01X5909Y45861D01*
G01X5909Y45861D02*
G01X5954Y45839D01*
G01X5954Y45839D02*
G01X6022Y45793D01*
G01X6022Y45793D02*
G01X6250Y45566D01*
G01X6250Y45884D02*
G01X6250Y45566D01*
G04 Draw part U1*
G04 draw part outline for part U1*
G01X19250Y53250D02*
G01X19250Y39250D01*
G01X19250Y39250D02*
G01X21250Y39250D01*
G01X21250Y39250D02*
G01X21250Y53250D01*
G01X21250Y53250D02*
G01X19250Y53250D01*
G01X19750Y53250D02*
G01X19750Y52750D01*
G01X19750Y52750D02*
G01X20750Y52750D01*
G01X20750Y52750D02*
G01X20750Y53250D01*
G01X20750Y53250D02*
G01X19750Y53250D01*
G04 draw reference designator for part U1*
G01X20250Y54477D02*
G01X20250Y54136D01*
G01X20250Y54136D02*
G01X20272Y54068D01*
G01X20272Y54068D02*
G01X20318Y54022D01*
G01X20318Y54022D02*
G01X20386Y54000D01*
G01X20431Y54000D02*
G01X20386Y54000D01*
G01X20500Y54022D02*
G01X20431Y54000D01*
G01X20545Y54068D02*
G01X20500Y54022D01*
G01X20568Y54136D02*
G01X20545Y54068D01*
G01X20568Y54477D02*
G01X20568Y54136D01*
G01X20795Y54409D02*
G01X20750Y54386D01*
G01X20863Y54477D02*
G01X20795Y54409D01*
G01X20863Y54477D02*
G01X20863Y54000D01*
G04 Draw part H2*
G04 draw part outline for part H2*
G04 draw reference designator for part H2*
G01X26772Y43250D02*
G01X27250Y43250D01*
G01X26772Y43568D02*
G01X27250Y43568D01*
G01X27000Y43568D02*
G01X27000Y43250D01*
G01X26863Y43772D02*
G01X26886Y43772D01*
G01X26818Y43795D02*
G01X26863Y43772D01*
G01X26795Y43818D02*
G01X26818Y43795D01*
G01X26772Y43863D02*
G01X26795Y43818D01*
G01X26772Y43954D02*
G01X26772Y43863D01*
G01X26772Y43954D02*
G01X26795Y44000D01*
G01X26795Y44000D02*
G01X26818Y44022D01*
G01X26818Y44022D02*
G01X26863Y44045D01*
G01X26863Y44045D02*
G01X26909Y44045D01*
G01X26909Y44045D02*
G01X26954Y44022D01*
G01X26954Y44022D02*
G01X27022Y43977D01*
G01X27022Y43977D02*
G01X27250Y43750D01*
G01X27250Y44068D02*
G01X27250Y43750D01*
G04 Draw part D1*
G04 draw part outline for part D1*
G01X13140Y42960D02*
G01X13140Y42920D01*
G01X13143Y42881D01*
G01X13148Y42842D01*
G01X13154Y42803D01*
G01X13162Y42765D01*
G01X13172Y42727D01*
G01X13184Y42689D01*
G01X13197Y42652D01*
G01X13212Y42616D01*
G01X13229Y42581D01*
G01X13247Y42546D01*
G01X13267Y42512D01*
G01X13288Y42479D01*
G01X13311Y42447D01*
G01X13336Y42416D01*
G01X13361Y42387D01*
G01X13388Y42358D01*
G01X13417Y42331D01*
G01X13446Y42306D01*
G01X13477Y42281D01*
G01X13509Y42258D01*
G01X13542Y42237D01*
G01X13576Y42217D01*
G01X13611Y42199D01*
G01X13646Y42182D01*
G01X13682Y42167D01*
G01X13719Y42154D01*
G01X13757Y42142D01*
G01X13795Y42132D01*
G01X13833Y42124D01*
G01X13872Y42118D01*
G01X13911Y42113D01*
G01X13950Y42110D01*
G01X13990Y42110D01*
G01X13990Y43810D02*
G01X13950Y43809D01*
G01X13911Y43806D01*
G01X13872Y43801D01*
G01X13833Y43795D01*
G01X13795Y43787D01*
G01X13757Y43777D01*
G01X13719Y43765D01*
G01X13682Y43752D01*
G01X13646Y43737D01*
G01X13611Y43720D01*
G01X13576Y43702D01*
G01X13542Y43682D01*
G01X13509Y43661D01*
G01X13477Y43638D01*
G01X13446Y43613D01*
G01X13417Y43588D01*
G01X13388Y43561D01*
G01X13361Y43532D01*
G01X13336Y43503D01*
G01X13311Y43472D01*
G01X13288Y43440D01*
G01X13267Y43407D01*
G01X13247Y43373D01*
G01X13229Y43338D01*
G01X13212Y43303D01*
G01X13197Y43267D01*
G01X13184Y43230D01*
G01X13172Y43192D01*
G01X13162Y43154D01*
G01X13154Y43116D01*
G01X13148Y43077D01*
G01X13143Y43038D01*
G01X13140Y42999D01*
G01X13140Y42960D01*
G01X13990Y42110D02*
G01X14029Y42110D01*
G01X14068Y42113D01*
G01X14107Y42118D01*
G01X14146Y42124D01*
G01X14184Y42132D01*
G01X14222Y42142D01*
G01X14260Y42154D01*
G01X14297Y42167D01*
G01X14333Y42182D01*
G01X14368Y42199D01*
G01X14403Y42217D01*
G01X14437Y42237D01*
G01X14470Y42258D01*
G01X14502Y42281D01*
G01X14533Y42306D01*
G01X14562Y42331D01*
G01X14591Y42358D01*
G01X14618Y42387D01*
G01X14643Y42416D01*
G01X14668Y42447D01*
G01X14691Y42479D01*
G01X14712Y42512D01*
G01X14732Y42546D01*
G01X14750Y42581D01*
G01X14767Y42616D01*
G01X14782Y42652D01*
G01X14795Y42689D01*
G01X14807Y42727D01*
G01X14817Y42765D01*
G01X14825Y42803D01*
G01X14831Y42842D01*
G01X14836Y42881D01*
G01X14839Y42920D01*
G01X14840Y42960D01*
G01X14840Y42960D02*
G01X13990Y43810D01*
G04 draw reference designator for part D1*
G01X13772Y44500D02*
G01X14250Y44500D01*
G01X13772Y44659D02*
G01X13772Y44500D01*
G01X13772Y44659D02*
G01X13795Y44727D01*
G01X13795Y44727D02*
G01X13840Y44772D01*
G01X13840Y44772D02*
G01X13886Y44795D01*
G01X13886Y44795D02*
G01X13954Y44818D01*
G01X13954Y44818D02*
G01X14068Y44818D01*
G01X14068Y44818D02*
G01X14136Y44795D01*
G01X14136Y44795D02*
G01X14181Y44772D01*
G01X14181Y44772D02*
G01X14227Y44727D01*
G01X14227Y44727D02*
G01X14250Y44659D01*
G01X14250Y44500D02*
G01X14250Y44659D01*
G01X13840Y45045D02*
G01X13863Y45000D01*
G01X13772Y45113D02*
G01X13840Y45045D01*
G01X13772Y45113D02*
G01X14250Y45113D01*
G04 Draw part R3*
G04 draw part outline for part R3*
G01X13650Y41500D02*
G01X15850Y41500D01*
G01X15850Y41500D02*
G01X15850Y40500D01*
G01X15850Y40500D02*
G01X13650Y40500D01*
G01X13650Y40500D02*
G01X13650Y41500D01*
G04 draw reference designator for part R3*
G01X13772Y39000D02*
G01X14250Y39000D01*
G01X13772Y39204D02*
G01X13772Y39000D01*
G01X13772Y39204D02*
G01X13795Y39272D01*
G01X13795Y39272D02*
G01X13818Y39295D01*
G01X13818Y39295D02*
G01X13863Y39318D01*
G01X13863Y39318D02*
G01X13909Y39318D01*
G01X13909Y39318D02*
G01X13954Y39295D01*
G01X13954Y39295D02*
G01X13977Y39272D01*
G01X13977Y39272D02*
G01X14000Y39204D01*
G01X14000Y39000D02*
G01X14000Y39204D01*
G01X14000Y39159D02*
G01X14250Y39318D01*
G01X13772Y39795D02*
G01X13772Y39545D01*
G01X13772Y39795D02*
G01X13954Y39659D01*
G01X13954Y39727D02*
G01X13954Y39659D01*
G01X13954Y39727D02*
G01X13977Y39772D01*
G01X13977Y39772D02*
G01X14000Y39795D01*
G01X14000Y39795D02*
G01X14068Y39818D01*
G01X14068Y39818D02*
G01X14113Y39818D01*
G01X14113Y39818D02*
G01X14181Y39795D01*
G01X14181Y39795D02*
G01X14227Y39750D01*
G01X14227Y39750D02*
G01X14250Y39681D01*
G01X14250Y39613D02*
G01X14250Y39681D01*
G01X14227Y39545D02*
G01X14250Y39613D01*
G01X14204Y39522D02*
G01X14227Y39545D01*
G01X14159Y39500D02*
G01X14204Y39522D01*
G04 Draw part H1*
G04 draw part outline for part H1*
G04 draw reference designator for part H1*
G01X36022Y53500D02*
G01X36500Y53500D01*
G01X36022Y53818D02*
G01X36500Y53818D01*
G01X36250Y53818D02*
G01X36250Y53500D01*
G01X36090Y54045D02*
G01X36113Y54000D01*
G01X36022Y54113D02*
G01X36090Y54045D01*
G01X36022Y54113D02*
G01X36500Y54113D01*
G04 Draw part SW1*
G04 draw part outline for part SW1*
G01X31250Y49750D02*
G01X28000Y49750D01*
G01X28000Y49750D02*
G01X28000Y54250D01*
G01X28000Y54250D02*
G01X31500Y54250D01*
G01X31500Y54250D02*
G01X31500Y49750D01*
G01X31500Y49750D02*
G01X31250Y49750D01*
G01X31500Y52750D02*
G01X30000Y52750D01*
G01X30000Y52750D02*
G01X30000Y54250D01*
G04 draw reference designator for part SW1*
G01X28272Y55204D02*
G01X28318Y55159D01*
G01X28204Y55227D02*
G01X28272Y55204D01*
G01X28113Y55227D02*
G01X28204Y55227D01*
G01X28113Y55227D02*
G01X28045Y55204D01*
G01X28045Y55204D02*
G01X28000Y55159D01*
G01X28000Y55159D02*
G01X28000Y55113D01*
G01X28000Y55113D02*
G01X28022Y55068D01*
G01X28022Y55068D02*
G01X28045Y55045D01*
G01X28045Y55045D02*
G01X28090Y55022D01*
G01X28090Y55022D02*
G01X28227Y54977D01*
G01X28227Y54977D02*
G01X28272Y54954D01*
G01X28272Y54954D02*
G01X28295Y54931D01*
G01X28295Y54931D02*
G01X28318Y54886D01*
G01X28318Y54886D02*
G01X28318Y54818D01*
G01X28318Y54818D02*
G01X28272Y54772D01*
G01X28272Y54772D02*
G01X28204Y54750D01*
G01X28113Y54750D02*
G01X28204Y54750D01*
G01X28045Y54772D02*
G01X28113Y54750D01*
G01X28000Y54818D02*
G01X28045Y54772D01*
G01X28500Y55227D02*
G01X28613Y54750D01*
G01X28727Y55227D02*
G01X28613Y54750D01*
G01X28727Y55227D02*
G01X28840Y54750D01*
G01X28954Y55227D02*
G01X28840Y54750D01*
G01X29181Y55159D02*
G01X29136Y55136D01*
G01X29250Y55227D02*
G01X29181Y55159D01*
G01X29250Y55227D02*
G01X29250Y54750D01*
G04 Draw part H3*
G04 draw part outline for part H3*
G01X17250Y55500D02*
G01X23250Y55500D01*
G01X23250Y55500D02*
G01X23250Y54500D01*
G01X23250Y54500D02*
G01X17250Y54500D01*
G01X17250Y54500D02*
G01X17250Y55500D01*
G04 draw reference designator for part H3*
G01X16250Y55477D02*
G01X16250Y55000D01*
G01X16568Y55477D02*
G01X16568Y55000D01*
G01X16568Y55250D02*
G01X16250Y55250D01*
G01X17045Y55477D02*
G01X16795Y55477D01*
G01X17045Y55477D02*
G01X16909Y55295D01*
G01X16977Y55295D02*
G01X16909Y55295D01*
G01X16977Y55295D02*
G01X17022Y55272D01*
G01X17022Y55272D02*
G01X17045Y55250D01*
G01X17045Y55250D02*
G01X17068Y55181D01*
G01X17068Y55181D02*
G01X17068Y55136D01*
G01X17068Y55136D02*
G01X17045Y55068D01*
G01X17045Y55068D02*
G01X17000Y55022D01*
G01X17000Y55022D02*
G01X16931Y55000D01*
G01X16863Y55000D02*
G01X16931Y55000D01*
G01X16795Y55022D02*
G01X16863Y55000D01*
G01X16772Y55045D02*
G01X16795Y55022D01*
G01X16750Y55090D02*
G01X16772Y55045D01*
G04 Draw part U2*
G04 draw part outline for part U2*
G01X43950Y45300D02*
G01X43950Y48700D01*
G01X43950Y48700D02*
G01X42350Y48700D01*
G01X42350Y48700D02*
G01X42350Y45300D01*
G01X42350Y45300D02*
G01X43950Y45300D01*
G01X42550Y45300D02*
G01X42550Y48700D01*
G04 draw reference designator for part U2*
G01X42272Y49000D02*
G01X42613Y49000D01*
G01X42613Y49000D02*
G01X42681Y49022D01*
G01X42681Y49022D02*
G01X42727Y49068D01*
G01X42727Y49068D02*
G01X42750Y49136D01*
G01X42750Y49181D02*
G01X42750Y49136D01*
G01X42727Y49250D02*
G01X42750Y49181D01*
G01X42681Y49295D02*
G01X42727Y49250D01*
G01X42613Y49318D02*
G01X42681Y49295D01*
G01X42272Y49318D02*
G01X42613Y49318D01*
G01X42363Y49522D02*
G01X42386Y49522D01*
G01X42318Y49545D02*
G01X42363Y49522D01*
G01X42295Y49568D02*
G01X42318Y49545D01*
G01X42272Y49613D02*
G01X42295Y49568D01*
G01X42272Y49704D02*
G01X42272Y49613D01*
G01X42272Y49704D02*
G01X42295Y49750D01*
G01X42295Y49750D02*
G01X42318Y49772D01*
G01X42318Y49772D02*
G01X42363Y49795D01*
G01X42363Y49795D02*
G01X42409Y49795D01*
G01X42409Y49795D02*
G01X42454Y49772D01*
G01X42454Y49772D02*
G01X42522Y49727D01*
G01X42522Y49727D02*
G01X42750Y49500D01*
G01X42750Y49818D02*
G01X42750Y49500D01*
G04 Draw part C6*
G04 draw part outline for part C6*
G01X41750Y48380D02*
G01X41750Y45620D01*
G01X41750Y45620D02*
G01X40750Y45620D01*
G01X40750Y45620D02*
G01X40750Y48380D01*
G01X40750Y48380D02*
G01X41750Y48380D01*
G04 draw reference designator for part C6*
G01X41090Y48818D02*
G01X41136Y48840D01*
G01X41045Y48772D02*
G01X41090Y48818D01*
G01X41022Y48727D02*
G01X41045Y48772D01*
G01X41022Y48636D02*
G01X41022Y48727D01*
G01X41022Y48636D02*
G01X41045Y48590D01*
G01X41045Y48590D02*
G01X41090Y48545D01*
G01X41090Y48545D02*
G01X41136Y48522D01*
G01X41136Y48522D02*
G01X41204Y48500D01*
G01X41204Y48500D02*
G01X41318Y48500D01*
G01X41318Y48500D02*
G01X41386Y48522D01*
G01X41386Y48522D02*
G01X41431Y48545D01*
G01X41431Y48545D02*
G01X41477Y48590D01*
G01X41477Y48590D02*
G01X41500Y48636D01*
G01X41500Y48727D02*
G01X41500Y48636D01*
G01X41477Y48772D02*
G01X41500Y48727D01*
G01X41431Y48818D02*
G01X41477Y48772D01*
G01X41386Y48840D02*
G01X41431Y48818D01*
G01X41045Y49272D02*
G01X41090Y49295D01*
G01X41022Y49204D02*
G01X41045Y49272D01*
G01X41022Y49159D02*
G01X41022Y49204D01*
G01X41022Y49159D02*
G01X41045Y49090D01*
G01X41045Y49090D02*
G01X41113Y49045D01*
G01X41113Y49045D02*
G01X41227Y49022D01*
G01X41227Y49022D02*
G01X41340Y49022D01*
G01X41340Y49022D02*
G01X41431Y49045D01*
G01X41431Y49045D02*
G01X41477Y49090D01*
G01X41477Y49090D02*
G01X41500Y49159D01*
G01X41500Y49181D02*
G01X41500Y49159D01*
G01X41477Y49250D02*
G01X41500Y49181D01*
G01X41431Y49295D02*
G01X41477Y49250D01*
G01X41363Y49318D02*
G01X41431Y49295D01*
G01X41340Y49318D02*
G01X41363Y49318D01*
G01X41272Y49295D02*
G01X41340Y49318D01*
G01X41227Y49250D02*
G01X41272Y49295D01*
G01X41204Y49181D02*
G01X41227Y49250D01*
G01X41204Y49159D02*
G01X41204Y49181D01*
G01X41204Y49159D02*
G01X41227Y49090D01*
G01X41227Y49090D02*
G01X41272Y49045D01*
G01X41272Y49045D02*
G01X41340Y49022D01*
G04 Draw part C5*
G04 draw part outline for part C5*
G01X44750Y49120D02*
G01X44750Y51880D01*
G01X44750Y51880D02*
G01X45750Y51880D01*
G01X45750Y51880D02*
G01X45750Y49120D01*
G01X45750Y49120D02*
G01X44750Y49120D01*
G04 draw reference designator for part C5*
G01X44840Y52568D02*
G01X44886Y52590D01*
G01X44795Y52522D02*
G01X44840Y52568D01*
G01X44772Y52477D02*
G01X44795Y52522D01*
G01X44772Y52386D02*
G01X44772Y52477D01*
G01X44772Y52386D02*
G01X44795Y52340D01*
G01X44795Y52340D02*
G01X44840Y52295D01*
G01X44840Y52295D02*
G01X44886Y52272D01*
G01X44886Y52272D02*
G01X44954Y52250D01*
G01X44954Y52250D02*
G01X45068Y52250D01*
G01X45068Y52250D02*
G01X45136Y52272D01*
G01X45136Y52272D02*
G01X45181Y52295D01*
G01X45181Y52295D02*
G01X45227Y52340D01*
G01X45227Y52340D02*
G01X45250Y52386D01*
G01X45250Y52477D02*
G01X45250Y52386D01*
G01X45227Y52522D02*
G01X45250Y52477D01*
G01X45181Y52568D02*
G01X45227Y52522D01*
G01X45136Y52590D02*
G01X45181Y52568D01*
G01X44772Y52818D02*
G01X44772Y53045D01*
G01X44772Y52818D02*
G01X44977Y52795D01*
G01X44954Y52818D02*
G01X44977Y52795D01*
G01X44931Y52886D02*
G01X44954Y52818D01*
G01X44931Y52954D02*
G01X44931Y52886D01*
G01X44931Y52954D02*
G01X44954Y53022D01*
G01X44954Y53022D02*
G01X45000Y53068D01*
G01X45000Y53068D02*
G01X45068Y53090D01*
G01X45068Y53090D02*
G01X45113Y53090D01*
G01X45113Y53090D02*
G01X45181Y53068D01*
G01X45181Y53068D02*
G01X45227Y53022D01*
G01X45227Y53022D02*
G01X45250Y52954D01*
G01X45250Y52886D02*
G01X45250Y52954D01*
G01X45227Y52818D02*
G01X45250Y52886D01*
G01X45204Y52795D02*
G01X45227Y52818D01*
G01X45159Y52772D02*
G01X45204Y52795D01*
G04 Draw part L1*
G04 draw part outline for part L1*
G01X45250Y44380D02*
G01X45250Y41620D01*
G01X45250Y41620D02*
G01X44250Y41620D01*
G01X44250Y41620D02*
G01X44250Y44380D01*
G01X44250Y44380D02*
G01X45250Y44380D01*
G04 draw reference designator for part L1*
G01X45522Y42000D02*
G01X46000Y42000D01*
G01X46000Y42272D02*
G01X46000Y42000D01*
G01X45590Y42500D02*
G01X45613Y42454D01*
G01X45522Y42568D02*
G01X45590Y42500D01*
G01X45522Y42568D02*
G01X46000Y42568D01*
G04 Draw part R4*
G04 draw part outline for part R4*
G01X42750Y40900D02*
G01X42750Y43100D01*
G01X42750Y43100D02*
G01X43750Y43100D01*
G01X43750Y43100D02*
G01X43750Y40900D01*
G01X43750Y40900D02*
G01X42750Y40900D01*
G04 draw reference designator for part R4*
G01X41772Y41250D02*
G01X42250Y41250D01*
G01X41772Y41454D02*
G01X41772Y41250D01*
G01X41772Y41454D02*
G01X41795Y41522D01*
G01X41795Y41522D02*
G01X41818Y41545D01*
G01X41818Y41545D02*
G01X41863Y41568D01*
G01X41863Y41568D02*
G01X41909Y41568D01*
G01X41909Y41568D02*
G01X41954Y41545D01*
G01X41954Y41545D02*
G01X41977Y41522D01*
G01X41977Y41522D02*
G01X42000Y41454D01*
G01X42000Y41250D02*
G01X42000Y41454D01*
G01X42000Y41409D02*
G01X42250Y41568D01*
G01X41772Y41977D02*
G01X42090Y41750D01*
G01X42090Y42090D02*
G01X42090Y41750D01*
G01X41772Y41977D02*
G01X42250Y41977D01*
G04 Draw part U4*
G04 draw part outline for part U4*
G01X42400Y52360D02*
G01X42400Y50640D01*
G01X42400Y52360D02*
G01X43000Y52550D01*
G01X44050Y51500D02*
G01X44049Y51539D01*
G01X44047Y51578D01*
G01X44043Y51617D01*
G01X44038Y51656D01*
G01X44031Y51695D01*
G01X44023Y51733D01*
G01X44014Y51771D01*
G01X44003Y51809D01*
G01X43991Y51846D01*
G01X43977Y51883D01*
G01X43962Y51919D01*
G01X43946Y51955D01*
G01X43928Y51990D01*
G01X43909Y52025D01*
G01X43889Y52058D01*
G01X43867Y52091D01*
G01X43844Y52123D01*
G01X43820Y52154D01*
G01X43795Y52184D01*
G01X43769Y52214D01*
G01X43742Y52242D01*
G01X43714Y52269D01*
G01X43684Y52295D01*
G01X43654Y52320D01*
G01X43623Y52344D01*
G01X43591Y52367D01*
G01X43558Y52389D01*
G01X43524Y52409D01*
G01X43490Y52428D01*
G01X43455Y52446D01*
G01X43419Y52462D01*
G01X43383Y52477D01*
G01X43346Y52491D01*
G01X43309Y52503D01*
G01X43271Y52514D01*
G01X43233Y52523D01*
G01X43195Y52531D01*
G01X43156Y52538D01*
G01X43117Y52543D01*
G01X43078Y52547D01*
G01X43039Y52549D01*
G01X43000Y52550D01*
G01X43000Y50450D02*
G01X43039Y50450D01*
G01X43078Y50452D01*
G01X43117Y50456D01*
G01X43156Y50461D01*
G01X43195Y50468D01*
G01X43233Y50476D01*
G01X43271Y50485D01*
G01X43309Y50496D01*
G01X43346Y50508D01*
G01X43383Y50522D01*
G01X43419Y50537D01*
G01X43455Y50553D01*
G01X43490Y50571D01*
G01X43525Y50590D01*
G01X43558Y50610D01*
G01X43591Y50632D01*
G01X43623Y50655D01*
G01X43654Y50679D01*
G01X43684Y50704D01*
G01X43714Y50730D01*
G01X43742Y50757D01*
G01X43769Y50785D01*
G01X43795Y50815D01*
G01X43820Y50845D01*
G01X43844Y50876D01*
G01X43867Y50908D01*
G01X43889Y50941D01*
G01X43909Y50975D01*
G01X43928Y51009D01*
G01X43946Y51044D01*
G01X43962Y51080D01*
G01X43977Y51116D01*
G01X43991Y51153D01*
G01X44003Y51190D01*
G01X44014Y51228D01*
G01X44023Y51266D01*
G01X44031Y51304D01*
G01X44038Y51343D01*
G01X44043Y51382D01*
G01X44047Y51421D01*
G01X44049Y51460D01*
G01X44050Y51500D01*
G01X43000Y50450D02*
G01X42400Y50640D01*
G04 draw reference designator for part U4*
G01X42522Y53000D02*
G01X42863Y53000D01*
G01X42863Y53000D02*
G01X42931Y53022D01*
G01X42931Y53022D02*
G01X42977Y53068D01*
G01X42977Y53068D02*
G01X43000Y53136D01*
G01X43000Y53181D02*
G01X43000Y53136D01*
G01X42977Y53250D02*
G01X43000Y53181D01*
G01X42931Y53295D02*
G01X42977Y53250D01*
G01X42863Y53318D02*
G01X42931Y53295D01*
G01X42522Y53318D02*
G01X42863Y53318D01*
G01X42522Y53727D02*
G01X42840Y53500D01*
G01X42840Y53840D02*
G01X42840Y53500D01*
G01X42522Y53727D02*
G01X43000Y53727D01*
G04 Draw part C8*
G04 draw part outline for part C8*
G01X40750Y49620D02*
G01X40750Y52380D01*
G01X40750Y52380D02*
G01X41750Y52380D01*
G01X41750Y52380D02*
G01X41750Y49620D01*
G01X41750Y49620D02*
G01X40750Y49620D01*
G04 draw reference designator for part C8*
G01X41090Y53068D02*
G01X41136Y53090D01*
G01X41045Y53022D02*
G01X41090Y53068D01*
G01X41022Y52977D02*
G01X41045Y53022D01*
G01X41022Y52886D02*
G01X41022Y52977D01*
G01X41022Y52886D02*
G01X41045Y52840D01*
G01X41045Y52840D02*
G01X41090Y52795D01*
G01X41090Y52795D02*
G01X41136Y52772D01*
G01X41136Y52772D02*
G01X41204Y52750D01*
G01X41204Y52750D02*
G01X41318Y52750D01*
G01X41318Y52750D02*
G01X41386Y52772D01*
G01X41386Y52772D02*
G01X41431Y52795D01*
G01X41431Y52795D02*
G01X41477Y52840D01*
G01X41477Y52840D02*
G01X41500Y52886D01*
G01X41500Y52977D02*
G01X41500Y52886D01*
G01X41477Y53022D02*
G01X41500Y52977D01*
G01X41431Y53068D02*
G01X41477Y53022D01*
G01X41386Y53090D02*
G01X41431Y53068D01*
G01X41022Y53386D02*
G01X41045Y53318D01*
G01X41045Y53318D02*
G01X41090Y53295D01*
G01X41090Y53295D02*
G01X41136Y53295D01*
G01X41136Y53295D02*
G01X41181Y53318D01*
G01X41181Y53318D02*
G01X41204Y53363D01*
G01X41204Y53363D02*
G01X41227Y53454D01*
G01X41227Y53454D02*
G01X41250Y53522D01*
G01X41250Y53522D02*
G01X41295Y53568D01*
G01X41295Y53568D02*
G01X41340Y53590D01*
G01X41340Y53590D02*
G01X41409Y53590D01*
G01X41409Y53590D02*
G01X41454Y53568D01*
G01X41454Y53568D02*
G01X41477Y53545D01*
G01X41477Y53545D02*
G01X41500Y53477D01*
G01X41500Y53386D02*
G01X41500Y53477D01*
G01X41477Y53318D02*
G01X41500Y53386D01*
G01X41454Y53295D02*
G01X41477Y53318D01*
G01X41409Y53272D02*
G01X41454Y53295D01*
G01X41340Y53272D02*
G01X41409Y53272D01*
G01X41295Y53295D02*
G01X41340Y53272D01*
G01X41250Y53340D02*
G01X41295Y53295D01*
G01X41227Y53409D02*
G01X41250Y53340D01*
G01X41204Y53500D02*
G01X41227Y53409D01*
G01X41181Y53545D02*
G01X41204Y53500D01*
G01X41136Y53568D02*
G01X41181Y53545D01*
G01X41090Y53568D02*
G01X41136Y53568D01*
G01X41045Y53545D02*
G01X41090Y53568D01*
G01X41022Y53477D02*
G01X41045Y53545D01*
G01X41022Y53386D02*
G01X41022Y53477D01*
G04 Draw part C7*
G04 draw part outline for part C7*
G01X45750Y48380D02*
G01X45750Y45620D01*
G01X45750Y45620D02*
G01X44750Y45620D01*
G01X44750Y45620D02*
G01X44750Y48380D01*
G01X44750Y48380D02*
G01X45750Y48380D01*
G04 draw reference designator for part C7*
G01X44840Y44818D02*
G01X44886Y44840D01*
G01X44795Y44772D02*
G01X44840Y44818D01*
G01X44772Y44727D02*
G01X44795Y44772D01*
G01X44772Y44636D02*
G01X44772Y44727D01*
G01X44772Y44636D02*
G01X44795Y44590D01*
G01X44795Y44590D02*
G01X44840Y44545D01*
G01X44840Y44545D02*
G01X44886Y44522D01*
G01X44886Y44522D02*
G01X44954Y44500D01*
G01X44954Y44500D02*
G01X45068Y44500D01*
G01X45068Y44500D02*
G01X45136Y44522D01*
G01X45136Y44522D02*
G01X45181Y44545D01*
G01X45181Y44545D02*
G01X45227Y44590D01*
G01X45227Y44590D02*
G01X45250Y44636D01*
G01X45250Y44727D02*
G01X45250Y44636D01*
G01X45227Y44772D02*
G01X45250Y44727D01*
G01X45181Y44818D02*
G01X45227Y44772D01*
G01X45136Y44840D02*
G01X45181Y44818D01*
G01X44772Y45340D02*
G01X45250Y45113D01*
G01X44772Y45340D02*
G01X44772Y45022D01*
G04 Draw part R5*
G04 draw part outline for part R5*
G01X43250Y57600D02*
G01X43250Y55400D01*
G01X43250Y55400D02*
G01X42250Y55400D01*
G01X42250Y55400D02*
G01X42250Y57600D01*
G01X42250Y57600D02*
G01X43250Y57600D01*
G04 draw reference designator for part R5*
G01X41272Y56000D02*
G01X41750Y56000D01*
G01X41272Y56204D02*
G01X41272Y56000D01*
G01X41272Y56204D02*
G01X41295Y56272D01*
G01X41295Y56272D02*
G01X41318Y56295D01*
G01X41318Y56295D02*
G01X41363Y56318D01*
G01X41363Y56318D02*
G01X41409Y56318D01*
G01X41409Y56318D02*
G01X41454Y56295D01*
G01X41454Y56295D02*
G01X41477Y56272D01*
G01X41477Y56272D02*
G01X41500Y56204D01*
G01X41500Y56000D02*
G01X41500Y56204D01*
G01X41500Y56159D02*
G01X41750Y56318D01*
G01X41272Y56545D02*
G01X41272Y56772D01*
G01X41272Y56545D02*
G01X41477Y56522D01*
G01X41454Y56545D02*
G01X41477Y56522D01*
G01X41431Y56613D02*
G01X41454Y56545D01*
G01X41431Y56681D02*
G01X41431Y56613D01*
G01X41431Y56681D02*
G01X41454Y56750D01*
G01X41454Y56750D02*
G01X41500Y56795D01*
G01X41500Y56795D02*
G01X41568Y56818D01*
G01X41568Y56818D02*
G01X41613Y56818D01*
G01X41613Y56818D02*
G01X41681Y56795D01*
G01X41681Y56795D02*
G01X41727Y56750D01*
G01X41727Y56750D02*
G01X41750Y56681D01*
G01X41750Y56613D02*
G01X41750Y56681D01*
G01X41727Y56545D02*
G01X41750Y56613D01*
G01X41704Y56522D02*
G01X41727Y56545D01*
G01X41659Y56500D02*
G01X41704Y56522D01*
G04 Draw part U5*
G04 draw part outline for part U5*
G01X10500Y32500D02*
G01X10500Y41500D01*
G01X10500Y41500D02*
G01X8500Y41500D01*
G01X8500Y41500D02*
G01X8500Y32500D01*
G01X8500Y32500D02*
G01X10500Y32500D01*
G01X10000Y32500D02*
G01X10000Y33000D01*
G01X10000Y33000D02*
G01X9000Y33000D01*
G01X9000Y33000D02*
G01X9000Y32500D01*
G01X9000Y32500D02*
G01X10000Y32500D01*
G04 draw reference designator for part U5*
G01X8522Y31500D02*
G01X8863Y31500D01*
G01X8863Y31500D02*
G01X8931Y31522D01*
G01X8931Y31522D02*
G01X8977Y31568D01*
G01X8977Y31568D02*
G01X9000Y31636D01*
G01X9000Y31681D02*
G01X9000Y31636D01*
G01X8977Y31750D02*
G01X9000Y31681D01*
G01X8931Y31795D02*
G01X8977Y31750D01*
G01X8863Y31818D02*
G01X8931Y31795D01*
G01X8522Y31818D02*
G01X8863Y31818D01*
G01X8522Y32045D02*
G01X8522Y32272D01*
G01X8522Y32045D02*
G01X8727Y32022D01*
G01X8704Y32045D02*
G01X8727Y32022D01*
G01X8681Y32113D02*
G01X8704Y32045D01*
G01X8681Y32181D02*
G01X8681Y32113D01*
G01X8681Y32181D02*
G01X8704Y32250D01*
G01X8704Y32250D02*
G01X8750Y32295D01*
G01X8750Y32295D02*
G01X8818Y32318D01*
G01X8818Y32318D02*
G01X8863Y32318D01*
G01X8863Y32318D02*
G01X8931Y32295D01*
G01X8931Y32295D02*
G01X8977Y32250D01*
G01X8977Y32250D02*
G01X9000Y32181D01*
G01X9000Y32113D02*
G01X9000Y32181D01*
G01X8977Y32045D02*
G01X9000Y32113D01*
G01X8954Y32022D02*
G01X8977Y32045D01*
G01X8909Y32000D02*
G01X8954Y32022D01*
G04 Draw part Z1*
G04 draw part outline for part Z1*
G01X30000Y33500D02*
G01X21000Y33500D01*
G01X21000Y33500D02*
G01X21000Y34500D01*
G01X21000Y34500D02*
G01X30000Y34500D01*
G01X30000Y34500D02*
G01X30000Y33500D01*
G04 draw reference designator for part Z1*
G01X20272Y34068D02*
G01X20750Y33750D01*
G01X20272Y34068D02*
G01X20272Y33750D01*
G01X20750Y34068D02*
G01X20750Y33750D01*
G01X20340Y34295D02*
G01X20363Y34250D01*
G01X20272Y34363D02*
G01X20340Y34295D01*
G01X20272Y34363D02*
G01X20750Y34363D01*
G04 Draw part TP2*
G04 draw part outline for part TP2*
G54D13*
G01X11050Y51200D02*
G01X11050Y49800D01*
G01X11050Y49800D02*
G01X12450Y49800D01*
G01X12450Y49800D02*
G01X12450Y51200D01*
G01X12450Y51200D02*
G01X11050Y51200D01*
G04 draw reference designator for part TP2*
G54D12*
G01X11159Y52227D02*
G01X11159Y51750D01*
G01X11318Y52227D02*
G01X11000Y52227D01*
G01X11500Y52227D02*
G01X11500Y51750D01*
G01X11704Y52227D02*
G01X11500Y52227D01*
G01X11704Y52227D02*
G01X11772Y52204D01*
G01X11772Y52204D02*
G01X11795Y52181D01*
G01X11795Y52181D02*
G01X11818Y52136D01*
G01X11818Y52136D02*
G01X11818Y52068D01*
G01X11818Y52068D02*
G01X11795Y52022D01*
G01X11795Y52022D02*
G01X11772Y52000D01*
G01X11772Y52000D02*
G01X11704Y51977D01*
G01X11500Y51977D02*
G01X11704Y51977D01*
G01X12022Y52136D02*
G01X12022Y52113D01*
G01X12045Y52181D02*
G01X12022Y52136D01*
G01X12068Y52204D02*
G01X12045Y52181D01*
G01X12113Y52227D02*
G01X12068Y52204D01*
G01X12204Y52227D02*
G01X12113Y52227D01*
G01X12204Y52227D02*
G01X12250Y52204D01*
G01X12250Y52204D02*
G01X12272Y52181D01*
G01X12272Y52181D02*
G01X12295Y52136D01*
G01X12295Y52136D02*
G01X12295Y52090D01*
G01X12295Y52090D02*
G01X12272Y52045D01*
G01X12272Y52045D02*
G01X12227Y51977D01*
G01X12227Y51977D02*
G01X12000Y51750D01*
G01X12318Y51750D02*
G01X12000Y51750D01*
G04 Draw part TP4*
G04 draw part outline for part TP4*
G54D13*
G01X17550Y57700D02*
G01X17550Y56300D01*
G01X17550Y56300D02*
G01X18950Y56300D01*
G01X18950Y56300D02*
G01X18950Y57700D01*
G01X18950Y57700D02*
G01X17550Y57700D01*
G04 draw reference designator for part TP4*
G54D12*
G01X17909Y58477D02*
G01X17909Y58000D01*
G01X18068Y58477D02*
G01X17750Y58477D01*
G01X18250Y58477D02*
G01X18250Y58000D01*
G01X18454Y58477D02*
G01X18250Y58477D01*
G01X18454Y58477D02*
G01X18522Y58454D01*
G01X18522Y58454D02*
G01X18545Y58431D01*
G01X18545Y58431D02*
G01X18568Y58386D01*
G01X18568Y58386D02*
G01X18568Y58318D01*
G01X18568Y58318D02*
G01X18545Y58272D01*
G01X18545Y58272D02*
G01X18522Y58250D01*
G01X18522Y58250D02*
G01X18454Y58227D01*
G01X18250Y58227D02*
G01X18454Y58227D01*
G01X18977Y58477D02*
G01X18750Y58159D01*
G01X19090Y58159D02*
G01X18750Y58159D01*
G01X18977Y58477D02*
G01X18977Y58000D01*
G04 Draw part TP8*
G04 draw part outline for part TP8*
G54D13*
G01X15550Y57700D02*
G01X15550Y56300D01*
G01X15550Y56300D02*
G01X16950Y56300D01*
G01X16950Y56300D02*
G01X16950Y57700D01*
G01X16950Y57700D02*
G01X15550Y57700D01*
G04 draw reference designator for part TP8*
G54D12*
G01X15909Y58477D02*
G01X15909Y58000D01*
G01X16068Y58477D02*
G01X15750Y58477D01*
G01X16250Y58477D02*
G01X16250Y58000D01*
G01X16454Y58477D02*
G01X16250Y58477D01*
G01X16454Y58477D02*
G01X16522Y58454D01*
G01X16522Y58454D02*
G01X16545Y58431D01*
G01X16545Y58431D02*
G01X16568Y58386D01*
G01X16568Y58386D02*
G01X16568Y58318D01*
G01X16568Y58318D02*
G01X16545Y58272D01*
G01X16545Y58272D02*
G01X16522Y58250D01*
G01X16522Y58250D02*
G01X16454Y58227D01*
G01X16250Y58227D02*
G01X16454Y58227D01*
G01X16863Y58477D02*
G01X16795Y58454D01*
G01X16795Y58454D02*
G01X16772Y58409D01*
G01X16772Y58409D02*
G01X16772Y58363D01*
G01X16772Y58363D02*
G01X16795Y58318D01*
G01X16795Y58318D02*
G01X16840Y58295D01*
G01X16840Y58295D02*
G01X16931Y58272D01*
G01X16931Y58272D02*
G01X17000Y58250D01*
G01X17000Y58250D02*
G01X17045Y58204D01*
G01X17045Y58204D02*
G01X17068Y58159D01*
G01X17068Y58159D02*
G01X17068Y58090D01*
G01X17068Y58090D02*
G01X17045Y58045D01*
G01X17045Y58045D02*
G01X17022Y58022D01*
G01X17022Y58022D02*
G01X16954Y58000D01*
G01X16863Y58000D02*
G01X16954Y58000D01*
G01X16795Y58022D02*
G01X16863Y58000D01*
G01X16772Y58045D02*
G01X16795Y58022D01*
G01X16750Y58090D02*
G01X16772Y58045D01*
G01X16750Y58159D02*
G01X16750Y58090D01*
G01X16772Y58204D02*
G01X16750Y58159D01*
G01X16818Y58250D02*
G01X16772Y58204D01*
G01X16886Y58272D02*
G01X16818Y58250D01*
G01X16977Y58295D02*
G01X16886Y58272D01*
G01X17022Y58318D02*
G01X16977Y58295D01*
G01X17045Y58363D02*
G01X17022Y58318D01*
G01X17045Y58409D02*
G01X17045Y58363D01*
G01X17022Y58454D02*
G01X17045Y58409D01*
G01X16954Y58477D02*
G01X17022Y58454D01*
G01X16863Y58477D02*
G01X16954Y58477D01*
G04 Draw part TP7*
G04 draw part outline for part TP7*
G54D13*
G01X30550Y48450D02*
G01X30550Y47050D01*
G01X30550Y47050D02*
G01X31950Y47050D01*
G01X31950Y47050D02*
G01X31950Y48450D01*
G01X31950Y48450D02*
G01X30550Y48450D01*
G04 draw reference designator for part TP7*
G54D12*
G01X32659Y48227D02*
G01X32659Y47750D01*
G01X32818Y48227D02*
G01X32500Y48227D01*
G01X33000Y48227D02*
G01X33000Y47750D01*
G01X33204Y48227D02*
G01X33000Y48227D01*
G01X33204Y48227D02*
G01X33272Y48204D01*
G01X33272Y48204D02*
G01X33295Y48181D01*
G01X33295Y48181D02*
G01X33318Y48136D01*
G01X33318Y48136D02*
G01X33318Y48068D01*
G01X33318Y48068D02*
G01X33295Y48022D01*
G01X33295Y48022D02*
G01X33272Y48000D01*
G01X33272Y48000D02*
G01X33204Y47977D01*
G01X33000Y47977D02*
G01X33204Y47977D01*
G01X33818Y48227D02*
G01X33590Y47750D01*
G01X33818Y48227D02*
G01X33500Y48227D01*
G04 Draw part TP9*
G04 draw part outline for part TP9*
G54D13*
G01X7300Y51950D02*
G01X7300Y50550D01*
G01X7300Y50550D02*
G01X8700Y50550D01*
G01X8700Y50550D02*
G01X8700Y51950D01*
G01X8700Y51950D02*
G01X7300Y51950D01*
G04 draw reference designator for part TP9*
G54D12*
G01X7409Y52727D02*
G01X7409Y52250D01*
G01X7568Y52727D02*
G01X7250Y52727D01*
G01X7750Y52727D02*
G01X7750Y52250D01*
G01X7954Y52727D02*
G01X7750Y52727D01*
G01X7954Y52727D02*
G01X8022Y52704D01*
G01X8022Y52704D02*
G01X8045Y52681D01*
G01X8045Y52681D02*
G01X8068Y52636D01*
G01X8068Y52636D02*
G01X8068Y52568D01*
G01X8068Y52568D02*
G01X8045Y52522D01*
G01X8045Y52522D02*
G01X8022Y52500D01*
G01X8022Y52500D02*
G01X7954Y52477D01*
G01X7750Y52477D02*
G01X7954Y52477D01*
G01X8545Y52568D02*
G01X8522Y52500D01*
G01X8522Y52500D02*
G01X8477Y52454D01*
G01X8477Y52454D02*
G01X8409Y52431D01*
G01X8386Y52431D02*
G01X8409Y52431D01*
G01X8318Y52454D02*
G01X8386Y52431D01*
G01X8272Y52500D02*
G01X8318Y52454D01*
G01X8250Y52568D02*
G01X8272Y52500D01*
G01X8250Y52590D02*
G01X8250Y52568D01*
G01X8272Y52659D02*
G01X8250Y52590D01*
G01X8318Y52704D02*
G01X8272Y52659D01*
G01X8386Y52727D02*
G01X8318Y52704D01*
G01X8409Y52727D02*
G01X8386Y52727D01*
G01X8409Y52727D02*
G01X8477Y52704D01*
G01X8477Y52704D02*
G01X8522Y52659D01*
G01X8522Y52659D02*
G01X8545Y52568D01*
G01X8545Y52568D02*
G01X8545Y52454D01*
G01X8545Y52454D02*
G01X8522Y52340D01*
G01X8522Y52340D02*
G01X8477Y52272D01*
G01X8477Y52272D02*
G01X8409Y52250D01*
G01X8363Y52250D02*
G01X8409Y52250D01*
G01X8295Y52272D02*
G01X8363Y52250D01*
G01X8272Y52318D02*
G01X8295Y52272D01*
G04 Draw part TP3*
G04 draw part outline for part TP3*
G54D13*
G01X42800Y29450D02*
G01X42800Y28050D01*
G01X42800Y28050D02*
G01X44200Y28050D01*
G01X44200Y28050D02*
G01X44200Y29450D01*
G01X44200Y29450D02*
G01X42800Y29450D01*
G04 draw reference designator for part TP3*
G54D12*
G01X42659Y30227D02*
G01X42659Y29750D01*
G01X42818Y30227D02*
G01X42500Y30227D01*
G01X43000Y30227D02*
G01X43000Y29750D01*
G01X43204Y30227D02*
G01X43000Y30227D01*
G01X43204Y30227D02*
G01X43272Y30204D01*
G01X43272Y30204D02*
G01X43295Y30181D01*
G01X43295Y30181D02*
G01X43318Y30136D01*
G01X43318Y30136D02*
G01X43318Y30068D01*
G01X43318Y30068D02*
G01X43295Y30022D01*
G01X43295Y30022D02*
G01X43272Y30000D01*
G01X43272Y30000D02*
G01X43204Y29977D01*
G01X43000Y29977D02*
G01X43204Y29977D01*
G01X43795Y30227D02*
G01X43545Y30227D01*
G01X43795Y30227D02*
G01X43659Y30045D01*
G01X43727Y30045D02*
G01X43659Y30045D01*
G01X43727Y30045D02*
G01X43772Y30022D01*
G01X43772Y30022D02*
G01X43795Y30000D01*
G01X43795Y30000D02*
G01X43818Y29931D01*
G01X43818Y29931D02*
G01X43818Y29886D01*
G01X43818Y29886D02*
G01X43795Y29818D01*
G01X43795Y29818D02*
G01X43750Y29772D01*
G01X43750Y29772D02*
G01X43681Y29750D01*
G01X43613Y29750D02*
G01X43681Y29750D01*
G01X43545Y29772D02*
G01X43613Y29750D01*
G01X43522Y29795D02*
G01X43545Y29772D01*
G01X43500Y29840D02*
G01X43522Y29795D01*
G04 Draw part TP6*
G04 draw part outline for part TP6*
G54D13*
G01X30550Y45450D02*
G01X30550Y44050D01*
G01X30550Y44050D02*
G01X31950Y44050D01*
G01X31950Y44050D02*
G01X31950Y45450D01*
G01X31950Y45450D02*
G01X30550Y45450D01*
G04 draw reference designator for part TP6*
G54D12*
G01X32659Y44477D02*
G01X32659Y44000D01*
G01X32818Y44477D02*
G01X32500Y44477D01*
G01X33000Y44477D02*
G01X33000Y44000D01*
G01X33204Y44477D02*
G01X33000Y44477D01*
G01X33204Y44477D02*
G01X33272Y44454D01*
G01X33272Y44454D02*
G01X33295Y44431D01*
G01X33295Y44431D02*
G01X33318Y44386D01*
G01X33318Y44386D02*
G01X33318Y44318D01*
G01X33318Y44318D02*
G01X33295Y44272D01*
G01X33295Y44272D02*
G01X33272Y44250D01*
G01X33272Y44250D02*
G01X33204Y44227D01*
G01X33000Y44227D02*
G01X33204Y44227D01*
G01X33750Y44454D02*
G01X33772Y44409D01*
G01X33681Y44477D02*
G01X33750Y44454D01*
G01X33636Y44477D02*
G01X33681Y44477D01*
G01X33636Y44477D02*
G01X33568Y44454D01*
G01X33568Y44454D02*
G01X33522Y44386D01*
G01X33522Y44386D02*
G01X33500Y44272D01*
G01X33500Y44272D02*
G01X33500Y44159D01*
G01X33500Y44159D02*
G01X33522Y44068D01*
G01X33522Y44068D02*
G01X33568Y44022D01*
G01X33568Y44022D02*
G01X33636Y44000D01*
G01X33659Y44000D02*
G01X33636Y44000D01*
G01X33727Y44022D02*
G01X33659Y44000D01*
G01X33772Y44068D02*
G01X33727Y44022D01*
G01X33795Y44136D02*
G01X33772Y44068D01*
G01X33795Y44159D02*
G01X33795Y44136D01*
G01X33772Y44227D02*
G01X33795Y44159D01*
G01X33727Y44272D02*
G01X33772Y44227D01*
G01X33659Y44295D02*
G01X33727Y44272D01*
G01X33636Y44295D02*
G01X33659Y44295D01*
G01X33636Y44295D02*
G01X33568Y44272D01*
G01X33568Y44272D02*
G01X33522Y44227D01*
G01X33522Y44227D02*
G01X33500Y44159D01*
G04 Draw part TP5*
G04 draw part outline for part TP5*
G54D13*
G01X35800Y29700D02*
G01X35800Y28300D01*
G01X35800Y28300D02*
G01X37200Y28300D01*
G01X37200Y28300D02*
G01X37200Y29700D01*
G01X37200Y29700D02*
G01X35800Y29700D01*
G04 draw reference designator for part TP5*
G54D12*
G01X35909Y30477D02*
G01X35909Y30000D01*
G01X36068Y30477D02*
G01X35750Y30477D01*
G01X36250Y30477D02*
G01X36250Y30000D01*
G01X36454Y30477D02*
G01X36250Y30477D01*
G01X36454Y30477D02*
G01X36522Y30454D01*
G01X36522Y30454D02*
G01X36545Y30431D01*
G01X36545Y30431D02*
G01X36568Y30386D01*
G01X36568Y30386D02*
G01X36568Y30318D01*
G01X36568Y30318D02*
G01X36545Y30272D01*
G01X36545Y30272D02*
G01X36522Y30250D01*
G01X36522Y30250D02*
G01X36454Y30227D01*
G01X36250Y30227D02*
G01X36454Y30227D01*
G01X36795Y30477D02*
G01X37022Y30477D01*
G01X36795Y30477D02*
G01X36772Y30272D01*
G01X36795Y30295D02*
G01X36772Y30272D01*
G01X36863Y30318D02*
G01X36795Y30295D01*
G01X36931Y30318D02*
G01X36863Y30318D01*
G01X36931Y30318D02*
G01X37000Y30295D01*
G01X37000Y30295D02*
G01X37045Y30250D01*
G01X37045Y30250D02*
G01X37068Y30181D01*
G01X37068Y30181D02*
G01X37068Y30136D01*
G01X37068Y30136D02*
G01X37045Y30068D01*
G01X37045Y30068D02*
G01X37000Y30022D01*
G01X37000Y30022D02*
G01X36931Y30000D01*
G01X36863Y30000D02*
G01X36931Y30000D01*
G01X36795Y30022D02*
G01X36863Y30000D01*
G01X36772Y30045D02*
G01X36795Y30022D01*
G01X36750Y30090D02*
G01X36772Y30045D01*
G04 Draw part TP1*
G04 draw part outline for part TP1*
G54D13*
G01X4800Y49450D02*
G01X4800Y48050D01*
G01X4800Y48050D02*
G01X6200Y48050D01*
G01X6200Y48050D02*
G01X6200Y49450D01*
G01X6200Y49450D02*
G01X4800Y49450D01*
G04 draw reference designator for part TP1*
G54D12*
G01X4909Y50227D02*
G01X4909Y49750D01*
G01X5068Y50227D02*
G01X4750Y50227D01*
G01X5250Y50227D02*
G01X5250Y49750D01*
G01X5454Y50227D02*
G01X5250Y50227D01*
G01X5454Y50227D02*
G01X5522Y50204D01*
G01X5522Y50204D02*
G01X5545Y50181D01*
G01X5545Y50181D02*
G01X5568Y50136D01*
G01X5568Y50136D02*
G01X5568Y50068D01*
G01X5568Y50068D02*
G01X5545Y50022D01*
G01X5545Y50022D02*
G01X5522Y50000D01*
G01X5522Y50000D02*
G01X5454Y49977D01*
G01X5250Y49977D02*
G01X5454Y49977D01*
G01X5795Y50159D02*
G01X5750Y50136D01*
G01X5863Y50227D02*
G01X5795Y50159D01*
G01X5863Y50227D02*
G01X5863Y49750D01*
G04 Draw part TP10*
G04 draw part outline for part TP10*
G54D13*
G01X16300Y43200D02*
G01X16300Y41800D01*
G01X16300Y41800D02*
G01X17700Y41800D01*
G01X17700Y41800D02*
G01X17700Y43200D01*
G01X17700Y43200D02*
G01X16300Y43200D01*
G04 draw reference designator for part TP10*
G54D12*
G01X16159Y43977D02*
G01X16159Y43500D01*
G01X16318Y43977D02*
G01X16000Y43977D01*
G01X16500Y43977D02*
G01X16500Y43500D01*
G01X16704Y43977D02*
G01X16500Y43977D01*
G01X16704Y43977D02*
G01X16772Y43954D01*
G01X16772Y43954D02*
G01X16795Y43931D01*
G01X16795Y43931D02*
G01X16818Y43886D01*
G01X16818Y43886D02*
G01X16818Y43818D01*
G01X16818Y43818D02*
G01X16795Y43772D01*
G01X16795Y43772D02*
G01X16772Y43750D01*
G01X16772Y43750D02*
G01X16704Y43727D01*
G01X16500Y43727D02*
G01X16704Y43727D01*
G01X17045Y43909D02*
G01X17000Y43886D01*
G01X17113Y43977D02*
G01X17045Y43909D01*
G01X17113Y43977D02*
G01X17113Y43500D01*
G01X17431Y43977D02*
G01X17363Y43954D01*
G01X17363Y43954D02*
G01X17318Y43886D01*
G01X17318Y43886D02*
G01X17295Y43772D01*
G01X17295Y43772D02*
G01X17295Y43704D01*
G01X17295Y43704D02*
G01X17318Y43590D01*
G01X17318Y43590D02*
G01X17363Y43522D01*
G01X17363Y43522D02*
G01X17431Y43500D01*
G01X17477Y43500D02*
G01X17431Y43500D01*
G01X17545Y43522D02*
G01X17477Y43500D01*
G01X17590Y43590D02*
G01X17545Y43522D01*
G01X17613Y43704D02*
G01X17590Y43590D01*
G01X17613Y43772D02*
G01X17613Y43704D01*
G01X17590Y43886D02*
G01X17613Y43772D01*
G01X17545Y43954D02*
G01X17590Y43886D01*
G01X17477Y43977D02*
G01X17545Y43954D01*
G01X17431Y43977D02*
G01X17477Y43977D01*
G04 Draw part TP11*
G04 draw part outline for part TP11*
G54D13*
G01X19550Y57700D02*
G01X19550Y56300D01*
G01X19550Y56300D02*
G01X20950Y56300D01*
G01X20950Y56300D02*
G01X20950Y57700D01*
G01X20950Y57700D02*
G01X19550Y57700D01*
G04 draw reference designator for part TP11*
G54D12*
G01X19909Y58477D02*
G01X19909Y58000D01*
G01X20068Y58477D02*
G01X19750Y58477D01*
G01X20250Y58477D02*
G01X20250Y58000D01*
G01X20454Y58477D02*
G01X20250Y58477D01*
G01X20454Y58477D02*
G01X20522Y58454D01*
G01X20522Y58454D02*
G01X20545Y58431D01*
G01X20545Y58431D02*
G01X20568Y58386D01*
G01X20568Y58386D02*
G01X20568Y58318D01*
G01X20568Y58318D02*
G01X20545Y58272D01*
G01X20545Y58272D02*
G01X20522Y58250D01*
G01X20522Y58250D02*
G01X20454Y58227D01*
G01X20250Y58227D02*
G01X20454Y58227D01*
G01X20795Y58409D02*
G01X20750Y58386D01*
G01X20863Y58477D02*
G01X20795Y58409D01*
G01X20863Y58477D02*
G01X20863Y58000D01*
G01X21090Y58409D02*
G01X21045Y58386D01*
G01X21159Y58477D02*
G01X21090Y58409D01*
G01X21159Y58477D02*
G01X21159Y58000D01*
G04 Draw part TP13*
G04 draw part outline for part TP13*
G54D13*
G01X54300Y56450D02*
G01X54300Y55050D01*
G01X54300Y55050D02*
G01X55700Y55050D01*
G01X55700Y55050D02*
G01X55700Y56450D01*
G01X55700Y56450D02*
G01X54300Y56450D01*
G04 draw reference designator for part TP13*
G54D12*
G01X54409Y57227D02*
G01X54409Y56750D01*
G01X54568Y57227D02*
G01X54250Y57227D01*
G01X54750Y57227D02*
G01X54750Y56750D01*
G01X54954Y57227D02*
G01X54750Y57227D01*
G01X54954Y57227D02*
G01X55022Y57204D01*
G01X55022Y57204D02*
G01X55045Y57181D01*
G01X55045Y57181D02*
G01X55068Y57136D01*
G01X55068Y57136D02*
G01X55068Y57068D01*
G01X55068Y57068D02*
G01X55045Y57022D01*
G01X55045Y57022D02*
G01X55022Y57000D01*
G01X55022Y57000D02*
G01X54954Y56977D01*
G01X54750Y56977D02*
G01X54954Y56977D01*
G01X55295Y57159D02*
G01X55250Y57136D01*
G01X55363Y57227D02*
G01X55295Y57159D01*
G01X55363Y57227D02*
G01X55363Y56750D01*
G01X55840Y57227D02*
G01X55590Y57227D01*
G01X55840Y57227D02*
G01X55704Y57045D01*
G01X55772Y57045D02*
G01X55704Y57045D01*
G01X55772Y57045D02*
G01X55818Y57022D01*
G01X55818Y57022D02*
G01X55840Y57000D01*
G01X55840Y57000D02*
G01X55863Y56931D01*
G01X55863Y56931D02*
G01X55863Y56886D01*
G01X55863Y56886D02*
G01X55840Y56818D01*
G01X55840Y56818D02*
G01X55795Y56772D01*
G01X55795Y56772D02*
G01X55727Y56750D01*
G01X55659Y56750D02*
G01X55727Y56750D01*
G01X55590Y56772D02*
G01X55659Y56750D01*
G01X55568Y56795D02*
G01X55590Y56772D01*
G01X55545Y56840D02*
G01X55568Y56795D01*
G04 Draw part TP15*
G04 draw part outline for part TP15*
G54D13*
G01X12050Y34200D02*
G01X12050Y32800D01*
G01X12050Y32800D02*
G01X13450Y32800D01*
G01X13450Y32800D02*
G01X13450Y34200D01*
G01X13450Y34200D02*
G01X12050Y34200D01*
G04 draw reference designator for part TP15*
G54D12*
G01X13909Y34227D02*
G01X13909Y33750D01*
G01X14068Y34227D02*
G01X13750Y34227D01*
G01X14250Y34227D02*
G01X14250Y33750D01*
G01X14454Y34227D02*
G01X14250Y34227D01*
G01X14454Y34227D02*
G01X14522Y34204D01*
G01X14522Y34204D02*
G01X14545Y34181D01*
G01X14545Y34181D02*
G01X14568Y34136D01*
G01X14568Y34136D02*
G01X14568Y34068D01*
G01X14568Y34068D02*
G01X14545Y34022D01*
G01X14545Y34022D02*
G01X14522Y34000D01*
G01X14522Y34000D02*
G01X14454Y33977D01*
G01X14250Y33977D02*
G01X14454Y33977D01*
G01X14795Y34159D02*
G01X14750Y34136D01*
G01X14863Y34227D02*
G01X14795Y34159D01*
G01X14863Y34227D02*
G01X14863Y33750D01*
G01X15090Y34227D02*
G01X15318Y34227D01*
G01X15090Y34227D02*
G01X15068Y34022D01*
G01X15090Y34045D02*
G01X15068Y34022D01*
G01X15159Y34068D02*
G01X15090Y34045D01*
G01X15227Y34068D02*
G01X15159Y34068D01*
G01X15227Y34068D02*
G01X15295Y34045D01*
G01X15295Y34045D02*
G01X15340Y34000D01*
G01X15340Y34000D02*
G01X15363Y33931D01*
G01X15363Y33931D02*
G01X15363Y33886D01*
G01X15363Y33886D02*
G01X15340Y33818D01*
G01X15340Y33818D02*
G01X15295Y33772D01*
G01X15295Y33772D02*
G01X15227Y33750D01*
G01X15159Y33750D02*
G01X15227Y33750D01*
G01X15090Y33772D02*
G01X15159Y33750D01*
G01X15068Y33795D02*
G01X15090Y33772D01*
G01X15045Y33840D02*
G01X15068Y33795D01*
G04 Draw part TP17*
G04 draw part outline for part TP17*
G54D13*
G01X12050Y36200D02*
G01X12050Y34800D01*
G01X12050Y34800D02*
G01X13450Y34800D01*
G01X13450Y34800D02*
G01X13450Y36200D01*
G01X13450Y36200D02*
G01X12050Y36200D01*
G04 draw reference designator for part TP17*
G54D12*
G01X13909Y36227D02*
G01X13909Y35750D01*
G01X14068Y36227D02*
G01X13750Y36227D01*
G01X14250Y36227D02*
G01X14250Y35750D01*
G01X14454Y36227D02*
G01X14250Y36227D01*
G01X14454Y36227D02*
G01X14522Y36204D01*
G01X14522Y36204D02*
G01X14545Y36181D01*
G01X14545Y36181D02*
G01X14568Y36136D01*
G01X14568Y36136D02*
G01X14568Y36068D01*
G01X14568Y36068D02*
G01X14545Y36022D01*
G01X14545Y36022D02*
G01X14522Y36000D01*
G01X14522Y36000D02*
G01X14454Y35977D01*
G01X14250Y35977D02*
G01X14454Y35977D01*
G01X14795Y36159D02*
G01X14750Y36136D01*
G01X14863Y36227D02*
G01X14795Y36159D01*
G01X14863Y36227D02*
G01X14863Y35750D01*
G01X15363Y36227D02*
G01X15136Y35750D01*
G01X15363Y36227D02*
G01X15045Y36227D01*
G04 Draw part TP12*
G04 draw part outline for part TP12*
G54D13*
G01X21550Y57700D02*
G01X21550Y56300D01*
G01X21550Y56300D02*
G01X22950Y56300D01*
G01X22950Y56300D02*
G01X22950Y57700D01*
G01X22950Y57700D02*
G01X21550Y57700D01*
G04 draw reference designator for part TP12*
G54D12*
G01X21909Y58477D02*
G01X21909Y58000D01*
G01X22068Y58477D02*
G01X21750Y58477D01*
G01X22250Y58477D02*
G01X22250Y58000D01*
G01X22454Y58477D02*
G01X22250Y58477D01*
G01X22454Y58477D02*
G01X22522Y58454D01*
G01X22522Y58454D02*
G01X22545Y58431D01*
G01X22545Y58431D02*
G01X22568Y58386D01*
G01X22568Y58386D02*
G01X22568Y58318D01*
G01X22568Y58318D02*
G01X22545Y58272D01*
G01X22545Y58272D02*
G01X22522Y58250D01*
G01X22522Y58250D02*
G01X22454Y58227D01*
G01X22250Y58227D02*
G01X22454Y58227D01*
G01X22795Y58409D02*
G01X22750Y58386D01*
G01X22863Y58477D02*
G01X22795Y58409D01*
G01X22863Y58477D02*
G01X22863Y58000D01*
G01X23068Y58386D02*
G01X23068Y58363D01*
G01X23090Y58431D02*
G01X23068Y58386D01*
G01X23113Y58454D02*
G01X23090Y58431D01*
G01X23159Y58477D02*
G01X23113Y58454D01*
G01X23250Y58477D02*
G01X23159Y58477D01*
G01X23250Y58477D02*
G01X23295Y58454D01*
G01X23295Y58454D02*
G01X23318Y58431D01*
G01X23318Y58431D02*
G01X23340Y58386D01*
G01X23340Y58386D02*
G01X23340Y58340D01*
G01X23340Y58340D02*
G01X23318Y58295D01*
G01X23318Y58295D02*
G01X23272Y58227D01*
G01X23272Y58227D02*
G01X23045Y58000D01*
G01X23363Y58000D02*
G01X23045Y58000D01*
G04 Draw part TP14*
G04 draw part outline for part TP14*
G54D13*
G01X34200Y55050D02*
G01X34200Y56450D01*
G01X34200Y56450D02*
G01X32800Y56450D01*
G01X32800Y56450D02*
G01X32800Y55050D01*
G01X32800Y55050D02*
G01X34200Y55050D01*
G04 draw reference designator for part TP14*
G54D12*
G01X34659Y56477D02*
G01X34659Y56000D01*
G01X34818Y56477D02*
G01X34500Y56477D01*
G01X35000Y56477D02*
G01X35000Y56000D01*
G01X35204Y56477D02*
G01X35000Y56477D01*
G01X35204Y56477D02*
G01X35272Y56454D01*
G01X35272Y56454D02*
G01X35295Y56431D01*
G01X35295Y56431D02*
G01X35318Y56386D01*
G01X35318Y56386D02*
G01X35318Y56318D01*
G01X35318Y56318D02*
G01X35295Y56272D01*
G01X35295Y56272D02*
G01X35272Y56250D01*
G01X35272Y56250D02*
G01X35204Y56227D01*
G01X35000Y56227D02*
G01X35204Y56227D01*
G01X35545Y56409D02*
G01X35500Y56386D01*
G01X35613Y56477D02*
G01X35545Y56409D01*
G01X35613Y56477D02*
G01X35613Y56000D01*
G01X36022Y56477D02*
G01X35795Y56159D01*
G01X36136Y56159D02*
G01X35795Y56159D01*
G01X36022Y56477D02*
G01X36022Y56000D01*
G04 Draw part TP16*
G04 draw part outline for part TP16*
G54D13*
G01X8050Y30700D02*
G01X8050Y29300D01*
G01X8050Y29300D02*
G01X9450Y29300D01*
G01X9450Y29300D02*
G01X9450Y30700D01*
G01X9450Y30700D02*
G01X8050Y30700D01*
G04 draw reference designator for part TP16*
G54D12*
G01X8409Y28977D02*
G01X8409Y28500D01*
G01X8568Y28977D02*
G01X8250Y28977D01*
G01X8750Y28977D02*
G01X8750Y28500D01*
G01X8954Y28977D02*
G01X8750Y28977D01*
G01X8954Y28977D02*
G01X9022Y28954D01*
G01X9022Y28954D02*
G01X9045Y28931D01*
G01X9045Y28931D02*
G01X9068Y28886D01*
G01X9068Y28886D02*
G01X9068Y28818D01*
G01X9068Y28818D02*
G01X9045Y28772D01*
G01X9045Y28772D02*
G01X9022Y28750D01*
G01X9022Y28750D02*
G01X8954Y28727D01*
G01X8750Y28727D02*
G01X8954Y28727D01*
G01X9295Y28909D02*
G01X9250Y28886D01*
G01X9363Y28977D02*
G01X9295Y28909D01*
G01X9363Y28977D02*
G01X9363Y28500D01*
G01X9795Y28954D02*
G01X9818Y28909D01*
G01X9727Y28977D02*
G01X9795Y28954D01*
G01X9681Y28977D02*
G01X9727Y28977D01*
G01X9681Y28977D02*
G01X9613Y28954D01*
G01X9613Y28954D02*
G01X9568Y28886D01*
G01X9568Y28886D02*
G01X9545Y28772D01*
G01X9545Y28772D02*
G01X9545Y28659D01*
G01X9545Y28659D02*
G01X9568Y28568D01*
G01X9568Y28568D02*
G01X9613Y28522D01*
G01X9613Y28522D02*
G01X9681Y28500D01*
G01X9704Y28500D02*
G01X9681Y28500D01*
G01X9772Y28522D02*
G01X9704Y28500D01*
G01X9818Y28568D02*
G01X9772Y28522D01*
G01X9840Y28636D02*
G01X9818Y28568D01*
G01X9840Y28659D02*
G01X9840Y28636D01*
G01X9818Y28727D02*
G01X9840Y28659D01*
G01X9772Y28772D02*
G01X9818Y28727D01*
G01X9704Y28795D02*
G01X9772Y28772D01*
G01X9681Y28795D02*
G01X9704Y28795D01*
G01X9681Y28795D02*
G01X9613Y28772D01*
G01X9613Y28772D02*
G01X9568Y28727D01*
G01X9568Y28727D02*
G01X9545Y28659D01*
G04 Draw part U3*
G04 draw part outline for part U3*
G54D13*
G01X52750Y54500D02*
G01X46500Y54500D01*
G01X46500Y54500D02*
G01X46500Y30500D01*
G01X46500Y30500D02*
G01X59000Y30500D01*
G01X59000Y30500D02*
G01X59000Y54500D01*
G01X59000Y54500D02*
G01X52750Y54500D01*
G04 draw reference designator for part U3*
G01X46545Y55500D02*
G01X47227Y55500D01*
G01X47227Y55500D02*
G01X47363Y55545D01*
G01X47363Y55545D02*
G01X47454Y55636D01*
G01X47454Y55636D02*
G01X47500Y55772D01*
G01X47500Y55863D02*
G01X47500Y55772D01*
G01X47454Y56000D02*
G01X47500Y55863D01*
G01X47363Y56090D02*
G01X47454Y56000D01*
G01X47227Y56136D02*
G01X47363Y56090D01*
G01X46545Y56136D02*
G01X47227Y56136D01*
G01X46545Y57090D02*
G01X46545Y56590D01*
G01X46545Y57090D02*
G01X46909Y56818D01*
G01X46909Y56954D02*
G01X46909Y56818D01*
G01X46909Y56954D02*
G01X46954Y57045D01*
G01X46954Y57045D02*
G01X47000Y57090D01*
G01X47000Y57090D02*
G01X47136Y57136D01*
G01X47136Y57136D02*
G01X47227Y57136D01*
G01X47227Y57136D02*
G01X47363Y57090D01*
G01X47363Y57090D02*
G01X47454Y57000D01*
G01X47454Y57000D02*
G01X47500Y56863D01*
G01X47500Y56727D02*
G01X47500Y56863D01*
G01X47454Y56590D02*
G01X47500Y56727D01*
G01X47409Y56545D02*
G01X47454Y56590D01*
G01X47318Y56500D02*
G01X47409Y56545D01*
G04 Draw part D2*
G04 draw part outline for part D2*
G54D12*
G01X40290Y41890D02*
G01X40329Y41890D01*
G01X40368Y41893D01*
G01X40407Y41898D01*
G01X40446Y41904D01*
G01X40484Y41912D01*
G01X40522Y41922D01*
G01X40560Y41934D01*
G01X40597Y41947D01*
G01X40633Y41962D01*
G01X40668Y41979D01*
G01X40703Y41997D01*
G01X40737Y42017D01*
G01X40770Y42038D01*
G01X40802Y42061D01*
G01X40833Y42086D01*
G01X40862Y42111D01*
G01X40891Y42138D01*
G01X40918Y42167D01*
G01X40943Y42196D01*
G01X40968Y42227D01*
G01X40991Y42259D01*
G01X41012Y42292D01*
G01X41032Y42326D01*
G01X41050Y42361D01*
G01X41067Y42396D01*
G01X41082Y42432D01*
G01X41095Y42469D01*
G01X41107Y42507D01*
G01X41117Y42545D01*
G01X41125Y42583D01*
G01X41131Y42622D01*
G01X41136Y42661D01*
G01X41139Y42700D01*
G01X41140Y42740D01*
G01X39440Y42740D02*
G01X39440Y42700D01*
G01X39443Y42661D01*
G01X39448Y42622D01*
G01X39454Y42583D01*
G01X39462Y42545D01*
G01X39472Y42507D01*
G01X39484Y42469D01*
G01X39497Y42432D01*
G01X39512Y42396D01*
G01X39529Y42361D01*
G01X39547Y42326D01*
G01X39567Y42292D01*
G01X39588Y42259D01*
G01X39611Y42227D01*
G01X39636Y42196D01*
G01X39661Y42167D01*
G01X39688Y42138D01*
G01X39717Y42111D01*
G01X39746Y42086D01*
G01X39777Y42061D01*
G01X39809Y42038D01*
G01X39842Y42017D01*
G01X39876Y41997D01*
G01X39911Y41979D01*
G01X39946Y41962D01*
G01X39982Y41947D01*
G01X40019Y41934D01*
G01X40057Y41922D01*
G01X40095Y41912D01*
G01X40133Y41904D01*
G01X40172Y41898D01*
G01X40211Y41893D01*
G01X40250Y41890D01*
G01X40290Y41890D01*
G01X41140Y42740D02*
G01X41139Y42779D01*
G01X41136Y42818D01*
G01X41131Y42857D01*
G01X41125Y42896D01*
G01X41117Y42934D01*
G01X41107Y42972D01*
G01X41095Y43010D01*
G01X41082Y43047D01*
G01X41067Y43083D01*
G01X41050Y43118D01*
G01X41032Y43153D01*
G01X41012Y43187D01*
G01X40991Y43220D01*
G01X40968Y43252D01*
G01X40943Y43283D01*
G01X40918Y43312D01*
G01X40891Y43341D01*
G01X40862Y43368D01*
G01X40833Y43393D01*
G01X40802Y43418D01*
G01X40770Y43441D01*
G01X40737Y43462D01*
G01X40703Y43482D01*
G01X40668Y43500D01*
G01X40633Y43517D01*
G01X40597Y43532D01*
G01X40560Y43545D01*
G01X40522Y43557D01*
G01X40484Y43567D01*
G01X40446Y43575D01*
G01X40407Y43581D01*
G01X40368Y43586D01*
G01X40329Y43589D01*
G01X40290Y43590D01*
G01X40290Y43590D02*
G01X39440Y42740D01*
G04 draw reference designator for part D2*
G01X39272Y41000D02*
G01X39750Y41000D01*
G01X39272Y41159D02*
G01X39272Y41000D01*
G01X39272Y41159D02*
G01X39295Y41227D01*
G01X39295Y41227D02*
G01X39340Y41272D01*
G01X39340Y41272D02*
G01X39386Y41295D01*
G01X39386Y41295D02*
G01X39454Y41318D01*
G01X39454Y41318D02*
G01X39568Y41318D01*
G01X39568Y41318D02*
G01X39636Y41295D01*
G01X39636Y41295D02*
G01X39681Y41272D01*
G01X39681Y41272D02*
G01X39727Y41227D01*
G01X39727Y41227D02*
G01X39750Y41159D01*
G01X39750Y41000D02*
G01X39750Y41159D01*
G01X39363Y41522D02*
G01X39386Y41522D01*
G01X39318Y41545D02*
G01X39363Y41522D01*
G01X39295Y41568D02*
G01X39318Y41545D01*
G01X39272Y41613D02*
G01X39295Y41568D01*
G01X39272Y41704D02*
G01X39272Y41613D01*
G01X39272Y41704D02*
G01X39295Y41750D01*
G01X39295Y41750D02*
G01X39318Y41772D01*
G01X39318Y41772D02*
G01X39363Y41795D01*
G01X39363Y41795D02*
G01X39409Y41795D01*
G01X39409Y41795D02*
G01X39454Y41772D01*
G01X39454Y41772D02*
G01X39522Y41727D01*
G01X39522Y41727D02*
G01X39750Y41500D01*
G01X39750Y41818D02*
G01X39750Y41500D01*
G04 Draw part D3*
G04 draw part outline for part D3*
G01X41360Y54540D02*
G01X41359Y54579D01*
G01X41356Y54618D01*
G01X41351Y54657D01*
G01X41345Y54696D01*
G01X41337Y54734D01*
G01X41327Y54772D01*
G01X41315Y54810D01*
G01X41302Y54847D01*
G01X41287Y54883D01*
G01X41270Y54918D01*
G01X41252Y54953D01*
G01X41232Y54987D01*
G01X41211Y55020D01*
G01X41188Y55052D01*
G01X41163Y55083D01*
G01X41138Y55112D01*
G01X41111Y55141D01*
G01X41082Y55168D01*
G01X41053Y55193D01*
G01X41022Y55218D01*
G01X40990Y55241D01*
G01X40957Y55262D01*
G01X40923Y55282D01*
G01X40888Y55300D01*
G01X40853Y55317D01*
G01X40817Y55332D01*
G01X40780Y55345D01*
G01X40742Y55357D01*
G01X40704Y55367D01*
G01X40666Y55375D01*
G01X40627Y55381D01*
G01X40588Y55386D01*
G01X40549Y55389D01*
G01X40510Y55390D01*
G01X40510Y53690D02*
G01X40549Y53690D01*
G01X40588Y53693D01*
G01X40627Y53698D01*
G01X40666Y53704D01*
G01X40704Y53712D01*
G01X40742Y53722D01*
G01X40780Y53734D01*
G01X40817Y53747D01*
G01X40853Y53762D01*
G01X40888Y53779D01*
G01X40923Y53797D01*
G01X40957Y53817D01*
G01X40990Y53838D01*
G01X41022Y53861D01*
G01X41053Y53886D01*
G01X41082Y53911D01*
G01X41111Y53938D01*
G01X41138Y53967D01*
G01X41163Y53996D01*
G01X41188Y54027D01*
G01X41211Y54059D01*
G01X41232Y54092D01*
G01X41252Y54126D01*
G01X41270Y54161D01*
G01X41287Y54196D01*
G01X41302Y54232D01*
G01X41315Y54269D01*
G01X41327Y54307D01*
G01X41337Y54345D01*
G01X41345Y54383D01*
G01X41351Y54422D01*
G01X41356Y54461D01*
G01X41359Y54500D01*
G01X41360Y54540D01*
G01X40510Y55390D02*
G01X40470Y55389D01*
G01X40431Y55386D01*
G01X40392Y55381D01*
G01X40353Y55375D01*
G01X40315Y55367D01*
G01X40277Y55357D01*
G01X40239Y55345D01*
G01X40202Y55332D01*
G01X40166Y55317D01*
G01X40131Y55300D01*
G01X40096Y55282D01*
G01X40062Y55262D01*
G01X40029Y55241D01*
G01X39997Y55218D01*
G01X39966Y55193D01*
G01X39937Y55168D01*
G01X39908Y55141D01*
G01X39881Y55112D01*
G01X39856Y55083D01*
G01X39831Y55052D01*
G01X39808Y55020D01*
G01X39787Y54987D01*
G01X39767Y54953D01*
G01X39749Y54918D01*
G01X39732Y54883D01*
G01X39717Y54847D01*
G01X39704Y54810D01*
G01X39692Y54772D01*
G01X39682Y54734D01*
G01X39674Y54696D01*
G01X39668Y54657D01*
G01X39663Y54618D01*
G01X39660Y54579D01*
G01X39660Y54540D01*
G01X39660Y54540D02*
G01X40510Y53690D01*
G04 draw reference designator for part D3*
G01X40122Y56050D02*
G01X40600Y56050D01*
G01X40122Y56209D02*
G01X40122Y56050D01*
G01X40122Y56209D02*
G01X40145Y56277D01*
G01X40145Y56277D02*
G01X40190Y56322D01*
G01X40190Y56322D02*
G01X40236Y56345D01*
G01X40236Y56345D02*
G01X40304Y56368D01*
G01X40304Y56368D02*
G01X40418Y56368D01*
G01X40418Y56368D02*
G01X40486Y56345D01*
G01X40486Y56345D02*
G01X40531Y56322D01*
G01X40531Y56322D02*
G01X40577Y56277D01*
G01X40577Y56277D02*
G01X40600Y56209D01*
G01X40600Y56050D02*
G01X40600Y56209D01*
G01X40122Y56845D02*
G01X40122Y56595D01*
G01X40122Y56845D02*
G01X40304Y56709D01*
G01X40304Y56777D02*
G01X40304Y56709D01*
G01X40304Y56777D02*
G01X40327Y56822D01*
G01X40327Y56822D02*
G01X40350Y56845D01*
G01X40350Y56845D02*
G01X40418Y56868D01*
G01X40418Y56868D02*
G01X40463Y56868D01*
G01X40463Y56868D02*
G01X40531Y56845D01*
G01X40531Y56845D02*
G01X40577Y56800D01*
G01X40577Y56800D02*
G01X40600Y56731D01*
G01X40600Y56663D02*
G01X40600Y56731D01*
G01X40577Y56595D02*
G01X40600Y56663D01*
G01X40554Y56572D02*
G01X40577Y56595D01*
G01X40509Y56550D02*
G01X40554Y56572D01*
G04 Draw part H4*
G04 draw part outline for part H4*
G04 draw reference designator for part H4*
G01X3772Y31500D02*
G01X4250Y31500D01*
G01X3772Y31818D02*
G01X4250Y31818D01*
G01X4000Y31818D02*
G01X4000Y31500D01*
G01X3772Y32227D02*
G01X4090Y32000D01*
G01X4090Y32340D02*
G01X4090Y32000D01*
G01X3772Y32227D02*
G01X4250Y32227D01*
G04 Draw part TP19*
G04 draw part outline for part TP19*
G54D13*
G01X12050Y38200D02*
G01X12050Y36800D01*
G01X12050Y36800D02*
G01X13450Y36800D01*
G01X13450Y36800D02*
G01X13450Y38200D01*
G01X13450Y38200D02*
G01X12050Y38200D01*
G04 draw reference designator for part TP19*
G54D12*
G01X13909Y38227D02*
G01X13909Y37750D01*
G01X14068Y38227D02*
G01X13750Y38227D01*
G01X14250Y38227D02*
G01X14250Y37750D01*
G01X14454Y38227D02*
G01X14250Y38227D01*
G01X14454Y38227D02*
G01X14522Y38204D01*
G01X14522Y38204D02*
G01X14545Y38181D01*
G01X14545Y38181D02*
G01X14568Y38136D01*
G01X14568Y38136D02*
G01X14568Y38068D01*
G01X14568Y38068D02*
G01X14545Y38022D01*
G01X14545Y38022D02*
G01X14522Y38000D01*
G01X14522Y38000D02*
G01X14454Y37977D01*
G01X14250Y37977D02*
G01X14454Y37977D01*
G01X14795Y38159D02*
G01X14750Y38136D01*
G01X14863Y38227D02*
G01X14795Y38159D01*
G01X14863Y38227D02*
G01X14863Y37750D01*
G01X15340Y38068D02*
G01X15318Y38000D01*
G01X15318Y38000D02*
G01X15272Y37954D01*
G01X15272Y37954D02*
G01X15204Y37931D01*
G01X15181Y37931D02*
G01X15204Y37931D01*
G01X15113Y37954D02*
G01X15181Y37931D01*
G01X15068Y38000D02*
G01X15113Y37954D01*
G01X15045Y38068D02*
G01X15068Y38000D01*
G01X15045Y38090D02*
G01X15045Y38068D01*
G01X15068Y38159D02*
G01X15045Y38090D01*
G01X15113Y38204D02*
G01X15068Y38159D01*
G01X15181Y38227D02*
G01X15113Y38204D01*
G01X15204Y38227D02*
G01X15181Y38227D01*
G01X15204Y38227D02*
G01X15272Y38204D01*
G01X15272Y38204D02*
G01X15318Y38159D01*
G01X15318Y38159D02*
G01X15340Y38068D01*
G01X15340Y38068D02*
G01X15340Y37954D01*
G01X15340Y37954D02*
G01X15318Y37840D01*
G01X15318Y37840D02*
G01X15272Y37772D01*
G01X15272Y37772D02*
G01X15204Y37750D01*
G01X15159Y37750D02*
G01X15204Y37750D01*
G01X15090Y37772D02*
G01X15159Y37750D01*
G01X15068Y37818D02*
G01X15090Y37772D01*
G04 Draw part TP18*
G04 draw part outline for part TP18*
G54D13*
G01X11050Y30700D02*
G01X11050Y29300D01*
G01X11050Y29300D02*
G01X12450Y29300D01*
G01X12450Y29300D02*
G01X12450Y30700D01*
G01X12450Y30700D02*
G01X11050Y30700D01*
G04 draw reference designator for part TP18*
G54D12*
G01X11409Y28977D02*
G01X11409Y28500D01*
G01X11568Y28977D02*
G01X11250Y28977D01*
G01X11750Y28977D02*
G01X11750Y28500D01*
G01X11954Y28977D02*
G01X11750Y28977D01*
G01X11954Y28977D02*
G01X12022Y28954D01*
G01X12022Y28954D02*
G01X12045Y28931D01*
G01X12045Y28931D02*
G01X12068Y28886D01*
G01X12068Y28886D02*
G01X12068Y28818D01*
G01X12068Y28818D02*
G01X12045Y28772D01*
G01X12045Y28772D02*
G01X12022Y28750D01*
G01X12022Y28750D02*
G01X11954Y28727D01*
G01X11750Y28727D02*
G01X11954Y28727D01*
G01X12295Y28909D02*
G01X12250Y28886D01*
G01X12363Y28977D02*
G01X12295Y28909D01*
G01X12363Y28977D02*
G01X12363Y28500D01*
G01X12659Y28977D02*
G01X12590Y28954D01*
G01X12590Y28954D02*
G01X12568Y28909D01*
G01X12568Y28909D02*
G01X12568Y28863D01*
G01X12568Y28863D02*
G01X12590Y28818D01*
G01X12590Y28818D02*
G01X12636Y28795D01*
G01X12636Y28795D02*
G01X12727Y28772D01*
G01X12727Y28772D02*
G01X12795Y28750D01*
G01X12795Y28750D02*
G01X12840Y28704D01*
G01X12840Y28704D02*
G01X12863Y28659D01*
G01X12863Y28659D02*
G01X12863Y28590D01*
G01X12863Y28590D02*
G01X12840Y28545D01*
G01X12840Y28545D02*
G01X12818Y28522D01*
G01X12818Y28522D02*
G01X12750Y28500D01*
G01X12659Y28500D02*
G01X12750Y28500D01*
G01X12590Y28522D02*
G01X12659Y28500D01*
G01X12568Y28545D02*
G01X12590Y28522D01*
G01X12545Y28590D02*
G01X12568Y28545D01*
G01X12545Y28659D02*
G01X12545Y28590D01*
G01X12568Y28704D02*
G01X12545Y28659D01*
G01X12613Y28750D02*
G01X12568Y28704D01*
G01X12681Y28772D02*
G01X12613Y28750D01*
G01X12772Y28795D02*
G01X12681Y28772D01*
G01X12818Y28818D02*
G01X12772Y28795D01*
G01X12840Y28863D02*
G01X12818Y28818D01*
G01X12840Y28909D02*
G01X12840Y28863D01*
G01X12818Y28954D02*
G01X12840Y28909D01*
G01X12750Y28977D02*
G01X12818Y28954D01*
G01X12659Y28977D02*
G01X12750Y28977D01*
G04 Draw part TP20*
G04 draw part outline for part TP20*
G54D13*
G01X5050Y30700D02*
G01X5050Y29300D01*
G01X5050Y29300D02*
G01X6450Y29300D01*
G01X6450Y29300D02*
G01X6450Y30700D01*
G01X6450Y30700D02*
G01X5050Y30700D01*
G04 draw reference designator for part TP20*
G54D12*
G01X4909Y28977D02*
G01X4909Y28500D01*
G01X5068Y28977D02*
G01X4750Y28977D01*
G01X5250Y28977D02*
G01X5250Y28500D01*
G01X5454Y28977D02*
G01X5250Y28977D01*
G01X5454Y28977D02*
G01X5522Y28954D01*
G01X5522Y28954D02*
G01X5545Y28931D01*
G01X5545Y28931D02*
G01X5568Y28886D01*
G01X5568Y28886D02*
G01X5568Y28818D01*
G01X5568Y28818D02*
G01X5545Y28772D01*
G01X5545Y28772D02*
G01X5522Y28750D01*
G01X5522Y28750D02*
G01X5454Y28727D01*
G01X5250Y28727D02*
G01X5454Y28727D01*
G01X5772Y28886D02*
G01X5772Y28863D01*
G01X5795Y28931D02*
G01X5772Y28886D01*
G01X5818Y28954D02*
G01X5795Y28931D01*
G01X5863Y28977D02*
G01X5818Y28954D01*
G01X5954Y28977D02*
G01X5863Y28977D01*
G01X5954Y28977D02*
G01X6000Y28954D01*
G01X6000Y28954D02*
G01X6022Y28931D01*
G01X6022Y28931D02*
G01X6045Y28886D01*
G01X6045Y28886D02*
G01X6045Y28840D01*
G01X6045Y28840D02*
G01X6022Y28795D01*
G01X6022Y28795D02*
G01X5977Y28727D01*
G01X5977Y28727D02*
G01X5750Y28500D01*
G01X6068Y28500D02*
G01X5750Y28500D01*
G01X6386Y28977D02*
G01X6318Y28954D01*
G01X6318Y28954D02*
G01X6272Y28886D01*
G01X6272Y28886D02*
G01X6250Y28772D01*
G01X6250Y28772D02*
G01X6250Y28704D01*
G01X6250Y28704D02*
G01X6272Y28590D01*
G01X6272Y28590D02*
G01X6318Y28522D01*
G01X6318Y28522D02*
G01X6386Y28500D01*
G01X6431Y28500D02*
G01X6386Y28500D01*
G01X6500Y28522D02*
G01X6431Y28500D01*
G01X6545Y28590D02*
G01X6500Y28522D01*
G01X6568Y28704D02*
G01X6545Y28590D01*
G01X6568Y28772D02*
G01X6568Y28704D01*
G01X6545Y28886D02*
G01X6568Y28772D01*
G01X6500Y28954D02*
G01X6545Y28886D01*
G01X6431Y28977D02*
G01X6500Y28954D01*
G01X6386Y28977D02*
G01X6431Y28977D01*
G04 Draw part H6*
G04 draw part outline for part H6*
G04 draw reference designator for part H6*
G01X34772Y32000D02*
G01X35250Y32000D01*
G01X34772Y32318D02*
G01X35250Y32318D01*
G01X35000Y32318D02*
G01X35000Y32000D01*
G01X34795Y32750D02*
G01X34840Y32772D01*
G01X34772Y32681D02*
G01X34795Y32750D01*
G01X34772Y32636D02*
G01X34772Y32681D01*
G01X34772Y32636D02*
G01X34795Y32568D01*
G01X34795Y32568D02*
G01X34863Y32522D01*
G01X34863Y32522D02*
G01X34977Y32500D01*
G01X34977Y32500D02*
G01X35090Y32500D01*
G01X35090Y32500D02*
G01X35181Y32522D01*
G01X35181Y32522D02*
G01X35227Y32568D01*
G01X35227Y32568D02*
G01X35250Y32636D01*
G01X35250Y32659D02*
G01X35250Y32636D01*
G01X35227Y32727D02*
G01X35250Y32659D01*
G01X35181Y32772D02*
G01X35227Y32727D01*
G01X35113Y32795D02*
G01X35181Y32772D01*
G01X35090Y32795D02*
G01X35113Y32795D01*
G01X35022Y32772D02*
G01X35090Y32795D01*
G01X34977Y32727D02*
G01X35022Y32772D01*
G01X34954Y32659D02*
G01X34977Y32727D01*
G01X34954Y32636D02*
G01X34954Y32659D01*
G01X34954Y32636D02*
G01X34977Y32568D01*
G01X34977Y32568D02*
G01X35022Y32522D01*
G01X35022Y32522D02*
G01X35090Y32500D01*
G04 Draw part H7*
G04 draw part outline for part H7*
G04 draw reference designator for part H7*
G01X34772Y33500D02*
G01X35250Y33500D01*
G01X34772Y33818D02*
G01X35250Y33818D01*
G01X35000Y33818D02*
G01X35000Y33500D01*
G01X34772Y34318D02*
G01X35250Y34090D01*
G01X34772Y34318D02*
G01X34772Y34000D01*
G04 Draw part H5*
G04 draw part outline for part H5*
G04 draw reference designator for part H5*
G01X34772Y30750D02*
G01X35250Y30750D01*
G01X34772Y31068D02*
G01X35250Y31068D01*
G01X35000Y31068D02*
G01X35000Y30750D01*
G01X34772Y31295D02*
G01X34772Y31522D01*
G01X34772Y31295D02*
G01X34977Y31272D01*
G01X34954Y31295D02*
G01X34977Y31272D01*
G01X34931Y31363D02*
G01X34954Y31295D01*
G01X34931Y31431D02*
G01X34931Y31363D01*
G01X34931Y31431D02*
G01X34954Y31500D01*
G01X34954Y31500D02*
G01X35000Y31545D01*
G01X35000Y31545D02*
G01X35068Y31568D01*
G01X35068Y31568D02*
G01X35113Y31568D01*
G01X35113Y31568D02*
G01X35181Y31545D01*
G01X35181Y31545D02*
G01X35227Y31500D01*
G01X35227Y31500D02*
G01X35250Y31431D01*
G01X35250Y31363D02*
G01X35250Y31431D01*
G01X35227Y31295D02*
G01X35250Y31363D01*
G01X35204Y31272D02*
G01X35227Y31295D01*
G01X35159Y31250D02*
G01X35204Y31272D01*
G04 Draw part R6*
G04 draw part outline for part R6*
G01X27000Y29400D02*
G01X27000Y31600D01*
G01X27000Y31600D02*
G01X28000Y31600D01*
G01X28000Y31600D02*
G01X28000Y29400D01*
G01X28000Y29400D02*
G01X27000Y29400D01*
G04 draw reference designator for part R6*
G01X26272Y30500D02*
G01X26750Y30500D01*
G01X26272Y30704D02*
G01X26272Y30500D01*
G01X26272Y30704D02*
G01X26295Y30772D01*
G01X26295Y30772D02*
G01X26318Y30795D01*
G01X26318Y30795D02*
G01X26363Y30818D01*
G01X26363Y30818D02*
G01X26409Y30818D01*
G01X26409Y30818D02*
G01X26454Y30795D01*
G01X26454Y30795D02*
G01X26477Y30772D01*
G01X26477Y30772D02*
G01X26500Y30704D01*
G01X26500Y30500D02*
G01X26500Y30704D01*
G01X26500Y30659D02*
G01X26750Y30818D01*
G01X26295Y31250D02*
G01X26340Y31272D01*
G01X26272Y31181D02*
G01X26295Y31250D01*
G01X26272Y31136D02*
G01X26272Y31181D01*
G01X26272Y31136D02*
G01X26295Y31068D01*
G01X26295Y31068D02*
G01X26363Y31022D01*
G01X26363Y31022D02*
G01X26477Y31000D01*
G01X26477Y31000D02*
G01X26590Y31000D01*
G01X26590Y31000D02*
G01X26681Y31022D01*
G01X26681Y31022D02*
G01X26727Y31068D01*
G01X26727Y31068D02*
G01X26750Y31136D01*
G01X26750Y31159D02*
G01X26750Y31136D01*
G01X26727Y31227D02*
G01X26750Y31159D01*
G01X26681Y31272D02*
G01X26727Y31227D01*
G01X26613Y31295D02*
G01X26681Y31272D01*
G01X26590Y31295D02*
G01X26613Y31295D01*
G01X26522Y31272D02*
G01X26590Y31295D01*
G01X26477Y31227D02*
G01X26522Y31272D01*
G01X26454Y31159D02*
G01X26477Y31227D01*
G01X26454Y31136D02*
G01X26454Y31159D01*
G01X26454Y31136D02*
G01X26477Y31068D01*
G01X26477Y31068D02*
G01X26522Y31022D01*
G01X26522Y31022D02*
G01X26590Y31000D01*
G04 Draw part R7*
G04 draw part outline for part R7*
G01X29000Y29400D02*
G01X29000Y31600D01*
G01X29000Y31600D02*
G01X30000Y31600D01*
G01X30000Y31600D02*
G01X30000Y29400D01*
G01X30000Y29400D02*
G01X29000Y29400D01*
G04 draw reference designator for part R7*
G01X28272Y30500D02*
G01X28750Y30500D01*
G01X28272Y30704D02*
G01X28272Y30500D01*
G01X28272Y30704D02*
G01X28295Y30772D01*
G01X28295Y30772D02*
G01X28318Y30795D01*
G01X28318Y30795D02*
G01X28363Y30818D01*
G01X28363Y30818D02*
G01X28409Y30818D01*
G01X28409Y30818D02*
G01X28454Y30795D01*
G01X28454Y30795D02*
G01X28477Y30772D01*
G01X28477Y30772D02*
G01X28500Y30704D01*
G01X28500Y30500D02*
G01X28500Y30704D01*
G01X28500Y30659D02*
G01X28750Y30818D01*
G01X28272Y31318D02*
G01X28750Y31090D01*
G01X28272Y31318D02*
G01X28272Y31000D01*
G04 Draw part R8*
G04 draw part outline for part R8*
G01X30750Y30150D02*
G01X30750Y32350D01*
G01X30750Y32350D02*
G01X31750Y32350D01*
G01X31750Y32350D02*
G01X31750Y30150D01*
G01X31750Y30150D02*
G01X30750Y30150D01*
G04 draw reference designator for part R8*
G01X30272Y30500D02*
G01X30750Y30500D01*
G01X30272Y30704D02*
G01X30272Y30500D01*
G01X30272Y30704D02*
G01X30295Y30772D01*
G01X30295Y30772D02*
G01X30318Y30795D01*
G01X30318Y30795D02*
G01X30363Y30818D01*
G01X30363Y30818D02*
G01X30409Y30818D01*
G01X30409Y30818D02*
G01X30454Y30795D01*
G01X30454Y30795D02*
G01X30477Y30772D01*
G01X30477Y30772D02*
G01X30500Y30704D01*
G01X30500Y30500D02*
G01X30500Y30704D01*
G01X30500Y30659D02*
G01X30750Y30818D01*
G01X30272Y31113D02*
G01X30295Y31045D01*
G01X30295Y31045D02*
G01X30340Y31022D01*
G01X30340Y31022D02*
G01X30386Y31022D01*
G01X30386Y31022D02*
G01X30431Y31045D01*
G01X30431Y31045D02*
G01X30454Y31090D01*
G01X30454Y31090D02*
G01X30477Y31181D01*
G01X30477Y31181D02*
G01X30500Y31250D01*
G01X30500Y31250D02*
G01X30545Y31295D01*
G01X30545Y31295D02*
G01X30590Y31318D01*
G01X30590Y31318D02*
G01X30659Y31318D01*
G01X30659Y31318D02*
G01X30704Y31295D01*
G01X30704Y31295D02*
G01X30727Y31272D01*
G01X30727Y31272D02*
G01X30750Y31204D01*
G01X30750Y31113D02*
G01X30750Y31204D01*
G01X30727Y31045D02*
G01X30750Y31113D01*
G01X30704Y31022D02*
G01X30727Y31045D01*
G01X30659Y31000D02*
G01X30704Y31022D01*
G01X30590Y31000D02*
G01X30659Y31000D01*
G01X30545Y31022D02*
G01X30590Y31000D01*
G01X30500Y31068D02*
G01X30545Y31022D01*
G01X30477Y31136D02*
G01X30500Y31068D01*
G01X30454Y31227D02*
G01X30477Y31136D01*
G01X30431Y31272D02*
G01X30454Y31227D01*
G01X30386Y31295D02*
G01X30431Y31272D01*
G01X30340Y31295D02*
G01X30386Y31295D01*
G01X30295Y31272D02*
G01X30340Y31295D01*
G01X30272Y31204D02*
G01X30295Y31272D01*
G01X30272Y31113D02*
G01X30272Y31204D01*
G04 Draw part TP99*
G04 draw part outline for part TP99*
G54D13*
G01X28550Y38450D02*
G01X28550Y37050D01*
G01X28550Y37050D02*
G01X29950Y37050D01*
G01X29950Y37050D02*
G01X29950Y38450D01*
G01X29950Y38450D02*
G01X28550Y38450D01*
G04 draw reference designator for part TP99*
G54D12*
G01X28409Y36727D02*
G01X28409Y36250D01*
G01X28568Y36727D02*
G01X28250Y36727D01*
G01X28750Y36727D02*
G01X28750Y36250D01*
G01X28954Y36727D02*
G01X28750Y36727D01*
G01X28954Y36727D02*
G01X29022Y36704D01*
G01X29022Y36704D02*
G01X29045Y36681D01*
G01X29045Y36681D02*
G01X29068Y36636D01*
G01X29068Y36636D02*
G01X29068Y36568D01*
G01X29068Y36568D02*
G01X29045Y36522D01*
G01X29045Y36522D02*
G01X29022Y36500D01*
G01X29022Y36500D02*
G01X28954Y36477D01*
G01X28750Y36477D02*
G01X28954Y36477D01*
G01X29545Y36568D02*
G01X29522Y36500D01*
G01X29522Y36500D02*
G01X29477Y36454D01*
G01X29477Y36454D02*
G01X29409Y36431D01*
G01X29386Y36431D02*
G01X29409Y36431D01*
G01X29318Y36454D02*
G01X29386Y36431D01*
G01X29272Y36500D02*
G01X29318Y36454D01*
G01X29250Y36568D02*
G01X29272Y36500D01*
G01X29250Y36590D02*
G01X29250Y36568D01*
G01X29272Y36659D02*
G01X29250Y36590D01*
G01X29318Y36704D02*
G01X29272Y36659D01*
G01X29386Y36727D02*
G01X29318Y36704D01*
G01X29409Y36727D02*
G01X29386Y36727D01*
G01X29409Y36727D02*
G01X29477Y36704D01*
G01X29477Y36704D02*
G01X29522Y36659D01*
G01X29522Y36659D02*
G01X29545Y36568D01*
G01X29545Y36568D02*
G01X29545Y36454D01*
G01X29545Y36454D02*
G01X29522Y36340D01*
G01X29522Y36340D02*
G01X29477Y36272D01*
G01X29477Y36272D02*
G01X29409Y36250D01*
G01X29363Y36250D02*
G01X29409Y36250D01*
G01X29295Y36272D02*
G01X29363Y36250D01*
G01X29272Y36318D02*
G01X29295Y36272D01*
G01X30022Y36568D02*
G01X30000Y36500D01*
G01X30000Y36500D02*
G01X29954Y36454D01*
G01X29954Y36454D02*
G01X29886Y36431D01*
G01X29863Y36431D02*
G01X29886Y36431D01*
G01X29795Y36454D02*
G01X29863Y36431D01*
G01X29750Y36500D02*
G01X29795Y36454D01*
G01X29727Y36568D02*
G01X29750Y36500D01*
G01X29727Y36590D02*
G01X29727Y36568D01*
G01X29750Y36659D02*
G01X29727Y36590D01*
G01X29795Y36704D02*
G01X29750Y36659D01*
G01X29863Y36727D02*
G01X29795Y36704D01*
G01X29886Y36727D02*
G01X29863Y36727D01*
G01X29886Y36727D02*
G01X29954Y36704D01*
G01X29954Y36704D02*
G01X30000Y36659D01*
G01X30000Y36659D02*
G01X30022Y36568D01*
G01X30022Y36568D02*
G01X30022Y36454D01*
G01X30022Y36454D02*
G01X30000Y36340D01*
G01X30000Y36340D02*
G01X29954Y36272D01*
G01X29954Y36272D02*
G01X29886Y36250D01*
G01X29840Y36250D02*
G01X29886Y36250D01*
G01X29772Y36272D02*
G01X29840Y36250D01*
G01X29750Y36318D02*
G01X29772Y36272D01*
G04 Draw part TP98*
G04 draw part outline for part TP98*
G54D13*
G01X17550Y30700D02*
G01X17550Y29300D01*
G01X17550Y29300D02*
G01X18950Y29300D01*
G01X18950Y29300D02*
G01X18950Y30700D01*
G01X18950Y30700D02*
G01X17550Y30700D01*
G04 draw reference designator for part TP98*
G54D12*
G01X17409Y28977D02*
G01X17409Y28500D01*
G01X17568Y28977D02*
G01X17250Y28977D01*
G01X17750Y28977D02*
G01X17750Y28500D01*
G01X17954Y28977D02*
G01X17750Y28977D01*
G01X17954Y28977D02*
G01X18022Y28954D01*
G01X18022Y28954D02*
G01X18045Y28931D01*
G01X18045Y28931D02*
G01X18068Y28886D01*
G01X18068Y28886D02*
G01X18068Y28818D01*
G01X18068Y28818D02*
G01X18045Y28772D01*
G01X18045Y28772D02*
G01X18022Y28750D01*
G01X18022Y28750D02*
G01X17954Y28727D01*
G01X17750Y28727D02*
G01X17954Y28727D01*
G01X18545Y28818D02*
G01X18522Y28750D01*
G01X18522Y28750D02*
G01X18477Y28704D01*
G01X18477Y28704D02*
G01X18409Y28681D01*
G01X18386Y28681D02*
G01X18409Y28681D01*
G01X18318Y28704D02*
G01X18386Y28681D01*
G01X18272Y28750D02*
G01X18318Y28704D01*
G01X18250Y28818D02*
G01X18272Y28750D01*
G01X18250Y28840D02*
G01X18250Y28818D01*
G01X18272Y28909D02*
G01X18250Y28840D01*
G01X18318Y28954D02*
G01X18272Y28909D01*
G01X18386Y28977D02*
G01X18318Y28954D01*
G01X18409Y28977D02*
G01X18386Y28977D01*
G01X18409Y28977D02*
G01X18477Y28954D01*
G01X18477Y28954D02*
G01X18522Y28909D01*
G01X18522Y28909D02*
G01X18545Y28818D01*
G01X18545Y28818D02*
G01X18545Y28704D01*
G01X18545Y28704D02*
G01X18522Y28590D01*
G01X18522Y28590D02*
G01X18477Y28522D01*
G01X18477Y28522D02*
G01X18409Y28500D01*
G01X18363Y28500D02*
G01X18409Y28500D01*
G01X18295Y28522D02*
G01X18363Y28500D01*
G01X18272Y28568D02*
G01X18295Y28522D01*
G01X18840Y28977D02*
G01X18772Y28954D01*
G01X18772Y28954D02*
G01X18750Y28909D01*
G01X18750Y28909D02*
G01X18750Y28863D01*
G01X18750Y28863D02*
G01X18772Y28818D01*
G01X18772Y28818D02*
G01X18818Y28795D01*
G01X18818Y28795D02*
G01X18909Y28772D01*
G01X18909Y28772D02*
G01X18977Y28750D01*
G01X18977Y28750D02*
G01X19022Y28704D01*
G01X19022Y28704D02*
G01X19045Y28659D01*
G01X19045Y28659D02*
G01X19045Y28590D01*
G01X19045Y28590D02*
G01X19022Y28545D01*
G01X19022Y28545D02*
G01X19000Y28522D01*
G01X19000Y28522D02*
G01X18931Y28500D01*
G01X18840Y28500D02*
G01X18931Y28500D01*
G01X18772Y28522D02*
G01X18840Y28500D01*
G01X18750Y28545D02*
G01X18772Y28522D01*
G01X18727Y28590D02*
G01X18750Y28545D01*
G01X18727Y28659D02*
G01X18727Y28590D01*
G01X18750Y28704D02*
G01X18727Y28659D01*
G01X18795Y28750D02*
G01X18750Y28704D01*
G01X18863Y28772D02*
G01X18795Y28750D01*
G01X18954Y28795D02*
G01X18863Y28772D01*
G01X19000Y28818D02*
G01X18954Y28795D01*
G01X19022Y28863D02*
G01X19000Y28818D01*
G01X19022Y28909D02*
G01X19022Y28863D01*
G01X19000Y28954D02*
G01X19022Y28909D01*
G01X18931Y28977D02*
G01X19000Y28954D01*
G01X18840Y28977D02*
G01X18931Y28977D01*

G04 Draw traces*

G04 Draw Text*
G54D13*
G01X40750Y27704D02*
G01X40750Y26750D01*
G01X40750Y27704D02*
G01X41068Y27704D01*
G01X41068Y27704D02*
G01X41204Y27659D01*
G01X41204Y27659D02*
G01X41295Y27568D01*
G01X41295Y27568D02*
G01X41340Y27477D01*
G01X41340Y27477D02*
G01X41386Y27340D01*
G01X41386Y27340D02*
G01X41386Y27113D01*
G01X41386Y27113D02*
G01X41340Y26977D01*
G01X41340Y26977D02*
G01X41295Y26886D01*
G01X41295Y26886D02*
G01X41204Y26795D01*
G01X41204Y26795D02*
G01X41068Y26750D01*
G01X41068Y26750D02*
G01X40750Y26750D01*
G01X41750Y27704D02*
G01X42113Y26750D01*
G01X42477Y27704D02*
G01X42113Y26750D01*
G01X43522Y27477D02*
G01X43477Y27568D01*
G01X43477Y27568D02*
G01X43386Y27659D01*
G01X43386Y27659D02*
G01X43295Y27704D01*
G01X43295Y27704D02*
G01X43113Y27704D01*
G01X43113Y27704D02*
G01X43022Y27659D01*
G01X43022Y27659D02*
G01X42931Y27568D01*
G01X42931Y27568D02*
G01X42886Y27477D01*
G01X42886Y27477D02*
G01X42840Y27340D01*
G01X42840Y27340D02*
G01X42840Y27113D01*
G01X42840Y27113D02*
G01X42886Y26977D01*
G01X42886Y26977D02*
G01X42931Y26886D01*
G01X42931Y26886D02*
G01X43022Y26795D01*
G01X43022Y26795D02*
G01X43113Y26750D01*
G01X43113Y26750D02*
G01X43295Y26750D01*
G01X43295Y26750D02*
G01X43386Y26795D01*
G01X43386Y26795D02*
G01X43477Y26886D01*
G01X43477Y26886D02*
G01X43522Y26977D01*
G01X44568Y27477D02*
G01X44522Y27568D01*
G01X44522Y27568D02*
G01X44431Y27659D01*
G01X44431Y27659D02*
G01X44340Y27704D01*
G01X44340Y27704D02*
G01X44159Y27704D01*
G01X44159Y27704D02*
G01X44068Y27659D01*
G01X44068Y27659D02*
G01X43977Y27568D01*
G01X43977Y27568D02*
G01X43931Y27477D01*
G01X43931Y27477D02*
G01X43886Y27340D01*
G01X43886Y27340D02*
G01X43886Y27113D01*
G01X43886Y27113D02*
G01X43931Y26977D01*
G01X43931Y26977D02*
G01X43977Y26886D01*
G01X43977Y26886D02*
G01X44068Y26795D01*
G01X44068Y26795D02*
G01X44159Y26750D01*
G01X44159Y26750D02*
G01X44340Y26750D01*
G01X44340Y26750D02*
G01X44431Y26795D01*
G01X44431Y26795D02*
G01X44522Y26886D01*
G01X44522Y26886D02*
G01X44568Y26977D01*
G01X28250Y39380D02*
G01X28490Y39080D01*
G01X28490Y39080D02*
G01X28490Y38750D01*
G01X28730Y39380D02*
G01X28490Y39080D01*
G01X28970Y38750D02*
G01X29510Y38750D01*
G01X29990Y39380D02*
G01X29750Y38750D01*
G01X29990Y39380D02*
G01X30230Y38750D01*
G01X29840Y38960D02*
G01X30140Y38960D01*
G01X30470Y39380D02*
G01X30470Y38750D01*
G01X30710Y39380D02*
G01X30710Y38750D01*
G01X30710Y39380D02*
G01X31130Y38750D01*
G01X31130Y39380D02*
G01X31130Y38750D01*
G54D11*
G01X4618Y36750D02*
G01X5000Y36895D01*
G01X4618Y37040D02*
G01X5000Y36895D01*
G01X4709Y37459D02*
G01X4672Y37440D01*
G01X4672Y37440D02*
G01X4636Y37404D01*
G01X4636Y37404D02*
G01X4618Y37368D01*
G01X4618Y37368D02*
G01X4618Y37295D01*
G01X4618Y37295D02*
G01X4636Y37259D01*
G01X4636Y37259D02*
G01X4672Y37222D01*
G01X4672Y37222D02*
G01X4709Y37204D01*
G01X4709Y37204D02*
G01X4763Y37186D01*
G01X4763Y37186D02*
G01X4854Y37186D01*
G01X4854Y37186D02*
G01X4909Y37204D01*
G01X4909Y37204D02*
G01X4945Y37222D01*
G01X4945Y37222D02*
G01X4981Y37259D01*
G01X4981Y37259D02*
G01X5000Y37295D01*
G01X5000Y37295D02*
G01X5000Y37368D01*
G01X5000Y37368D02*
G01X4981Y37404D01*
G01X4981Y37404D02*
G01X4945Y37440D01*
G01X4945Y37440D02*
G01X4909Y37459D01*
G01X4709Y37877D02*
G01X4672Y37859D01*
G01X4672Y37859D02*
G01X4636Y37822D01*
G01X4636Y37822D02*
G01X4618Y37786D01*
G01X4618Y37786D02*
G01X4618Y37713D01*
G01X4618Y37713D02*
G01X4636Y37677D01*
G01X4636Y37677D02*
G01X4672Y37640D01*
G01X4672Y37640D02*
G01X4709Y37622D01*
G01X4709Y37622D02*
G01X4763Y37604D01*
G01X4763Y37604D02*
G01X4854Y37604D01*
G01X4854Y37604D02*
G01X4909Y37622D01*
G01X4909Y37622D02*
G01X4945Y37640D01*
G01X4945Y37640D02*
G01X4981Y37677D01*
G01X4981Y37677D02*
G01X5000Y37713D01*
G01X5000Y37713D02*
G01X5000Y37786D01*
G01X5000Y37786D02*
G01X4981Y37822D01*
G01X4981Y37822D02*
G01X4945Y37859D01*
G01X4945Y37859D02*
G01X4909Y37877D01*
G01X21750Y59065D02*
G01X21750Y58840D01*
G01X21750Y58840D02*
G01X21765Y58795D01*
G01X21765Y58795D02*
G01X21795Y58765D01*
G01X21795Y58765D02*
G01X21840Y58750D01*
G01X21840Y58750D02*
G01X21870Y58750D01*
G01X21870Y58750D02*
G01X21915Y58765D01*
G01X21915Y58765D02*
G01X21945Y58795D01*
G01X21945Y58795D02*
G01X21960Y58840D01*
G01X21960Y58840D02*
G01X21960Y59065D01*
G01X22200Y59065D02*
G01X22080Y58750D01*
G01X22200Y59065D02*
G01X22320Y58750D01*
G01X22125Y58855D02*
G01X22275Y58855D01*
G01X22440Y59065D02*
G01X22440Y58750D01*
G01X22440Y59065D02*
G01X22575Y59065D01*
G01X22575Y59065D02*
G01X22620Y59050D01*
G01X22620Y59050D02*
G01X22635Y59035D01*
G01X22635Y59035D02*
G01X22650Y59005D01*
G01X22650Y59005D02*
G01X22650Y58975D01*
G01X22650Y58975D02*
G01X22635Y58945D01*
G01X22635Y58945D02*
G01X22620Y58930D01*
G01X22620Y58930D02*
G01X22575Y58915D01*
G01X22575Y58915D02*
G01X22440Y58915D01*
G01X22545Y58915D02*
G01X22650Y58750D01*
G01X22875Y59065D02*
G01X22875Y58750D01*
G01X22770Y59065D02*
G01X22980Y59065D01*
G01X23100Y58750D02*
G01X23370Y58750D01*
G01X23595Y59065D02*
G01X23595Y58750D01*
G01X23490Y59065D02*
G01X23700Y59065D01*
G01X23820Y59065D02*
G01X24030Y58750D01*
G01X24030Y59065D02*
G01X23820Y58750D01*
G01X19000Y59065D02*
G01X19000Y58840D01*
G01X19000Y58840D02*
G01X19015Y58795D01*
G01X19015Y58795D02*
G01X19045Y58765D01*
G01X19045Y58765D02*
G01X19090Y58750D01*
G01X19090Y58750D02*
G01X19120Y58750D01*
G01X19120Y58750D02*
G01X19165Y58765D01*
G01X19165Y58765D02*
G01X19195Y58795D01*
G01X19195Y58795D02*
G01X19210Y58840D01*
G01X19210Y58840D02*
G01X19210Y59065D01*
G01X19450Y59065D02*
G01X19330Y58750D01*
G01X19450Y59065D02*
G01X19570Y58750D01*
G01X19375Y58855D02*
G01X19525Y58855D01*
G01X19690Y59065D02*
G01X19690Y58750D01*
G01X19690Y59065D02*
G01X19825Y59065D01*
G01X19825Y59065D02*
G01X19870Y59050D01*
G01X19870Y59050D02*
G01X19885Y59035D01*
G01X19885Y59035D02*
G01X19900Y59005D01*
G01X19900Y59005D02*
G01X19900Y58975D01*
G01X19900Y58975D02*
G01X19885Y58945D01*
G01X19885Y58945D02*
G01X19870Y58930D01*
G01X19870Y58930D02*
G01X19825Y58915D01*
G01X19825Y58915D02*
G01X19690Y58915D01*
G01X19795Y58915D02*
G01X19900Y58750D01*
G01X20125Y59065D02*
G01X20125Y58750D01*
G01X20020Y59065D02*
G01X20230Y59065D01*
G01X20350Y58750D02*
G01X20620Y58750D01*
G01X20740Y59065D02*
G01X20740Y58750D01*
G01X20740Y59065D02*
G01X20875Y59065D01*
G01X20875Y59065D02*
G01X20920Y59050D01*
G01X20920Y59050D02*
G01X20935Y59035D01*
G01X20935Y59035D02*
G01X20950Y59005D01*
G01X20950Y59005D02*
G01X20950Y58975D01*
G01X20950Y58975D02*
G01X20935Y58945D01*
G01X20935Y58945D02*
G01X20920Y58930D01*
G01X20920Y58930D02*
G01X20875Y58915D01*
G01X20875Y58915D02*
G01X20740Y58915D01*
G01X20845Y58915D02*
G01X20950Y58750D01*
G01X21070Y59065D02*
G01X21280Y58750D01*
G01X21280Y59065D02*
G01X21070Y58750D01*
G01X15500Y59131D02*
G01X15500Y58750D01*
G01X15500Y59131D02*
G01X15627Y59131D01*
G01X15627Y59131D02*
G01X15681Y59113D01*
G01X15681Y59113D02*
G01X15718Y59077D01*
G01X15718Y59077D02*
G01X15736Y59040D01*
G01X15736Y59040D02*
G01X15754Y58986D01*
G01X15754Y58986D02*
G01X15754Y58895D01*
G01X15754Y58895D02*
G01X15736Y58840D01*
G01X15736Y58840D02*
G01X15718Y58804D01*
G01X15718Y58804D02*
G01X15681Y58768D01*
G01X15681Y58768D02*
G01X15627Y58750D01*
G01X15627Y58750D02*
G01X15500Y58750D01*
G01X16172Y59040D02*
G01X16154Y59077D01*
G01X16154Y59077D02*
G01X16118Y59113D01*
G01X16118Y59113D02*
G01X16081Y59131D01*
G01X16081Y59131D02*
G01X16009Y59131D01*
G01X16009Y59131D02*
G01X15972Y59113D01*
G01X15972Y59113D02*
G01X15936Y59077D01*
G01X15936Y59077D02*
G01X15918Y59040D01*
G01X15918Y59040D02*
G01X15900Y58986D01*
G01X15900Y58986D02*
G01X15900Y58895D01*
G01X15900Y58895D02*
G01X15918Y58840D01*
G01X15918Y58840D02*
G01X15936Y58804D01*
G01X15936Y58804D02*
G01X15972Y58768D01*
G01X15972Y58768D02*
G01X16009Y58750D01*
G01X16009Y58750D02*
G01X16081Y58750D01*
G01X16081Y58750D02*
G01X16118Y58768D01*
G01X16118Y58768D02*
G01X16154Y58804D01*
G01X16154Y58804D02*
G01X16172Y58840D01*
G01X16172Y58840D02*
G01X16172Y58895D01*
G01X16081Y58895D02*
G01X16172Y58895D01*
G01X16318Y59131D02*
G01X16318Y58750D01*
G01X16318Y59131D02*
G01X16572Y58750D01*
G01X16572Y59131D02*
G01X16572Y58750D01*
G01X16718Y59131D02*
G01X16718Y58750D01*
G01X16718Y59131D02*
G01X16845Y59131D01*
G01X16845Y59131D02*
G01X16899Y59113D01*
G01X16899Y59113D02*
G01X16936Y59077D01*
G01X16936Y59077D02*
G01X16954Y59040D01*
G01X16954Y59040D02*
G01X16972Y58986D01*
G01X16972Y58986D02*
G01X16972Y58895D01*
G01X16972Y58895D02*
G01X16954Y58840D01*
G01X16954Y58840D02*
G01X16936Y58804D01*
G01X16936Y58804D02*
G01X16899Y58768D01*
G01X16899Y58768D02*
G01X16845Y58750D01*
G01X16845Y58750D02*
G01X16718Y58750D01*
G01X17250Y59131D02*
G01X17250Y58750D01*
G01X17250Y59131D02*
G01X17377Y59131D01*
G01X17377Y59131D02*
G01X17431Y59113D01*
G01X17431Y59113D02*
G01X17468Y59077D01*
G01X17468Y59077D02*
G01X17486Y59040D01*
G01X17486Y59040D02*
G01X17504Y58986D01*
G01X17504Y58986D02*
G01X17504Y58895D01*
G01X17504Y58895D02*
G01X17486Y58840D01*
G01X17486Y58840D02*
G01X17468Y58804D01*
G01X17468Y58804D02*
G01X17431Y58768D01*
G01X17431Y58768D02*
G01X17377Y58750D01*
G01X17377Y58750D02*
G01X17250Y58750D01*
G01X17650Y59131D02*
G01X17795Y58750D01*
G01X17940Y59131D02*
G01X17795Y58750D01*
G01X18359Y59040D02*
G01X18340Y59077D01*
G01X18340Y59077D02*
G01X18304Y59113D01*
G01X18304Y59113D02*
G01X18268Y59131D01*
G01X18268Y59131D02*
G01X18195Y59131D01*
G01X18195Y59131D02*
G01X18159Y59113D01*
G01X18159Y59113D02*
G01X18122Y59077D01*
G01X18122Y59077D02*
G01X18104Y59040D01*
G01X18104Y59040D02*
G01X18086Y58986D01*
G01X18086Y58986D02*
G01X18086Y58895D01*
G01X18086Y58895D02*
G01X18104Y58840D01*
G01X18104Y58840D02*
G01X18122Y58804D01*
G01X18122Y58804D02*
G01X18159Y58768D01*
G01X18159Y58768D02*
G01X18195Y58750D01*
G01X18195Y58750D02*
G01X18268Y58750D01*
G01X18268Y58750D02*
G01X18304Y58768D01*
G01X18304Y58768D02*
G01X18340Y58804D01*
G01X18340Y58804D02*
G01X18359Y58840D01*
G01X18777Y59040D02*
G01X18759Y59077D01*
G01X18759Y59077D02*
G01X18722Y59113D01*
G01X18722Y59113D02*
G01X18686Y59131D01*
G01X18686Y59131D02*
G01X18613Y59131D01*
G01X18613Y59131D02*
G01X18577Y59113D01*
G01X18577Y59113D02*
G01X18540Y59077D01*
G01X18540Y59077D02*
G01X18522Y59040D01*
G01X18522Y59040D02*
G01X18504Y58986D01*
G01X18504Y58986D02*
G01X18504Y58895D01*
G01X18504Y58895D02*
G01X18522Y58840D01*
G01X18522Y58840D02*
G01X18540Y58804D01*
G01X18540Y58804D02*
G01X18577Y58768D01*
G01X18577Y58768D02*
G01X18613Y58750D01*
G01X18613Y58750D02*
G01X18686Y58750D01*
G01X18686Y58750D02*
G01X18722Y58768D01*
G01X18722Y58768D02*
G01X18759Y58804D01*
G01X18759Y58804D02*
G01X18777Y58840D01*
G01X11000Y28227D02*
G01X11181Y28000D01*
G01X11181Y28000D02*
G01X11181Y27750D01*
G01X11363Y28227D02*
G01X11181Y28000D01*
G01X11545Y27750D02*
G01X11954Y27750D01*
G01X12136Y28227D02*
G01X12136Y27750D01*
G01X12136Y28227D02*
G01X12340Y28227D01*
G01X12340Y28227D02*
G01X12409Y28204D01*
G01X12409Y28204D02*
G01X12431Y28181D01*
G01X12431Y28181D02*
G01X12454Y28136D01*
G01X12454Y28136D02*
G01X12454Y28068D01*
G01X12454Y28068D02*
G01X12431Y28022D01*
G01X12431Y28022D02*
G01X12409Y28000D01*
G01X12409Y28000D02*
G01X12340Y27977D01*
G01X12340Y27977D02*
G01X12136Y27977D01*
G01X12636Y28227D02*
G01X12749Y27750D01*
G01X12863Y28227D02*
G01X12749Y27750D01*
G01X12863Y28227D02*
G01X12977Y27750D01*
G01X13090Y28227D02*
G01X12977Y27750D01*
G01X13272Y28227D02*
G01X13272Y27750D01*
G01X13272Y28227D02*
G01X13454Y27750D01*
G01X13636Y28227D02*
G01X13454Y27750D01*
G01X13636Y28227D02*
G01X13636Y27750D01*
G01X8000Y28227D02*
G01X8000Y27750D01*
G01X8000Y28227D02*
G01X8204Y28227D01*
G01X8204Y28227D02*
G01X8272Y28204D01*
G01X8272Y28204D02*
G01X8295Y28181D01*
G01X8295Y28181D02*
G01X8318Y28136D01*
G01X8318Y28136D02*
G01X8318Y28090D01*
G01X8318Y28090D02*
G01X8295Y28045D01*
G01X8295Y28045D02*
G01X8272Y28022D01*
G01X8272Y28022D02*
G01X8204Y28000D01*
G01X8204Y28000D02*
G01X8000Y28000D01*
G01X8159Y28000D02*
G01X8318Y27750D01*
G01X8500Y27750D02*
G01X8909Y27750D01*
G01X9090Y28227D02*
G01X9090Y27750D01*
G01X9090Y28227D02*
G01X9295Y28227D01*
G01X9295Y28227D02*
G01X9363Y28204D01*
G01X9363Y28204D02*
G01X9386Y28181D01*
G01X9386Y28181D02*
G01X9409Y28136D01*
G01X9409Y28136D02*
G01X9409Y28068D01*
G01X9409Y28068D02*
G01X9386Y28022D01*
G01X9386Y28022D02*
G01X9363Y28000D01*
G01X9363Y28000D02*
G01X9295Y27977D01*
G01X9295Y27977D02*
G01X9090Y27977D01*
G01X9590Y28227D02*
G01X9704Y27750D01*
G01X9818Y28227D02*
G01X9704Y27750D01*
G01X9818Y28227D02*
G01X9931Y27750D01*
G01X10045Y28227D02*
G01X9931Y27750D01*
G01X10227Y28227D02*
G01X10227Y27750D01*
G01X10227Y28227D02*
G01X10409Y27750D01*
G01X10590Y28227D02*
G01X10409Y27750D01*
G01X10590Y28227D02*
G01X10590Y27750D01*
G01X5340Y28113D02*
G01X5318Y28159D01*
G01X5318Y28159D02*
G01X5272Y28204D01*
G01X5272Y28204D02*
G01X5227Y28227D01*
G01X5227Y28227D02*
G01X5136Y28227D01*
G01X5136Y28227D02*
G01X5090Y28204D01*
G01X5090Y28204D02*
G01X5045Y28159D01*
G01X5045Y28159D02*
G01X5022Y28113D01*
G01X5022Y28113D02*
G01X5000Y28045D01*
G01X5000Y28045D02*
G01X5000Y27931D01*
G01X5000Y27931D02*
G01X5022Y27863D01*
G01X5022Y27863D02*
G01X5045Y27818D01*
G01X5045Y27818D02*
G01X5090Y27772D01*
G01X5090Y27772D02*
G01X5136Y27750D01*
G01X5136Y27750D02*
G01X5227Y27750D01*
G01X5227Y27750D02*
G01X5272Y27772D01*
G01X5272Y27772D02*
G01X5318Y27818D01*
G01X5318Y27818D02*
G01X5340Y27863D01*
G01X5340Y27863D02*
G01X5340Y27931D01*
G01X5227Y27931D02*
G01X5340Y27931D01*
G01X5522Y27750D02*
G01X5931Y27750D01*
G01X6113Y28227D02*
G01X6113Y27750D01*
G01X6113Y28227D02*
G01X6318Y28227D01*
G01X6318Y28227D02*
G01X6386Y28204D01*
G01X6386Y28204D02*
G01X6409Y28181D01*
G01X6409Y28181D02*
G01X6431Y28136D01*
G01X6431Y28136D02*
G01X6431Y28068D01*
G01X6431Y28068D02*
G01X6409Y28022D01*
G01X6409Y28022D02*
G01X6386Y28000D01*
G01X6386Y28000D02*
G01X6318Y27977D01*
G01X6318Y27977D02*
G01X6113Y27977D01*
G01X6613Y28227D02*
G01X6727Y27750D01*
G01X6840Y28227D02*
G01X6727Y27750D01*
G01X6840Y28227D02*
G01X6954Y27750D01*
G01X7068Y28227D02*
G01X6954Y27750D01*
G01X7250Y28227D02*
G01X7250Y27750D01*
G01X7250Y28227D02*
G01X7431Y27750D01*
G01X7613Y28227D02*
G01X7431Y27750D01*
G01X7613Y28227D02*
G01X7613Y27750D01*
G01X14090Y37113D02*
G01X14068Y37159D01*
G01X14068Y37159D02*
G01X14022Y37204D01*
G01X14022Y37204D02*
G01X13977Y37227D01*
G01X13977Y37227D02*
G01X13886Y37227D01*
G01X13886Y37227D02*
G01X13840Y37204D01*
G01X13840Y37204D02*
G01X13795Y37159D01*
G01X13795Y37159D02*
G01X13772Y37113D01*
G01X13772Y37113D02*
G01X13750Y37045D01*
G01X13750Y37045D02*
G01X13750Y36931D01*
G01X13750Y36931D02*
G01X13772Y36863D01*
G01X13772Y36863D02*
G01X13795Y36818D01*
G01X13795Y36818D02*
G01X13840Y36772D01*
G01X13840Y36772D02*
G01X13886Y36750D01*
G01X13886Y36750D02*
G01X13977Y36750D01*
G01X13977Y36750D02*
G01X14022Y36772D01*
G01X14022Y36772D02*
G01X14068Y36818D01*
G01X14068Y36818D02*
G01X14090Y36863D01*
G01X14090Y36863D02*
G01X14090Y36931D01*
G01X13977Y36931D02*
G01X14090Y36931D01*
G01X14272Y36750D02*
G01X14681Y36750D01*
G01X15204Y37113D02*
G01X15181Y37159D01*
G01X15181Y37159D02*
G01X15136Y37204D01*
G01X15136Y37204D02*
G01X15090Y37227D01*
G01X15090Y37227D02*
G01X14999Y37227D01*
G01X14999Y37227D02*
G01X14954Y37204D01*
G01X14954Y37204D02*
G01X14909Y37159D01*
G01X14909Y37159D02*
G01X14886Y37113D01*
G01X14886Y37113D02*
G01X14863Y37045D01*
G01X14863Y37045D02*
G01X14863Y36931D01*
G01X14863Y36931D02*
G01X14886Y36863D01*
G01X14886Y36863D02*
G01X14909Y36818D01*
G01X14909Y36818D02*
G01X14954Y36772D01*
G01X14954Y36772D02*
G01X14999Y36750D01*
G01X14999Y36750D02*
G01X15090Y36750D01*
G01X15090Y36750D02*
G01X15136Y36772D01*
G01X15136Y36772D02*
G01X15181Y36818D01*
G01X15181Y36818D02*
G01X15204Y36863D01*
G01X15522Y37227D02*
G01X15477Y37204D01*
G01X15477Y37204D02*
G01X15431Y37159D01*
G01X15431Y37159D02*
G01X15409Y37113D01*
G01X15409Y37113D02*
G01X15386Y37045D01*
G01X15386Y37045D02*
G01X15386Y36931D01*
G01X15386Y36931D02*
G01X15409Y36863D01*
G01X15409Y36863D02*
G01X15431Y36818D01*
G01X15431Y36818D02*
G01X15477Y36772D01*
G01X15477Y36772D02*
G01X15522Y36750D01*
G01X15522Y36750D02*
G01X15613Y36750D01*
G01X15613Y36750D02*
G01X15659Y36772D01*
G01X15659Y36772D02*
G01X15704Y36818D01*
G01X15704Y36818D02*
G01X15727Y36863D01*
G01X15727Y36863D02*
G01X15749Y36931D01*
G01X15749Y36931D02*
G01X15749Y37045D01*
G01X15749Y37045D02*
G01X15727Y37113D01*
G01X15727Y37113D02*
G01X15704Y37159D01*
G01X15704Y37159D02*
G01X15659Y37204D01*
G01X15659Y37204D02*
G01X15613Y37227D01*
G01X15613Y37227D02*
G01X15522Y37227D01*
G01X15931Y37227D02*
G01X15931Y36750D01*
G01X15931Y37227D02*
G01X16249Y36750D01*
G01X16249Y37227D02*
G01X16249Y36750D01*
G01X13750Y35227D02*
G01X13931Y35000D01*
G01X13931Y35000D02*
G01X13931Y34750D01*
G01X14113Y35227D02*
G01X13931Y35000D01*
G01X14295Y34750D02*
G01X14704Y34750D01*
G01X15227Y35113D02*
G01X15204Y35159D01*
G01X15204Y35159D02*
G01X15159Y35204D01*
G01X15159Y35204D02*
G01X15113Y35227D01*
G01X15113Y35227D02*
G01X15022Y35227D01*
G01X15022Y35227D02*
G01X14977Y35204D01*
G01X14977Y35204D02*
G01X14931Y35159D01*
G01X14931Y35159D02*
G01X14909Y35113D01*
G01X14909Y35113D02*
G01X14886Y35045D01*
G01X14886Y35045D02*
G01X14886Y34931D01*
G01X14886Y34931D02*
G01X14909Y34863D01*
G01X14909Y34863D02*
G01X14931Y34818D01*
G01X14931Y34818D02*
G01X14977Y34772D01*
G01X14977Y34772D02*
G01X15022Y34750D01*
G01X15022Y34750D02*
G01X15113Y34750D01*
G01X15113Y34750D02*
G01X15159Y34772D01*
G01X15159Y34772D02*
G01X15204Y34818D01*
G01X15204Y34818D02*
G01X15227Y34863D01*
G01X15545Y35227D02*
G01X15499Y35204D01*
G01X15499Y35204D02*
G01X15454Y35159D01*
G01X15454Y35159D02*
G01X15431Y35113D01*
G01X15431Y35113D02*
G01X15409Y35045D01*
G01X15409Y35045D02*
G01X15409Y34931D01*
G01X15409Y34931D02*
G01X15431Y34863D01*
G01X15431Y34863D02*
G01X15454Y34818D01*
G01X15454Y34818D02*
G01X15499Y34772D01*
G01X15499Y34772D02*
G01X15545Y34750D01*
G01X15545Y34750D02*
G01X15636Y34750D01*
G01X15636Y34750D02*
G01X15681Y34772D01*
G01X15681Y34772D02*
G01X15727Y34818D01*
G01X15727Y34818D02*
G01X15749Y34863D01*
G01X15749Y34863D02*
G01X15772Y34931D01*
G01X15772Y34931D02*
G01X15772Y35045D01*
G01X15772Y35045D02*
G01X15749Y35113D01*
G01X15749Y35113D02*
G01X15727Y35159D01*
G01X15727Y35159D02*
G01X15681Y35204D01*
G01X15681Y35204D02*
G01X15636Y35227D01*
G01X15636Y35227D02*
G01X15545Y35227D01*
G01X15954Y35227D02*
G01X15954Y34750D01*
G01X15954Y35227D02*
G01X16272Y34750D01*
G01X16272Y35227D02*
G01X16272Y34750D01*
G01X13750Y33227D02*
G01X13750Y32750D01*
G01X13750Y33227D02*
G01X13954Y33227D01*
G01X13954Y33227D02*
G01X14022Y33204D01*
G01X14022Y33204D02*
G01X14045Y33181D01*
G01X14045Y33181D02*
G01X14068Y33136D01*
G01X14068Y33136D02*
G01X14068Y33090D01*
G01X14068Y33090D02*
G01X14045Y33045D01*
G01X14045Y33045D02*
G01X14022Y33022D01*
G01X14022Y33022D02*
G01X13954Y33000D01*
G01X13954Y33000D02*
G01X13750Y33000D01*
G01X13909Y33000D02*
G01X14068Y32750D01*
G01X14250Y32750D02*
G01X14659Y32750D01*
G01X15181Y33113D02*
G01X15159Y33159D01*
G01X15159Y33159D02*
G01X15113Y33204D01*
G01X15113Y33204D02*
G01X15068Y33227D01*
G01X15068Y33227D02*
G01X14977Y33227D01*
G01X14977Y33227D02*
G01X14931Y33204D01*
G01X14931Y33204D02*
G01X14886Y33159D01*
G01X14886Y33159D02*
G01X14863Y33113D01*
G01X14863Y33113D02*
G01X14840Y33045D01*
G01X14840Y33045D02*
G01X14840Y32931D01*
G01X14840Y32931D02*
G01X14863Y32863D01*
G01X14863Y32863D02*
G01X14886Y32818D01*
G01X14886Y32818D02*
G01X14931Y32772D01*
G01X14931Y32772D02*
G01X14977Y32750D01*
G01X14977Y32750D02*
G01X15068Y32750D01*
G01X15068Y32750D02*
G01X15113Y32772D01*
G01X15113Y32772D02*
G01X15159Y32818D01*
G01X15159Y32818D02*
G01X15181Y32863D01*
G01X15499Y33227D02*
G01X15454Y33204D01*
G01X15454Y33204D02*
G01X15409Y33159D01*
G01X15409Y33159D02*
G01X15386Y33113D01*
G01X15386Y33113D02*
G01X15363Y33045D01*
G01X15363Y33045D02*
G01X15363Y32931D01*
G01X15363Y32931D02*
G01X15386Y32863D01*
G01X15386Y32863D02*
G01X15409Y32818D01*
G01X15409Y32818D02*
G01X15454Y32772D01*
G01X15454Y32772D02*
G01X15499Y32750D01*
G01X15499Y32750D02*
G01X15590Y32750D01*
G01X15590Y32750D02*
G01X15636Y32772D01*
G01X15636Y32772D02*
G01X15681Y32818D01*
G01X15681Y32818D02*
G01X15704Y32863D01*
G01X15704Y32863D02*
G01X15727Y32931D01*
G01X15727Y32931D02*
G01X15727Y33045D01*
G01X15727Y33045D02*
G01X15704Y33113D01*
G01X15704Y33113D02*
G01X15681Y33159D01*
G01X15681Y33159D02*
G01X15636Y33204D01*
G01X15636Y33204D02*
G01X15590Y33227D01*
G01X15590Y33227D02*
G01X15499Y33227D01*
G01X15909Y33227D02*
G01X15909Y32750D01*
G01X15909Y33227D02*
G01X16227Y32750D01*
G01X16227Y33227D02*
G01X16227Y32750D01*
G01X12750Y50477D02*
G01X12750Y50000D01*
G01X12750Y50477D02*
G01X12954Y50477D01*
G01X12954Y50477D02*
G01X13022Y50454D01*
G01X13022Y50454D02*
G01X13045Y50431D01*
G01X13045Y50431D02*
G01X13068Y50386D01*
G01X13068Y50386D02*
G01X13068Y50340D01*
G01X13068Y50340D02*
G01X13045Y50295D01*
G01X13045Y50295D02*
G01X13022Y50272D01*
G01X13022Y50272D02*
G01X12954Y50250D01*
G01X12954Y50250D02*
G01X12750Y50250D01*
G01X12909Y50250D02*
G01X13068Y50000D01*
G01X13568Y50409D02*
G01X13522Y50454D01*
G01X13522Y50454D02*
G01X13454Y50477D01*
G01X13454Y50477D02*
G01X13363Y50477D01*
G01X13363Y50477D02*
G01X13295Y50454D01*
G01X13295Y50454D02*
G01X13250Y50409D01*
G01X13250Y50409D02*
G01X13250Y50363D01*
G01X13250Y50363D02*
G01X13272Y50318D01*
G01X13272Y50318D02*
G01X13295Y50295D01*
G01X13295Y50295D02*
G01X13340Y50272D01*
G01X13340Y50272D02*
G01X13477Y50227D01*
G01X13477Y50227D02*
G01X13522Y50204D01*
G01X13522Y50204D02*
G01X13545Y50181D01*
G01X13545Y50181D02*
G01X13568Y50136D01*
G01X13568Y50136D02*
G01X13568Y50068D01*
G01X13568Y50068D02*
G01X13522Y50022D01*
G01X13522Y50022D02*
G01X13454Y50000D01*
G01X13454Y50000D02*
G01X13363Y50000D01*
G01X13363Y50000D02*
G01X13295Y50022D01*
G01X13295Y50022D02*
G01X13250Y50068D01*
G01X13909Y50477D02*
G01X13909Y50000D01*
G01X13750Y50477D02*
G01X14068Y50477D01*
G01X7250Y50477D02*
G01X7250Y50000D01*
G01X7250Y50477D02*
G01X7409Y50477D01*
G01X7409Y50477D02*
G01X7477Y50454D01*
G01X7477Y50454D02*
G01X7522Y50409D01*
G01X7522Y50409D02*
G01X7545Y50363D01*
G01X7545Y50363D02*
G01X7568Y50295D01*
G01X7568Y50295D02*
G01X7568Y50181D01*
G01X7568Y50181D02*
G01X7545Y50113D01*
G01X7545Y50113D02*
G01X7522Y50068D01*
G01X7522Y50068D02*
G01X7477Y50022D01*
G01X7477Y50022D02*
G01X7409Y50000D01*
G01X7409Y50000D02*
G01X7250Y50000D01*
G01X8090Y50363D02*
G01X8068Y50409D01*
G01X8068Y50409D02*
G01X8022Y50454D01*
G01X8022Y50454D02*
G01X7977Y50477D01*
G01X7977Y50477D02*
G01X7886Y50477D01*
G01X7886Y50477D02*
G01X7840Y50454D01*
G01X7840Y50454D02*
G01X7795Y50409D01*
G01X7795Y50409D02*
G01X7772Y50363D01*
G01X7772Y50363D02*
G01X7750Y50295D01*
G01X7750Y50295D02*
G01X7750Y50181D01*
G01X7750Y50181D02*
G01X7772Y50113D01*
G01X7772Y50113D02*
G01X7795Y50068D01*
G01X7795Y50068D02*
G01X7840Y50022D01*
G01X7840Y50022D02*
G01X7886Y50000D01*
G01X7886Y50000D02*
G01X7977Y50000D01*
G01X7977Y50000D02*
G01X8022Y50022D01*
G01X8022Y50022D02*
G01X8068Y50068D01*
G01X8068Y50068D02*
G01X8090Y50113D01*
G01X8090Y50113D02*
G01X8090Y50181D01*
G01X7977Y50181D02*
G01X8090Y50181D01*
G01X8272Y50477D02*
G01X8272Y50000D01*
G01X8272Y50477D02*
G01X8590Y50000D01*
G01X8590Y50477D02*
G01X8590Y50000D01*
G01X8772Y50477D02*
G01X8772Y50000D01*
G01X8772Y50477D02*
G01X8931Y50477D01*
G01X8931Y50477D02*
G01X8999Y50454D01*
G01X8999Y50454D02*
G01X9045Y50409D01*
G01X9045Y50409D02*
G01X9068Y50363D01*
G01X9068Y50363D02*
G01X9090Y50295D01*
G01X9090Y50295D02*
G01X9090Y50181D01*
G01X9090Y50181D02*
G01X9068Y50113D01*
G01X9068Y50113D02*
G01X9045Y50068D01*
G01X9045Y50068D02*
G01X8999Y50022D01*
G01X8999Y50022D02*
G01X8931Y50000D01*
G01X8931Y50000D02*
G01X8772Y50000D01*
G01X6750Y43727D02*
G01X6750Y43250D01*
G01X6750Y43727D02*
G01X6954Y43727D01*
G01X6954Y43727D02*
G01X7022Y43704D01*
G01X7022Y43704D02*
G01X7045Y43681D01*
G01X7045Y43681D02*
G01X7068Y43636D01*
G01X7068Y43636D02*
G01X7068Y43590D01*
G01X7068Y43590D02*
G01X7045Y43545D01*
G01X7045Y43545D02*
G01X7022Y43522D01*
G01X7022Y43522D02*
G01X6954Y43500D01*
G01X6954Y43500D02*
G01X6750Y43500D01*
G01X6909Y43500D02*
G01X7068Y43250D01*
G01X7250Y43727D02*
G01X7250Y43250D01*
G01X7250Y43727D02*
G01X7545Y43727D01*
G01X7250Y43500D02*
G01X7431Y43500D01*
G01X7250Y43250D02*
G01X7545Y43250D01*
G01X8045Y43659D02*
G01X7999Y43704D01*
G01X7999Y43704D02*
G01X7931Y43727D01*
G01X7931Y43727D02*
G01X7840Y43727D01*
G01X7840Y43727D02*
G01X7772Y43704D01*
G01X7772Y43704D02*
G01X7727Y43659D01*
G01X7727Y43659D02*
G01X7727Y43613D01*
G01X7727Y43613D02*
G01X7749Y43568D01*
G01X7749Y43568D02*
G01X7772Y43545D01*
G01X7772Y43545D02*
G01X7818Y43522D01*
G01X7818Y43522D02*
G01X7954Y43477D01*
G01X7954Y43477D02*
G01X7999Y43454D01*
G01X7999Y43454D02*
G01X8022Y43431D01*
G01X8022Y43431D02*
G01X8045Y43386D01*
G01X8045Y43386D02*
G01X8045Y43318D01*
G01X8045Y43318D02*
G01X7999Y43272D01*
G01X7999Y43272D02*
G01X7931Y43250D01*
G01X7931Y43250D02*
G01X7840Y43250D01*
G01X7840Y43250D02*
G01X7772Y43272D01*
G01X7772Y43272D02*
G01X7727Y43318D01*
G01X8227Y43727D02*
G01X8227Y43250D01*
G01X8227Y43727D02*
G01X8522Y43727D01*
G01X8227Y43500D02*
G01X8409Y43500D01*
G01X8227Y43250D02*
G01X8522Y43250D01*
G01X8863Y43727D02*
G01X8863Y43250D01*
G01X8704Y43727D02*
G01X9022Y43727D01*
G01X11500Y43227D02*
G01X11500Y42750D01*
G01X11500Y43227D02*
G01X11704Y43227D01*
G01X11704Y43227D02*
G01X11772Y43204D01*
G01X11772Y43204D02*
G01X11795Y43181D01*
G01X11795Y43181D02*
G01X11818Y43136D01*
G01X11818Y43136D02*
G01X11818Y43068D01*
G01X11818Y43068D02*
G01X11795Y43022D01*
G01X11795Y43022D02*
G01X11772Y43000D01*
G01X11772Y43000D02*
G01X11704Y42977D01*
G01X11704Y42977D02*
G01X11500Y42977D01*
G01X12000Y43227D02*
G01X12000Y42750D01*
G01X12000Y43227D02*
G01X12159Y43227D01*
G01X12159Y43227D02*
G01X12227Y43204D01*
G01X12227Y43204D02*
G01X12272Y43159D01*
G01X12272Y43159D02*
G01X12295Y43113D01*
G01X12295Y43113D02*
G01X12318Y43045D01*
G01X12318Y43045D02*
G01X12318Y42931D01*
G01X12318Y42931D02*
G01X12295Y42863D01*
G01X12295Y42863D02*
G01X12272Y42818D01*
G01X12272Y42818D02*
G01X12227Y42772D01*
G01X12227Y42772D02*
G01X12159Y42750D01*
G01X12159Y42750D02*
G01X12000Y42750D01*
G01X12818Y43227D02*
G01X12590Y42750D01*
G01X12500Y43227D02*
G01X12818Y43227D01*
G01X26250Y55227D02*
G01X26250Y54750D01*
G01X26250Y55227D02*
G01X26454Y55227D01*
G01X26454Y55227D02*
G01X26522Y55204D01*
G01X26522Y55204D02*
G01X26545Y55181D01*
G01X26545Y55181D02*
G01X26568Y55136D01*
G01X26568Y55136D02*
G01X26568Y55068D01*
G01X26568Y55068D02*
G01X26545Y55022D01*
G01X26545Y55022D02*
G01X26522Y55000D01*
G01X26522Y55000D02*
G01X26454Y54977D01*
G01X26454Y54977D02*
G01X26250Y54977D01*
G01X27090Y55113D02*
G01X27068Y55159D01*
G01X27068Y55159D02*
G01X27022Y55204D01*
G01X27022Y55204D02*
G01X26977Y55227D01*
G01X26977Y55227D02*
G01X26886Y55227D01*
G01X26886Y55227D02*
G01X26840Y55204D01*
G01X26840Y55204D02*
G01X26795Y55159D01*
G01X26795Y55159D02*
G01X26772Y55113D01*
G01X26772Y55113D02*
G01X26750Y55045D01*
G01X26750Y55045D02*
G01X26750Y54931D01*
G01X26750Y54931D02*
G01X26772Y54863D01*
G01X26772Y54863D02*
G01X26795Y54818D01*
G01X26795Y54818D02*
G01X26840Y54772D01*
G01X26840Y54772D02*
G01X26886Y54750D01*
G01X26886Y54750D02*
G01X26977Y54750D01*
G01X26977Y54750D02*
G01X27022Y54772D01*
G01X27022Y54772D02*
G01X27068Y54818D01*
G01X27068Y54818D02*
G01X27090Y54863D01*
G01X27499Y55227D02*
G01X27272Y54909D01*
G01X27272Y54909D02*
G01X27613Y54909D01*
G01X27499Y55227D02*
G01X27499Y54750D01*
G01X35750Y27977D02*
G01X35750Y27500D01*
G01X35750Y27977D02*
G01X35909Y27977D01*
G01X35909Y27977D02*
G01X35977Y27954D01*
G01X35977Y27954D02*
G01X36022Y27909D01*
G01X36022Y27909D02*
G01X36045Y27863D01*
G01X36045Y27863D02*
G01X36068Y27795D01*
G01X36068Y27795D02*
G01X36068Y27681D01*
G01X36068Y27681D02*
G01X36045Y27613D01*
G01X36045Y27613D02*
G01X36022Y27568D01*
G01X36022Y27568D02*
G01X35977Y27522D01*
G01X35977Y27522D02*
G01X35909Y27500D01*
G01X35909Y27500D02*
G01X35750Y27500D01*
G01X36590Y27863D02*
G01X36568Y27909D01*
G01X36568Y27909D02*
G01X36522Y27954D01*
G01X36522Y27954D02*
G01X36477Y27977D01*
G01X36477Y27977D02*
G01X36386Y27977D01*
G01X36386Y27977D02*
G01X36340Y27954D01*
G01X36340Y27954D02*
G01X36295Y27909D01*
G01X36295Y27909D02*
G01X36272Y27863D01*
G01X36272Y27863D02*
G01X36250Y27795D01*
G01X36250Y27795D02*
G01X36250Y27681D01*
G01X36250Y27681D02*
G01X36272Y27613D01*
G01X36272Y27613D02*
G01X36295Y27568D01*
G01X36295Y27568D02*
G01X36340Y27522D01*
G01X36340Y27522D02*
G01X36386Y27500D01*
G01X36386Y27500D02*
G01X36477Y27500D01*
G01X36477Y27500D02*
G01X36522Y27522D01*
G01X36522Y27522D02*
G01X36568Y27568D01*
G01X36568Y27568D02*
G01X36590Y27613D01*
G01X36590Y27613D02*
G01X36590Y27681D01*
G01X36477Y27681D02*
G01X36590Y27681D01*
G01X36772Y27977D02*
G01X36772Y27500D01*
G01X36772Y27977D02*
G01X37090Y27500D01*
G01X37090Y27977D02*
G01X37090Y27500D01*
G01X37272Y27977D02*
G01X37272Y27500D01*
G01X37272Y27977D02*
G01X37431Y27977D01*
G01X37431Y27977D02*
G01X37499Y27954D01*
G01X37499Y27954D02*
G01X37545Y27909D01*
G01X37545Y27909D02*
G01X37568Y27863D01*
G01X37568Y27863D02*
G01X37590Y27795D01*
G01X37590Y27795D02*
G01X37590Y27681D01*
G01X37590Y27681D02*
G01X37568Y27613D01*
G01X37568Y27613D02*
G01X37545Y27568D01*
G01X37545Y27568D02*
G01X37499Y27522D01*
G01X37499Y27522D02*
G01X37431Y27500D01*
G01X37431Y27500D02*
G01X37272Y27500D01*
G01X54545Y58068D02*
G01X54522Y58000D01*
G01X54522Y58000D02*
G01X54477Y57954D01*
G01X54477Y57954D02*
G01X54409Y57931D01*
G01X54409Y57931D02*
G01X54386Y57931D01*
G01X54386Y57931D02*
G01X54318Y57954D01*
G01X54318Y57954D02*
G01X54272Y58000D01*
G01X54272Y58000D02*
G01X54250Y58068D01*
G01X54250Y58068D02*
G01X54250Y58090D01*
G01X54250Y58090D02*
G01X54272Y58159D01*
G01X54272Y58159D02*
G01X54318Y58204D01*
G01X54318Y58204D02*
G01X54386Y58227D01*
G01X54386Y58227D02*
G01X54409Y58227D01*
G01X54409Y58227D02*
G01X54477Y58204D01*
G01X54477Y58204D02*
G01X54522Y58159D01*
G01X54522Y58159D02*
G01X54545Y58068D01*
G01X54545Y58068D02*
G01X54545Y57954D01*
G01X54545Y57954D02*
G01X54522Y57840D01*
G01X54522Y57840D02*
G01X54477Y57772D01*
G01X54477Y57772D02*
G01X54409Y57750D01*
G01X54409Y57750D02*
G01X54363Y57750D01*
G01X54363Y57750D02*
G01X54295Y57772D01*
G01X54295Y57772D02*
G01X54272Y57818D01*
G01X54727Y58227D02*
G01X54909Y57750D01*
G01X55090Y58227D02*
G01X54909Y57750D01*
G54D14*
G01X17000Y31630D02*
G01X17420Y31000D01*
G01X17420Y31630D02*
G01X17000Y31000D01*
G01X17660Y31000D02*
G01X18200Y31000D01*
G01X18680Y31630D02*
G01X18440Y31000D01*
G01X18680Y31630D02*
G01X18920Y31000D01*
G01X18530Y31210D02*
G01X18830Y31210D01*
G01X19160Y31630D02*
G01X19160Y31000D01*
G01X19400Y31630D02*
G01X19400Y31000D01*
G01X19400Y31630D02*
G01X19820Y31000D01*
G01X19820Y31630D02*
G01X19820Y31000D01*
G01X30000Y46880D02*
G01X30000Y46250D01*
G01X30000Y46880D02*
G01X30210Y46880D01*
G01X30210Y46880D02*
G01X30300Y46850D01*
G01X30300Y46850D02*
G01X30360Y46790D01*
G01X30360Y46790D02*
G01X30390Y46730D01*
G01X30390Y46730D02*
G01X30420Y46640D01*
G01X30420Y46640D02*
G01X30420Y46490D01*
G01X30420Y46490D02*
G01X30390Y46400D01*
G01X30390Y46400D02*
G01X30360Y46340D01*
G01X30360Y46340D02*
G01X30300Y46280D01*
G01X30300Y46280D02*
G01X30210Y46250D01*
G01X30210Y46250D02*
G01X30000Y46250D01*
G01X31110Y46730D02*
G01X31080Y46790D01*
G01X31080Y46790D02*
G01X31020Y46850D01*
G01X31020Y46850D02*
G01X30960Y46880D01*
G01X30960Y46880D02*
G01X30840Y46880D01*
G01X30840Y46880D02*
G01X30780Y46850D01*
G01X30780Y46850D02*
G01X30720Y46790D01*
G01X30720Y46790D02*
G01X30690Y46730D01*
G01X30690Y46730D02*
G01X30660Y46640D01*
G01X30660Y46640D02*
G01X30660Y46490D01*
G01X30660Y46490D02*
G01X30690Y46400D01*
G01X30690Y46400D02*
G01X30720Y46340D01*
G01X30720Y46340D02*
G01X30780Y46280D01*
G01X30780Y46280D02*
G01X30840Y46250D01*
G01X30840Y46250D02*
G01X30960Y46250D01*
G01X30960Y46250D02*
G01X31020Y46280D01*
G01X31020Y46280D02*
G01X31080Y46340D01*
G01X31080Y46340D02*
G01X31110Y46400D01*
G01X31110Y46400D02*
G01X31110Y46490D01*
G01X30960Y46490D02*
G01X31110Y46490D01*
G01X31350Y46880D02*
G01X31350Y46250D01*
G01X31350Y46880D02*
G01X31770Y46250D01*
G01X31770Y46880D02*
G01X31770Y46250D01*
G01X32010Y46880D02*
G01X32010Y46250D01*
G01X32010Y46880D02*
G01X32220Y46880D01*
G01X32220Y46880D02*
G01X32310Y46850D01*
G01X32310Y46850D02*
G01X32370Y46790D01*
G01X32370Y46790D02*
G01X32400Y46730D01*
G01X32400Y46730D02*
G01X32430Y46640D01*
G01X32430Y46640D02*
G01X32430Y46490D01*
G01X32430Y46490D02*
G01X32400Y46400D01*
G01X32400Y46400D02*
G01X32370Y46340D01*
G01X32370Y46340D02*
G01X32310Y46280D01*
G01X32310Y46280D02*
G01X32220Y46250D01*
G01X32220Y46250D02*
G01X32010Y46250D01*
G01X30240Y43380D02*
G01X30000Y42750D01*
G01X30240Y43380D02*
G01X30480Y42750D01*
G01X30090Y42960D02*
G01X30390Y42960D01*
G01X30720Y43380D02*
G01X30960Y42750D01*
G01X31200Y43380D02*
G01X30960Y42750D01*
G01X31890Y43230D02*
G01X31860Y43290D01*
G01X31860Y43290D02*
G01X31800Y43350D01*
G01X31800Y43350D02*
G01X31740Y43380D01*
G01X31740Y43380D02*
G01X31620Y43380D01*
G01X31620Y43380D02*
G01X31560Y43350D01*
G01X31560Y43350D02*
G01X31500Y43290D01*
G01X31500Y43290D02*
G01X31470Y43230D01*
G01X31470Y43230D02*
G01X31440Y43140D01*
G01X31440Y43140D02*
G01X31440Y42990D01*
G01X31440Y42990D02*
G01X31470Y42900D01*
G01X31470Y42900D02*
G01X31500Y42840D01*
G01X31500Y42840D02*
G01X31560Y42780D01*
G01X31560Y42780D02*
G01X31620Y42750D01*
G01X31620Y42750D02*
G01X31740Y42750D01*
G01X31740Y42750D02*
G01X31800Y42780D01*
G01X31800Y42780D02*
G01X31860Y42840D01*
G01X31860Y42840D02*
G01X31890Y42900D01*
G01X32580Y43230D02*
G01X32550Y43290D01*
G01X32550Y43290D02*
G01X32490Y43350D01*
G01X32490Y43350D02*
G01X32430Y43380D01*
G01X32430Y43380D02*
G01X32310Y43380D01*
G01X32310Y43380D02*
G01X32250Y43350D01*
G01X32250Y43350D02*
G01X32190Y43290D01*
G01X32190Y43290D02*
G01X32160Y43230D01*
G01X32160Y43230D02*
G01X32130Y43140D01*
G01X32130Y43140D02*
G01X32130Y42990D01*
G01X32130Y42990D02*
G01X32160Y42900D01*
G01X32160Y42900D02*
G01X32190Y42840D01*
G01X32190Y42840D02*
G01X32250Y42780D01*
G01X32250Y42780D02*
G01X32310Y42750D01*
G01X32310Y42750D02*
G01X32430Y42750D01*
G01X32430Y42750D02*
G01X32490Y42780D01*
G01X32490Y42780D02*
G01X32550Y42840D01*
G01X32550Y42840D02*
G01X32580Y42900D01*
G01X32810Y54630D02*
G01X33140Y54630D01*
G01X33140Y54630D02*
G01X32960Y54390D01*
G01X32960Y54390D02*
G01X33050Y54390D01*
G01X33050Y54390D02*
G01X33110Y54360D01*
G01X33110Y54360D02*
G01X33140Y54330D01*
G01X33140Y54330D02*
G01X33170Y54240D01*
G01X33170Y54240D02*
G01X33170Y54180D01*
G01X33170Y54180D02*
G01X33140Y54090D01*
G01X33140Y54090D02*
G01X33080Y54030D01*
G01X33080Y54030D02*
G01X32990Y54000D01*
G01X32990Y54000D02*
G01X32900Y54000D01*
G01X32900Y54000D02*
G01X32810Y54030D01*
G01X32810Y54030D02*
G01X32780Y54060D01*
G01X32780Y54060D02*
G01X32750Y54120D01*
G01X33410Y54630D02*
G01X33650Y54000D01*
G01X33890Y54630D02*
G01X33650Y54000D01*
G01X34190Y54630D02*
G01X34520Y54630D01*
G01X34520Y54630D02*
G01X34340Y54390D01*
G01X34340Y54390D02*
G01X34430Y54390D01*
G01X34430Y54390D02*
G01X34490Y54360D01*
G01X34490Y54360D02*
G01X34520Y54330D01*
G01X34520Y54330D02*
G01X34550Y54240D01*
G01X34550Y54240D02*
G01X34550Y54180D01*
G01X34550Y54180D02*
G01X34520Y54090D01*
G01X34520Y54090D02*
G01X34460Y54030D01*
G01X34460Y54030D02*
G01X34370Y54000D01*
G01X34370Y54000D02*
G01X34280Y54000D01*
G01X34280Y54000D02*
G01X34190Y54030D01*
G01X34190Y54030D02*
G01X34160Y54060D01*
G01X34160Y54060D02*
G01X34130Y54120D01*
G01X46500Y29880D02*
G01X46920Y29250D01*
G01X46920Y29880D02*
G01X46500Y29250D01*
G01X47160Y29250D02*
G01X47700Y29250D01*
G01X48180Y29880D02*
G01X47940Y29250D01*
G01X48180Y29880D02*
G01X48420Y29250D01*
G01X48030Y29460D02*
G01X48330Y29460D01*
G01X48660Y29880D02*
G01X48660Y29250D01*
G01X48900Y29880D02*
G01X48900Y29250D01*
G01X48900Y29880D02*
G01X49320Y29250D01*
G01X49320Y29880D02*
G01X49320Y29250D01*
G01X50040Y29520D02*
G01X50580Y29520D01*
G01X51540Y29880D02*
G01X51300Y29250D01*
G01X51540Y29880D02*
G01X51780Y29250D01*
G01X51390Y29460D02*
G01X51690Y29460D01*
G01X52020Y29880D02*
G01X52020Y29250D01*
G01X52020Y29880D02*
G01X52230Y29880D01*
G01X52230Y29880D02*
G01X52320Y29850D01*
G01X52320Y29850D02*
G01X52380Y29790D01*
G01X52380Y29790D02*
G01X52410Y29730D01*
G01X52410Y29730D02*
G01X52440Y29640D01*
G01X52440Y29640D02*
G01X52440Y29490D01*
G01X52440Y29490D02*
G01X52410Y29400D01*
G01X52410Y29400D02*
G01X52380Y29340D01*
G01X52380Y29340D02*
G01X52320Y29280D01*
G01X52320Y29280D02*
G01X52230Y29250D01*
G01X52230Y29250D02*
G01X52020Y29250D01*
G01X53130Y29730D02*
G01X53100Y29790D01*
G01X53100Y29790D02*
G01X53040Y29850D01*
G01X53040Y29850D02*
G01X52980Y29880D01*
G01X52980Y29880D02*
G01X52860Y29880D01*
G01X52860Y29880D02*
G01X52800Y29850D01*
G01X52800Y29850D02*
G01X52740Y29790D01*
G01X52740Y29790D02*
G01X52710Y29730D01*
G01X52710Y29730D02*
G01X52680Y29640D01*
G01X52680Y29640D02*
G01X52680Y29490D01*
G01X52680Y29490D02*
G01X52710Y29400D01*
G01X52710Y29400D02*
G01X52740Y29340D01*
G01X52740Y29340D02*
G01X52800Y29280D01*
G01X52800Y29280D02*
G01X52860Y29250D01*
G01X52860Y29250D02*
G01X52980Y29250D01*
G01X52980Y29250D02*
G01X53040Y29280D01*
G01X53040Y29280D02*
G01X53100Y29340D01*
G01X53100Y29340D02*
G01X53130Y29400D01*
G01X53550Y29880D02*
G01X53460Y29850D01*
G01X53460Y29850D02*
G01X53400Y29760D01*
G01X53400Y29760D02*
G01X53370Y29610D01*
G01X53370Y29610D02*
G01X53370Y29520D01*
G01X53370Y29520D02*
G01X53400Y29370D01*
G01X53400Y29370D02*
G01X53460Y29280D01*
G01X53460Y29280D02*
G01X53550Y29250D01*
G01X53550Y29250D02*
G01X53610Y29250D01*
G01X53610Y29250D02*
G01X53700Y29280D01*
G01X53700Y29280D02*
G01X53760Y29370D01*
G01X53760Y29370D02*
G01X53790Y29520D01*
G01X53790Y29520D02*
G01X53790Y29610D01*
G01X53790Y29610D02*
G01X53760Y29760D01*
G01X53760Y29760D02*
G01X53700Y29850D01*
G01X53700Y29850D02*
G01X53610Y29880D01*
G01X53610Y29880D02*
G01X53550Y29880D01*
G01X46500Y28880D02*
G01X46740Y28580D01*
G01X46740Y28580D02*
G01X46740Y28250D01*
G01X46980Y28880D02*
G01X46740Y28580D01*
G01X47220Y28250D02*
G01X47760Y28250D01*
G01X48240Y28880D02*
G01X48000Y28250D01*
G01X48240Y28880D02*
G01X48480Y28250D01*
G01X48090Y28460D02*
G01X48390Y28460D01*
G01X48720Y28880D02*
G01X48720Y28250D01*
G01X48960Y28880D02*
G01X48960Y28250D01*
G01X48960Y28880D02*
G01X49380Y28250D01*
G01X49380Y28880D02*
G01X49380Y28250D01*
G01X50100Y28520D02*
G01X50640Y28520D01*
G01X51600Y28880D02*
G01X51360Y28250D01*
G01X51600Y28880D02*
G01X51840Y28250D01*
G01X51450Y28460D02*
G01X51750Y28460D01*
G01X52080Y28880D02*
G01X52080Y28250D01*
G01X52080Y28880D02*
G01X52290Y28880D01*
G01X52290Y28880D02*
G01X52380Y28850D01*
G01X52380Y28850D02*
G01X52440Y28790D01*
G01X52440Y28790D02*
G01X52470Y28730D01*
G01X52470Y28730D02*
G01X52500Y28640D01*
G01X52500Y28640D02*
G01X52500Y28490D01*
G01X52500Y28490D02*
G01X52470Y28400D01*
G01X52470Y28400D02*
G01X52440Y28340D01*
G01X52440Y28340D02*
G01X52380Y28280D01*
G01X52380Y28280D02*
G01X52290Y28250D01*
G01X52290Y28250D02*
G01X52080Y28250D01*
G01X53190Y28730D02*
G01X53160Y28790D01*
G01X53160Y28790D02*
G01X53100Y28850D01*
G01X53100Y28850D02*
G01X53040Y28880D01*
G01X53040Y28880D02*
G01X52920Y28880D01*
G01X52920Y28880D02*
G01X52860Y28850D01*
G01X52860Y28850D02*
G01X52800Y28790D01*
G01X52800Y28790D02*
G01X52770Y28730D01*
G01X52770Y28730D02*
G01X52740Y28640D01*
G01X52740Y28640D02*
G01X52740Y28490D01*
G01X52740Y28490D02*
G01X52770Y28400D01*
G01X52770Y28400D02*
G01X52800Y28340D01*
G01X52800Y28340D02*
G01X52860Y28280D01*
G01X52860Y28280D02*
G01X52920Y28250D01*
G01X52920Y28250D02*
G01X53040Y28250D01*
G01X53040Y28250D02*
G01X53100Y28280D01*
G01X53100Y28280D02*
G01X53160Y28340D01*
G01X53160Y28340D02*
G01X53190Y28400D01*
G01X53430Y28760D02*
G01X53490Y28790D01*
G01X53490Y28790D02*
G01X53580Y28880D01*
G01X53580Y28880D02*
G01X53580Y28250D01*
G01X46920Y27880D02*
G01X46500Y27250D01*
G01X46500Y27880D02*
G01X46920Y27880D01*
G01X46500Y27250D02*
G01X46920Y27250D01*
G01X47160Y27250D02*
G01X47700Y27250D01*
G01X48180Y27880D02*
G01X47940Y27250D01*
G01X48180Y27880D02*
G01X48420Y27250D01*
G01X48030Y27460D02*
G01X48330Y27460D01*
G01X48660Y27880D02*
G01X48660Y27250D01*
G01X48900Y27880D02*
G01X48900Y27250D01*
G01X48900Y27880D02*
G01X49320Y27250D01*
G01X49320Y27880D02*
G01X49320Y27250D01*
G01X50040Y27520D02*
G01X50580Y27520D01*
G01X51540Y27880D02*
G01X51300Y27250D01*
G01X51540Y27880D02*
G01X51780Y27250D01*
G01X51390Y27460D02*
G01X51690Y27460D01*
G01X52020Y27880D02*
G01X52020Y27250D01*
G01X52020Y27880D02*
G01X52230Y27880D01*
G01X52230Y27880D02*
G01X52320Y27850D01*
G01X52320Y27850D02*
G01X52380Y27790D01*
G01X52380Y27790D02*
G01X52410Y27730D01*
G01X52410Y27730D02*
G01X52440Y27640D01*
G01X52440Y27640D02*
G01X52440Y27490D01*
G01X52440Y27490D02*
G01X52410Y27400D01*
G01X52410Y27400D02*
G01X52380Y27340D01*
G01X52380Y27340D02*
G01X52320Y27280D01*
G01X52320Y27280D02*
G01X52230Y27250D01*
G01X52230Y27250D02*
G01X52020Y27250D01*
G01X53130Y27730D02*
G01X53100Y27790D01*
G01X53100Y27790D02*
G01X53040Y27850D01*
G01X53040Y27850D02*
G01X52980Y27880D01*
G01X52980Y27880D02*
G01X52860Y27880D01*
G01X52860Y27880D02*
G01X52800Y27850D01*
G01X52800Y27850D02*
G01X52740Y27790D01*
G01X52740Y27790D02*
G01X52710Y27730D01*
G01X52710Y27730D02*
G01X52680Y27640D01*
G01X52680Y27640D02*
G01X52680Y27490D01*
G01X52680Y27490D02*
G01X52710Y27400D01*
G01X52710Y27400D02*
G01X52740Y27340D01*
G01X52740Y27340D02*
G01X52800Y27280D01*
G01X52800Y27280D02*
G01X52860Y27250D01*
G01X52860Y27250D02*
G01X52980Y27250D01*
G01X52980Y27250D02*
G01X53040Y27280D01*
G01X53040Y27280D02*
G01X53100Y27340D01*
G01X53100Y27340D02*
G01X53130Y27400D01*
G01X53400Y27730D02*
G01X53400Y27760D01*
G01X53400Y27760D02*
G01X53430Y27820D01*
G01X53430Y27820D02*
G01X53460Y27850D01*
G01X53460Y27850D02*
G01X53520Y27880D01*
G01X53520Y27880D02*
G01X53640Y27880D01*
G01X53640Y27880D02*
G01X53700Y27850D01*
G01X53700Y27850D02*
G01X53730Y27820D01*
G01X53730Y27820D02*
G01X53760Y27760D01*
G01X53760Y27760D02*
G01X53760Y27700D01*
G01X53760Y27700D02*
G01X53730Y27640D01*
G01X53730Y27640D02*
G01X53670Y27550D01*
G01X53670Y27550D02*
G01X53370Y27250D01*
G01X53370Y27250D02*
G01X53790Y27250D01*
G01X46680Y26880D02*
G01X46590Y26850D01*
G01X46590Y26850D02*
G01X46530Y26760D01*
G01X46530Y26760D02*
G01X46500Y26610D01*
G01X46500Y26610D02*
G01X46500Y26520D01*
G01X46500Y26520D02*
G01X46530Y26370D01*
G01X46530Y26370D02*
G01X46590Y26280D01*
G01X46590Y26280D02*
G01X46680Y26250D01*
G01X46680Y26250D02*
G01X46740Y26250D01*
G01X46740Y26250D02*
G01X46830Y26280D01*
G01X46830Y26280D02*
G01X46890Y26370D01*
G01X46890Y26370D02*
G01X46920Y26520D01*
G01X46920Y26520D02*
G01X46920Y26610D01*
G01X46920Y26610D02*
G01X46890Y26760D01*
G01X46890Y26760D02*
G01X46830Y26850D01*
G01X46830Y26850D02*
G01X46740Y26880D01*
G01X46740Y26880D02*
G01X46680Y26880D01*
G01X47610Y26730D02*
G01X47580Y26790D01*
G01X47580Y26790D02*
G01X47520Y26850D01*
G01X47520Y26850D02*
G01X47460Y26880D01*
G01X47460Y26880D02*
G01X47340Y26880D01*
G01X47340Y26880D02*
G01X47280Y26850D01*
G01X47280Y26850D02*
G01X47220Y26790D01*
G01X47220Y26790D02*
G01X47190Y26730D01*
G01X47190Y26730D02*
G01X47160Y26640D01*
G01X47160Y26640D02*
G01X47160Y26490D01*
G01X47160Y26490D02*
G01X47190Y26400D01*
G01X47190Y26400D02*
G01X47220Y26340D01*
G01X47220Y26340D02*
G01X47280Y26280D01*
G01X47280Y26280D02*
G01X47340Y26250D01*
G01X47340Y26250D02*
G01X47460Y26250D01*
G01X47460Y26250D02*
G01X47520Y26280D01*
G01X47520Y26280D02*
G01X47580Y26340D01*
G01X47580Y26340D02*
G01X47610Y26400D01*
G01X47610Y26400D02*
G01X47610Y26490D01*
G01X47460Y26490D02*
G01X47610Y26490D01*
G01X47850Y26880D02*
G01X47850Y26250D01*
G01X47850Y26880D02*
G01X48060Y26880D01*
G01X48060Y26880D02*
G01X48150Y26850D01*
G01X48150Y26850D02*
G01X48210Y26790D01*
G01X48210Y26790D02*
G01X48240Y26730D01*
G01X48240Y26730D02*
G01X48270Y26640D01*
G01X48270Y26640D02*
G01X48270Y26490D01*
G01X48270Y26490D02*
G01X48240Y26400D01*
G01X48240Y26400D02*
G01X48210Y26340D01*
G01X48210Y26340D02*
G01X48150Y26280D01*
G01X48150Y26280D02*
G01X48060Y26250D01*
G01X48060Y26250D02*
G01X47850Y26250D01*
G01X48510Y26250D02*
G01X49050Y26250D01*
G01X49530Y26880D02*
G01X49290Y26250D01*
G01X49530Y26880D02*
G01X49770Y26250D01*
G01X49380Y26460D02*
G01X49680Y26460D01*
G01X50010Y26880D02*
G01X50010Y26250D01*
G01X50250Y26880D02*
G01X50250Y26250D01*
G01X50250Y26880D02*
G01X50670Y26250D01*
G01X50670Y26880D02*
G01X50670Y26250D01*
G01X51390Y26520D02*
G01X51930Y26520D01*
G01X52890Y26880D02*
G01X52650Y26250D01*
G01X52890Y26880D02*
G01X53130Y26250D01*
G01X52740Y26460D02*
G01X53040Y26460D01*
G01X53370Y26880D02*
G01X53370Y26250D01*
G01X53370Y26880D02*
G01X53580Y26880D01*
G01X53580Y26880D02*
G01X53670Y26850D01*
G01X53670Y26850D02*
G01X53730Y26790D01*
G01X53730Y26790D02*
G01X53760Y26730D01*
G01X53760Y26730D02*
G01X53790Y26640D01*
G01X53790Y26640D02*
G01X53790Y26490D01*
G01X53790Y26490D02*
G01X53760Y26400D01*
G01X53760Y26400D02*
G01X53730Y26340D01*
G01X53730Y26340D02*
G01X53670Y26280D01*
G01X53670Y26280D02*
G01X53580Y26250D01*
G01X53580Y26250D02*
G01X53370Y26250D01*
G01X54480Y26730D02*
G01X54450Y26790D01*
G01X54450Y26790D02*
G01X54390Y26850D01*
G01X54390Y26850D02*
G01X54330Y26880D01*
G01X54330Y26880D02*
G01X54210Y26880D01*
G01X54210Y26880D02*
G01X54150Y26850D01*
G01X54150Y26850D02*
G01X54090Y26790D01*
G01X54090Y26790D02*
G01X54060Y26730D01*
G01X54060Y26730D02*
G01X54030Y26640D01*
G01X54030Y26640D02*
G01X54030Y26490D01*
G01X54030Y26490D02*
G01X54060Y26400D01*
G01X54060Y26400D02*
G01X54090Y26340D01*
G01X54090Y26340D02*
G01X54150Y26280D01*
G01X54150Y26280D02*
G01X54210Y26250D01*
G01X54210Y26250D02*
G01X54330Y26250D01*
G01X54330Y26250D02*
G01X54390Y26280D01*
G01X54390Y26280D02*
G01X54450Y26340D01*
G01X54450Y26340D02*
G01X54480Y26400D01*
G01X54780Y26880D02*
G01X55110Y26880D01*
G01X55110Y26880D02*
G01X54930Y26640D01*
G01X54930Y26640D02*
G01X55020Y26640D01*
G01X55020Y26640D02*
G01X55080Y26610D01*
G01X55080Y26610D02*
G01X55110Y26580D01*
G01X55110Y26580D02*
G01X55140Y26490D01*
G01X55140Y26490D02*
G01X55140Y26430D01*
G01X55140Y26430D02*
G01X55110Y26340D01*
G01X55110Y26340D02*
G01X55050Y26280D01*
G01X55050Y26280D02*
G01X54960Y26250D01*
G01X54960Y26250D02*
G01X54870Y26250D01*
G01X54870Y26250D02*
G01X54780Y26280D01*
G01X54780Y26280D02*
G01X54750Y26310D01*
G01X54750Y26310D02*
G01X54720Y26370D01*
G01X36170Y34040D02*
G01X36110Y34100D01*
G01X36110Y34100D02*
G01X36020Y34130D01*
G01X36020Y34130D02*
G01X35900Y34130D01*
G01X35900Y34130D02*
G01X35810Y34100D01*
G01X35810Y34100D02*
G01X35750Y34040D01*
G01X35750Y34040D02*
G01X35750Y33980D01*
G01X35750Y33980D02*
G01X35780Y33920D01*
G01X35780Y33920D02*
G01X35810Y33890D01*
G01X35810Y33890D02*
G01X35870Y33860D01*
G01X35870Y33860D02*
G01X36050Y33800D01*
G01X36050Y33800D02*
G01X36110Y33770D01*
G01X36110Y33770D02*
G01X36140Y33740D01*
G01X36140Y33740D02*
G01X36170Y33680D01*
G01X36170Y33680D02*
G01X36170Y33590D01*
G01X36170Y33590D02*
G01X36110Y33530D01*
G01X36110Y33530D02*
G01X36020Y33500D01*
G01X36020Y33500D02*
G01X35900Y33500D01*
G01X35900Y33500D02*
G01X35810Y33530D01*
G01X35810Y33530D02*
G01X35750Y33590D01*
G01X36410Y34130D02*
G01X36410Y33500D01*
G01X36830Y34130D02*
G01X36830Y33500D01*
G01X36410Y33830D02*
G01X36830Y33830D01*
G01X37250Y34130D02*
G01X37190Y34100D01*
G01X37190Y34100D02*
G01X37130Y34040D01*
G01X37130Y34040D02*
G01X37100Y33980D01*
G01X37100Y33980D02*
G01X37070Y33890D01*
G01X37070Y33890D02*
G01X37070Y33740D01*
G01X37070Y33740D02*
G01X37100Y33650D01*
G01X37100Y33650D02*
G01X37130Y33590D01*
G01X37130Y33590D02*
G01X37190Y33530D01*
G01X37190Y33530D02*
G01X37250Y33500D01*
G01X37250Y33500D02*
G01X37370Y33500D01*
G01X37370Y33500D02*
G01X37430Y33530D01*
G01X37430Y33530D02*
G01X37490Y33590D01*
G01X37490Y33590D02*
G01X37520Y33650D01*
G01X37520Y33650D02*
G01X37550Y33740D01*
G01X37550Y33740D02*
G01X37550Y33890D01*
G01X37550Y33890D02*
G01X37520Y33980D01*
G01X37520Y33980D02*
G01X37490Y34040D01*
G01X37490Y34040D02*
G01X37430Y34100D01*
G01X37430Y34100D02*
G01X37370Y34130D01*
G01X37370Y34130D02*
G01X37250Y34130D01*
G01X37790Y34130D02*
G01X37790Y33500D01*
G01X37790Y34130D02*
G01X38060Y34130D01*
G01X38060Y34130D02*
G01X38150Y34100D01*
G01X38150Y34100D02*
G01X38180Y34070D01*
G01X38180Y34070D02*
G01X38210Y34010D01*
G01X38210Y34010D02*
G01X38210Y33950D01*
G01X38210Y33950D02*
G01X38180Y33890D01*
G01X38180Y33890D02*
G01X38150Y33860D01*
G01X38150Y33860D02*
G01X38060Y33830D01*
G01X38060Y33830D02*
G01X37790Y33830D01*
G01X38000Y33830D02*
G01X38210Y33500D01*
G01X38660Y34130D02*
G01X38660Y33500D01*
G01X38450Y34130D02*
G01X38870Y34130D01*
G01X39590Y33770D02*
G01X40130Y33770D01*
G01X41270Y34040D02*
G01X41210Y34100D01*
G01X41210Y34100D02*
G01X41120Y34130D01*
G01X41120Y34130D02*
G01X41000Y34130D01*
G01X41000Y34130D02*
G01X40910Y34100D01*
G01X40910Y34100D02*
G01X40850Y34040D01*
G01X40850Y34040D02*
G01X40850Y33980D01*
G01X40850Y33980D02*
G01X40880Y33920D01*
G01X40880Y33920D02*
G01X40910Y33890D01*
G01X40910Y33890D02*
G01X40970Y33860D01*
G01X40970Y33860D02*
G01X41150Y33800D01*
G01X41150Y33800D02*
G01X41210Y33770D01*
G01X41210Y33770D02*
G01X41240Y33740D01*
G01X41240Y33740D02*
G01X41270Y33680D01*
G01X41270Y33680D02*
G01X41270Y33590D01*
G01X41270Y33590D02*
G01X41210Y33530D01*
G01X41210Y33530D02*
G01X41120Y33500D01*
G01X41120Y33500D02*
G01X41000Y33500D01*
G01X41000Y33500D02*
G01X40910Y33530D01*
G01X40910Y33530D02*
G01X40850Y33590D01*
G01X41510Y34130D02*
G01X41510Y33500D01*
G01X41510Y34130D02*
G01X41900Y34130D01*
G01X41510Y33830D02*
G01X41750Y33830D01*
G01X41510Y33500D02*
G01X41900Y33500D01*
G01X42140Y34130D02*
G01X42140Y33500D01*
G01X42140Y33500D02*
G01X42500Y33500D01*
G01X42740Y34130D02*
G01X42740Y33500D01*
G01X42740Y34130D02*
G01X43130Y34130D01*
G01X42740Y33830D02*
G01X42980Y33830D01*
G01X43370Y33770D02*
G01X43910Y33770D01*
G01X44360Y34130D02*
G01X44360Y33500D01*
G01X44150Y34130D02*
G01X44570Y34130D01*
G01X44810Y34130D02*
G01X44810Y33500D01*
G01X44810Y34130D02*
G01X45200Y34130D01*
G01X44810Y33830D02*
G01X45050Y33830D01*
G01X44810Y33500D02*
G01X45200Y33500D01*
G01X45860Y34040D02*
G01X45800Y34100D01*
G01X45800Y34100D02*
G01X45710Y34130D01*
G01X45710Y34130D02*
G01X45590Y34130D01*
G01X45590Y34130D02*
G01X45500Y34100D01*
G01X45500Y34100D02*
G01X45440Y34040D01*
G01X45440Y34040D02*
G01X45440Y33980D01*
G01X45440Y33980D02*
G01X45470Y33920D01*
G01X45470Y33920D02*
G01X45500Y33890D01*
G01X45500Y33890D02*
G01X45560Y33860D01*
G01X45560Y33860D02*
G01X45740Y33800D01*
G01X45740Y33800D02*
G01X45800Y33770D01*
G01X45800Y33770D02*
G01X45830Y33740D01*
G01X45830Y33740D02*
G01X45860Y33680D01*
G01X45860Y33680D02*
G01X45860Y33590D01*
G01X45860Y33590D02*
G01X45800Y33530D01*
G01X45800Y33530D02*
G01X45710Y33500D01*
G01X45710Y33500D02*
G01X45590Y33500D01*
G01X45590Y33500D02*
G01X45500Y33530D01*
G01X45500Y33530D02*
G01X45440Y33590D01*
G01X46310Y34130D02*
G01X46310Y33500D01*
G01X46100Y34130D02*
G01X46520Y34130D01*
G01X37920Y32540D02*
G01X37860Y32600D01*
G01X37860Y32600D02*
G01X37770Y32630D01*
G01X37770Y32630D02*
G01X37650Y32630D01*
G01X37650Y32630D02*
G01X37560Y32600D01*
G01X37560Y32600D02*
G01X37500Y32540D01*
G01X37500Y32540D02*
G01X37500Y32480D01*
G01X37500Y32480D02*
G01X37530Y32420D01*
G01X37530Y32420D02*
G01X37560Y32390D01*
G01X37560Y32390D02*
G01X37620Y32360D01*
G01X37620Y32360D02*
G01X37800Y32300D01*
G01X37800Y32300D02*
G01X37860Y32270D01*
G01X37860Y32270D02*
G01X37890Y32240D01*
G01X37890Y32240D02*
G01X37920Y32180D01*
G01X37920Y32180D02*
G01X37920Y32090D01*
G01X37920Y32090D02*
G01X37860Y32030D01*
G01X37860Y32030D02*
G01X37770Y32000D01*
G01X37770Y32000D02*
G01X37650Y32000D01*
G01X37650Y32000D02*
G01X37560Y32030D01*
G01X37560Y32030D02*
G01X37500Y32090D01*
G01X38160Y32630D02*
G01X38160Y32000D01*
G01X38580Y32630D02*
G01X38580Y32000D01*
G01X38160Y32330D02*
G01X38580Y32330D01*
G01X39000Y32630D02*
G01X38940Y32600D01*
G01X38940Y32600D02*
G01X38880Y32540D01*
G01X38880Y32540D02*
G01X38850Y32480D01*
G01X38850Y32480D02*
G01X38820Y32390D01*
G01X38820Y32390D02*
G01X38820Y32240D01*
G01X38820Y32240D02*
G01X38850Y32150D01*
G01X38850Y32150D02*
G01X38880Y32090D01*
G01X38880Y32090D02*
G01X38940Y32030D01*
G01X38940Y32030D02*
G01X39000Y32000D01*
G01X39000Y32000D02*
G01X39120Y32000D01*
G01X39120Y32000D02*
G01X39180Y32030D01*
G01X39180Y32030D02*
G01X39240Y32090D01*
G01X39240Y32090D02*
G01X39270Y32150D01*
G01X39270Y32150D02*
G01X39300Y32240D01*
G01X39300Y32240D02*
G01X39300Y32390D01*
G01X39300Y32390D02*
G01X39270Y32480D01*
G01X39270Y32480D02*
G01X39240Y32540D01*
G01X39240Y32540D02*
G01X39180Y32600D01*
G01X39180Y32600D02*
G01X39120Y32630D01*
G01X39120Y32630D02*
G01X39000Y32630D01*
G01X39540Y32630D02*
G01X39540Y32000D01*
G01X39540Y32630D02*
G01X39810Y32630D01*
G01X39810Y32630D02*
G01X39900Y32600D01*
G01X39900Y32600D02*
G01X39930Y32570D01*
G01X39930Y32570D02*
G01X39960Y32510D01*
G01X39960Y32510D02*
G01X39960Y32450D01*
G01X39960Y32450D02*
G01X39930Y32390D01*
G01X39930Y32390D02*
G01X39900Y32360D01*
G01X39900Y32360D02*
G01X39810Y32330D01*
G01X39810Y32330D02*
G01X39540Y32330D01*
G01X39750Y32330D02*
G01X39960Y32000D01*
G01X40410Y32630D02*
G01X40410Y32000D01*
G01X40200Y32630D02*
G01X40620Y32630D01*
G01X41340Y32270D02*
G01X41880Y32270D01*
G01X42960Y32540D02*
G01X42930Y32600D01*
G01X42930Y32600D02*
G01X42840Y32630D01*
G01X42840Y32630D02*
G01X42780Y32630D01*
G01X42780Y32630D02*
G01X42690Y32600D01*
G01X42690Y32600D02*
G01X42630Y32510D01*
G01X42630Y32510D02*
G01X42600Y32360D01*
G01X42600Y32360D02*
G01X42600Y32210D01*
G01X42600Y32210D02*
G01X42630Y32090D01*
G01X42630Y32090D02*
G01X42690Y32030D01*
G01X42690Y32030D02*
G01X42780Y32000D01*
G01X42780Y32000D02*
G01X42810Y32000D01*
G01X42810Y32000D02*
G01X42900Y32030D01*
G01X42900Y32030D02*
G01X42960Y32090D01*
G01X42960Y32090D02*
G01X42990Y32180D01*
G01X42990Y32180D02*
G01X42990Y32210D01*
G01X42990Y32210D02*
G01X42960Y32300D01*
G01X42960Y32300D02*
G01X42900Y32360D01*
G01X42900Y32360D02*
G01X42810Y32390D01*
G01X42810Y32390D02*
G01X42780Y32390D01*
G01X42780Y32390D02*
G01X42690Y32360D01*
G01X42690Y32360D02*
G01X42630Y32300D01*
G01X42630Y32300D02*
G01X42600Y32210D01*
G01X43680Y32480D02*
G01X43650Y32540D01*
G01X43650Y32540D02*
G01X43590Y32600D01*
G01X43590Y32600D02*
G01X43530Y32630D01*
G01X43530Y32630D02*
G01X43410Y32630D01*
G01X43410Y32630D02*
G01X43350Y32600D01*
G01X43350Y32600D02*
G01X43290Y32540D01*
G01X43290Y32540D02*
G01X43260Y32480D01*
G01X43260Y32480D02*
G01X43230Y32390D01*
G01X43230Y32390D02*
G01X43230Y32240D01*
G01X43230Y32240D02*
G01X43260Y32150D01*
G01X43260Y32150D02*
G01X43290Y32090D01*
G01X43290Y32090D02*
G01X43350Y32030D01*
G01X43350Y32030D02*
G01X43410Y32000D01*
G01X43410Y32000D02*
G01X43530Y32000D01*
G01X43530Y32000D02*
G01X43590Y32030D01*
G01X43590Y32030D02*
G01X43650Y32090D01*
G01X43650Y32090D02*
G01X43680Y32150D01*
G01X43680Y32150D02*
G01X43680Y32240D01*
G01X43530Y32240D02*
G01X43680Y32240D01*
G01X35930Y31380D02*
G01X35870Y31350D01*
G01X35870Y31350D02*
G01X35810Y31290D01*
G01X35810Y31290D02*
G01X35780Y31230D01*
G01X35780Y31230D02*
G01X35750Y31140D01*
G01X35750Y31140D02*
G01X35750Y30990D01*
G01X35750Y30990D02*
G01X35780Y30900D01*
G01X35780Y30900D02*
G01X35810Y30840D01*
G01X35810Y30840D02*
G01X35870Y30780D01*
G01X35870Y30780D02*
G01X35930Y30750D01*
G01X35930Y30750D02*
G01X36050Y30750D01*
G01X36050Y30750D02*
G01X36110Y30780D01*
G01X36110Y30780D02*
G01X36170Y30840D01*
G01X36170Y30840D02*
G01X36200Y30900D01*
G01X36200Y30900D02*
G01X36230Y30990D01*
G01X36230Y30990D02*
G01X36230Y31140D01*
G01X36230Y31140D02*
G01X36200Y31230D01*
G01X36200Y31230D02*
G01X36170Y31290D01*
G01X36170Y31290D02*
G01X36110Y31350D01*
G01X36110Y31350D02*
G01X36050Y31380D01*
G01X36050Y31380D02*
G01X35930Y31380D01*
G01X36470Y31380D02*
G01X36470Y30750D01*
G01X36470Y31380D02*
G01X36740Y31380D01*
G01X36740Y31380D02*
G01X36830Y31350D01*
G01X36830Y31350D02*
G01X36860Y31320D01*
G01X36860Y31320D02*
G01X36890Y31260D01*
G01X36890Y31260D02*
G01X36890Y31170D01*
G01X36890Y31170D02*
G01X36860Y31110D01*
G01X36860Y31110D02*
G01X36830Y31080D01*
G01X36830Y31080D02*
G01X36740Y31050D01*
G01X36740Y31050D02*
G01X36470Y31050D01*
G01X37130Y31380D02*
G01X37130Y30750D01*
G01X37130Y31380D02*
G01X37520Y31380D01*
G01X37130Y31080D02*
G01X37370Y31080D01*
G01X37130Y30750D02*
G01X37520Y30750D01*
G01X37760Y31380D02*
G01X37760Y30750D01*
G01X37760Y31380D02*
G01X38180Y30750D01*
G01X38180Y31380D02*
G01X38180Y30750D01*
G01X38420Y31020D02*
G01X38960Y31020D01*
G01X39620Y31290D02*
G01X39560Y31350D01*
G01X39560Y31350D02*
G01X39470Y31380D01*
G01X39470Y31380D02*
G01X39350Y31380D01*
G01X39350Y31380D02*
G01X39260Y31350D01*
G01X39260Y31350D02*
G01X39200Y31290D01*
G01X39200Y31290D02*
G01X39200Y31230D01*
G01X39200Y31230D02*
G01X39230Y31170D01*
G01X39230Y31170D02*
G01X39260Y31140D01*
G01X39260Y31140D02*
G01X39320Y31110D01*
G01X39320Y31110D02*
G01X39500Y31050D01*
G01X39500Y31050D02*
G01X39560Y31020D01*
G01X39560Y31020D02*
G01X39590Y30990D01*
G01X39590Y30990D02*
G01X39620Y30930D01*
G01X39620Y30930D02*
G01X39620Y30840D01*
G01X39620Y30840D02*
G01X39560Y30780D01*
G01X39560Y30780D02*
G01X39470Y30750D01*
G01X39470Y30750D02*
G01X39350Y30750D01*
G01X39350Y30750D02*
G01X39260Y30780D01*
G01X39260Y30780D02*
G01X39200Y30840D01*
G01X39860Y31380D02*
G01X39860Y30750D01*
G01X39860Y30750D02*
G01X40220Y30750D01*
G01X40460Y31380D02*
G01X40460Y30750D01*
G01X40460Y31380D02*
G01X40850Y31380D01*
G01X40460Y31080D02*
G01X40700Y31080D01*
G01X40460Y30750D02*
G01X40850Y30750D01*
G01X41090Y31380D02*
G01X41090Y30750D01*
G01X41090Y31380D02*
G01X41480Y31380D01*
G01X41090Y31080D02*
G01X41330Y31080D01*
G01X41090Y30750D02*
G01X41480Y30750D01*
G01X41720Y31380D02*
G01X41720Y30750D01*
G01X41720Y31380D02*
G01X41990Y31380D01*
G01X41990Y31380D02*
G01X42080Y31350D01*
G01X42080Y31350D02*
G01X42110Y31320D01*
G01X42110Y31320D02*
G01X42140Y31260D01*
G01X42140Y31260D02*
G01X42140Y31170D01*
G01X42140Y31170D02*
G01X42110Y31110D01*
G01X42110Y31110D02*
G01X42080Y31080D01*
G01X42080Y31080D02*
G01X41990Y31050D01*
G01X41990Y31050D02*
G01X41720Y31050D01*
G01X1730Y55040D02*
G01X1250Y54770D01*
G01X1250Y54770D02*
G01X1730Y54500D01*
G01X1970Y54770D02*
G01X2510Y54770D01*
G01X2750Y54770D02*
G01X3290Y54770D01*
G01X3800Y55040D02*
G01X3800Y54500D01*
G01X3530Y54770D02*
G01X4070Y54770D01*
G01X4310Y55130D02*
G01X4550Y54830D01*
G01X4550Y54830D02*
G01X4550Y54500D01*
G01X4790Y55130D02*
G01X4550Y54830D01*
G01X6290Y58520D02*
G01X6020Y59000D01*
G01X6020Y59000D02*
G01X5750Y58520D01*
G01X6020Y58280D02*
G01X6020Y57740D01*
G01X6020Y57500D02*
G01X6020Y56960D01*
G01X6290Y56450D02*
G01X5750Y56450D01*
G01X6020Y56720D02*
G01X6020Y56180D01*
G01X6380Y55940D02*
G01X5750Y55520D01*
G01X6380Y55520D02*
G01X5750Y55940D01*
M00*
M02*
